<svg width="1386" height="181" viewBox="0 0 1386 181" fill="none" xmlns="http://www.w3.org/2000/svg">
<path d="M1385.64 134.442C1385.64 166.064 1364.11 180.614 1338.69 180.614C1315.22 180.614 1297.18 168.586 1294.65 147.828H1311.73C1314.25 160.438 1325.11 166.84 1338.69 166.84C1357.12 166.84 1368.18 156.364 1368.18 135.8V122.414C1362.75 133.666 1350.53 142.202 1335.2 142.202C1309.01 142.202 1291.36 119.698 1291.36 90.404C1291.36 61.11 1309.01 38.606 1335.2 38.606C1350.53 38.606 1362.75 47.336 1368.18 58.588V40.74H1385.64V134.442ZM1368.96 90.404C1368.96 67.706 1357.51 52.768 1338.89 52.768C1320.26 52.768 1308.82 67.706 1308.82 90.404C1308.82 113.102 1320.26 128.234 1338.89 128.234C1357.51 128.234 1368.96 113.102 1368.96 90.404Z" fill="#302d2d"/>
<path d="M1201.62 141.62V40.74H1219.08V57.036C1224.32 47.53 1235.38 38.606 1250.9 38.606C1272.82 38.606 1285.43 54.32 1285.43 76.242V141.62H1267.97V79.734C1267.97 64.408 1260.99 53.156 1245.08 53.156C1231.69 53.156 1219.08 63.826 1219.08 81.868V141.62H1201.62Z" fill="#302d2d"/>
<path d="M1174.15 19.9823V1.55225H1192.58V19.9823H1174.15ZM1192 40.7402V141.62H1174.54V40.7402H1192Z" fill="#302d2d"/>
<path d="M1084.83 110.58H1102.09C1104.03 122.608 1113.93 130.174 1128.67 130.174C1141.28 130.174 1151.76 123.772 1151.76 113.49C1151.76 105.536 1147.49 101.268 1137.79 99.328L1112.76 94.284C1098.8 91.374 1088.51 84.972 1088.51 69.064C1088.51 52.186 1104.23 38.606 1126.54 38.606C1151.18 38.606 1165.34 51.604 1167.47 70.81H1150.4C1148.85 59.364 1140.51 52.186 1126.54 52.186C1114.32 52.186 1105.39 58.588 1105.39 67.9C1105.39 75.078 1109.85 78.376 1117.81 79.928L1143.61 85.166C1159.52 88.464 1168.83 97.194 1168.83 112.132C1168.83 131.144 1150.98 143.754 1128.67 143.754C1103.06 143.754 1086.77 129.98 1084.83 110.58Z" fill="#302d2d"/>
<path d="M1079.46 40.7402V141.62H1062V125.324C1056.76 134.83 1046.68 143.754 1031.16 143.754C1009.24 143.754 996.625 128.04 996.625 106.118V40.7402H1014.09V102.626C1014.09 117.952 1021.07 129.204 1036.78 129.204C1049.98 129.204 1062 118.534 1062 100.492V40.7402H1079.46Z" fill="#302d2d"/>
<path d="M990.242 91.18C990.242 122.026 971.036 143.754 943.488 143.754C915.94 143.754 896.734 122.026 896.734 91.18C896.734 60.334 915.94 38.606 943.488 38.606C971.036 38.606 990.242 60.334 990.242 91.18ZM914.194 91.18C914.194 113.878 925.252 129.592 943.488 129.592C961.53 129.592 972.588 113.878 972.588 91.18C972.588 68.482 961.53 52.768 943.488 52.768C925.252 52.768 914.194 68.482 914.194 91.18Z" fill="#302d2d"/>
<path d="M871.961 0H890.003V141.62H871.961V76.824H793.585V141.62H775.543V0H793.585V60.916H871.961V0Z" fill="#302d2d"/>
<path d="M648.039 141.62V40.74H665.499V57.036C670.737 47.53 681.795 38.606 697.315 38.606C719.237 38.606 731.847 54.32 731.847 76.242V141.62H714.387V79.734C714.387 64.408 707.403 53.156 691.495 53.156C678.109 53.156 665.499 63.826 665.499 81.868V141.62H648.039Z" fill="#302d2d"/>
<path d="M609.269 79.54C617.223 78.376 621.879 75.466 621.879 68.288C621.879 58.782 613.925 52.186 600.539 52.186C586.765 52.186 578.035 58.782 576.289 70.81H559.023C561.351 52.768 576.095 38.606 600.927 38.606C625.953 38.606 638.757 51.798 638.757 72.362V119.504C638.757 128.04 639.145 134.442 639.921 141.62H623.431C622.655 137.158 622.267 132.308 622.073 126.682C616.253 137.158 603.449 143.754 589.481 143.754C570.663 143.754 554.367 132.696 554.367 113.684C554.367 93.508 569.305 85.554 588.899 82.644L609.269 79.54ZM570.663 112.908C570.663 124.354 579.975 130.368 591.615 130.368C608.105 130.368 621.879 120.28 621.879 102.238V89.24C620.133 90.016 618.387 90.598 616.253 90.986L592.973 94.866C580.169 96.806 570.663 100.492 570.663 112.908Z" fill="#302d2d"/>
<path d="M464.211 91.18C464.211 59.946 484.193 38.606 510.965 38.606C533.857 38.606 548.213 52.186 551.705 70.81H534.245C531.529 59.752 522.993 52.768 510.965 52.768C493.505 52.768 481.671 68.094 481.671 91.18C481.671 114.266 493.505 129.592 510.965 129.592C522.993 129.592 531.917 122.608 534.439 110.58H551.705C548.407 130.368 533.081 143.754 510.577 143.754C483.999 143.754 464.211 122.414 464.211 91.18Z" fill="#302d2d"/>
<path d="M439.258 19.9823V1.55225H457.688V19.9823H439.258ZM457.106 40.7402V141.62H439.646V40.7402H457.106Z" fill="#302d2d"/>
<path d="M432.849 39.9639V57.2299H429.163C411.897 57.2299 401.227 68.6759 401.227 87.4939V141.814H383.379V40.9339H401.227V60.1399C405.495 49.0819 415.777 39.9639 429.939 39.9639H432.849Z" fill="#302d2d"/>
<path d="M375.171 110.58C371.679 130.368 355.577 143.754 332.879 143.754C305.331 143.754 286.125 122.414 286.125 91.374C286.125 60.916 305.913 38.606 332.879 38.606C361.009 38.606 376.723 60.334 376.723 88.658C376.723 91.18 376.529 92.926 376.141 95.254H302.809C303.973 117.952 316.777 129.592 332.879 129.592C346.847 129.592 356.159 122.22 359.069 110.58H375.171ZM332.685 52.768C315.807 52.768 305.913 65.184 303.391 82.062H359.651C359.457 66.348 350.339 52.768 332.685 52.768Z" fill="#302d2d"/>
<path d="M136.516 141.62V40.74H153.976V56.26C158.826 47.142 169.69 38.606 184.434 38.606C197.432 38.606 208.102 45.784 212.952 56.842C218.966 47.142 230.218 38.606 245.738 38.606C267.272 38.606 279.688 53.738 279.688 75.466V141.62H262.228V78.376C262.228 64.02 255.826 53.35 241.082 53.35C228.86 53.35 216.832 63.244 216.832 80.51V141.62H199.372V78.376C199.372 64.02 192.97 53.35 178.032 53.35C166.004 53.35 153.976 63.244 153.976 80.51V141.62H136.516Z" fill="#302d2d"/>
<path d="M56.066 0H75.854L131.92 141.62H112.714L97 101.074H34.338L18.818 141.62H0L56.066 0ZM65.572 20.176L40.546 85.166H90.792L65.572 20.176Z" fill="#302d2d"/>
</svg>
