<svg width="355" height="173" viewBox="0 0 355 173" fill="none" xmlns="http://www.w3.org/2000/svg">
<path d="M326.143 150.143C326.143 165.465 315.709 172.515 303.395 172.515C292.021 172.515 283.279 166.687 282.057 156.629H290.329C291.551 162.739 296.815 165.841 303.395 165.841C312.325 165.841 317.683 160.765 317.683 150.801V144.315C315.051 149.767 309.129 153.903 301.703 153.903C289.013 153.903 280.459 142.999 280.459 128.805C280.459 114.611 289.013 103.707 301.703 103.707C309.129 103.707 315.051 107.937 317.683 113.389V104.741H326.143V150.143ZM318.059 128.805C318.059 117.807 312.513 110.569 303.489 110.569C294.465 110.569 288.919 117.807 288.919 128.805C288.919 139.803 294.465 147.135 303.489 147.135C312.513 147.135 318.059 139.803 318.059 128.805Z" fill="#FDFFF1" style="fill:#FDFFF1;fill:color(display-p3 0.9922 1.0000 0.9451);fill-opacity:1;"/>
<path d="M236.981 153.621V104.741H245.441V112.637C247.979 108.031 253.337 103.707 260.857 103.707C271.479 103.707 277.589 111.321 277.589 121.943V153.621H269.129V123.635C269.129 116.209 265.745 110.757 258.037 110.757C251.551 110.757 245.441 115.927 245.441 124.669V153.621H236.981Z" fill="#FDFFF1" style="fill:#FDFFF1;fill:color(display-p3 0.9922 1.0000 0.9451);fill-opacity:1;"/>
<path d="M223.668 94.6824V85.7524H232.598V94.6824H223.668ZM232.316 104.74V153.62H223.856V104.74H232.316Z" fill="#FDFFF1" style="fill:#FDFFF1;fill:color(display-p3 0.9922 1.0000 0.9451);fill-opacity:1;"/>
<path d="M180.39 138.581H188.756C189.696 144.409 194.49 148.075 201.634 148.075C207.744 148.075 212.82 144.973 212.82 139.991C212.82 136.137 210.752 134.069 206.052 133.129L193.926 130.685C187.158 129.275 182.176 126.173 182.176 118.465C182.176 110.287 189.79 103.707 200.6 103.707C212.538 103.707 219.4 110.005 220.434 119.311H212.162C211.41 113.765 207.368 110.287 200.6 110.287C194.678 110.287 190.354 113.389 190.354 117.901C190.354 121.379 192.516 122.977 196.37 123.729L208.872 126.267C216.58 127.865 221.092 132.095 221.092 139.333C221.092 148.545 212.444 154.655 201.634 154.655C189.226 154.655 181.33 147.981 180.39 138.581Z" fill="#FDFFF1" style="fill:#FDFFF1;fill:color(display-p3 0.9922 1.0000 0.9451);fill-opacity:1;"/>
<path d="M177.79 104.74V153.62H169.33V145.724C166.792 150.33 161.904 154.654 154.384 154.654C143.762 154.654 137.652 147.04 137.652 136.418V104.74H146.112V134.726C146.112 142.152 149.496 147.604 157.11 147.604C163.502 147.604 169.33 142.434 169.33 133.692V104.74H177.79Z" fill="#FDFFF1" style="fill:#FDFFF1;fill:color(display-p3 0.9922 1.0000 0.9451);fill-opacity:1;"/>
<path d="M134.559 129.181C134.559 144.127 125.253 154.655 111.905 154.655C98.5568 154.655 89.2508 144.127 89.2508 129.181C89.2508 114.235 98.5568 103.707 111.905 103.707C125.253 103.707 134.559 114.235 134.559 129.181ZM97.7108 129.181C97.7108 140.179 103.069 147.793 111.905 147.793C120.647 147.793 126.005 140.179 126.005 129.181C126.005 118.183 120.647 110.569 111.905 110.569C103.069 110.569 97.7108 118.183 97.7108 129.181Z" fill="#FDFFF1" style="fill:#FDFFF1;fill:color(display-p3 0.9922 1.0000 0.9451);fill-opacity:1;"/>
<path d="M77.2474 85.0005H85.9894V153.62H77.2474V122.224H39.2714V153.62H30.5294V85.0005H39.2714V114.516H77.2474V85.0005Z" fill="#FDFFF1" style="fill:#FDFFF1;fill:color(display-p3 0.9922 1.0000 0.9451);fill-opacity:1;"/>
<path d="M313.998 68.6205V19.7405H322.458V27.6365C324.996 23.0305 330.354 18.7065 337.874 18.7065C348.496 18.7065 354.606 26.3205 354.606 36.9425V68.6205H346.146V38.6345C346.146 31.2085 342.762 25.7565 335.054 25.7565C328.568 25.7565 322.458 30.9265 322.458 39.6685V68.6205H313.998Z" fill="#FDFFF1" style="fill:#FDFFF1;fill:color(display-p3 0.9922 1.0000 0.9451);fill-opacity:1;"/>
<path d="M295.213 38.5405C299.067 37.9765 301.323 36.5665 301.323 33.0885C301.323 28.4825 297.469 25.2865 290.983 25.2865C284.309 25.2865 280.079 28.4825 279.233 34.3105H270.867C271.995 25.5685 279.139 18.7065 291.171 18.7065C303.297 18.7065 309.501 25.0985 309.501 35.0625V57.9045C309.501 62.0405 309.689 65.1425 310.065 68.6205H302.075C301.699 66.4585 301.511 64.1085 301.417 61.3825C298.597 66.4585 292.393 69.6545 285.625 69.6545C276.507 69.6545 268.611 64.2965 268.611 55.0845C268.611 45.3085 275.849 41.4545 285.343 40.0445L295.213 38.5405ZM276.507 54.7085C276.507 60.2545 281.019 63.1685 286.659 63.1685C294.649 63.1685 301.323 58.2805 301.323 49.5385V43.2405C300.477 43.6165 299.631 43.8985 298.597 44.0865L287.317 45.9665C281.113 46.9065 276.507 48.6925 276.507 54.7085Z" fill="#FDFFF1" style="fill:#FDFFF1;fill:color(display-p3 0.9922 1.0000 0.9451);fill-opacity:1;"/>
<path d="M224.927 44.1805C224.927 29.0465 234.609 18.7065 247.581 18.7065C258.673 18.7065 265.629 25.2865 267.321 34.3105H258.861C257.545 28.9525 253.409 25.5685 247.581 25.5685C239.121 25.5685 233.387 32.9945 233.387 44.1805C233.387 55.3665 239.121 62.7925 247.581 62.7925C253.409 62.7925 257.733 59.4085 258.955 53.5805H267.321C265.723 63.1685 258.297 69.6545 247.393 69.6545C234.515 69.6545 224.927 59.3145 224.927 44.1805Z" fill="#FDFFF1" style="fill:#FDFFF1;fill:color(display-p3 0.9922 1.0000 0.9451);fill-opacity:1;"/>
<path d="M212.836 9.68196V0.751953H221.766V9.68196H212.836ZM221.484 19.74V68.62H213.024V19.74H221.484Z" fill="#FDFFF1" style="fill:#FDFFF1;fill:color(display-p3 0.9922 1.0000 0.9451);fill-opacity:1;"/>
<path d="M209.73 19.3638V27.7298H207.944C199.578 27.7298 194.408 33.2758 194.408 42.3938V68.7138H185.76V19.8338H194.408V29.1398C196.476 23.7818 201.458 19.3638 208.32 19.3638H209.73Z" fill="#FDFFF1" style="fill:#FDFFF1;fill:color(display-p3 0.9922 1.0000 0.9451);fill-opacity:1;"/>
<path d="M181.784 53.5805C180.092 63.1685 172.29 69.6545 161.292 69.6545C147.944 69.6545 138.638 59.3145 138.638 44.2745C138.638 29.5165 148.226 18.7065 161.292 18.7065C174.922 18.7065 182.536 29.2345 182.536 42.9585C182.536 44.1805 182.442 45.0265 182.254 46.1545H146.722C147.286 57.1525 153.49 62.7925 161.292 62.7925C168.06 62.7925 172.572 59.2205 173.982 53.5805H181.784ZM161.198 25.5685C153.02 25.5685 148.226 31.5845 147.004 39.7625H174.264C174.17 32.1485 169.752 25.5685 161.198 25.5685Z" fill="#FDFFF1" style="fill:#FDFFF1;fill:color(display-p3 0.9922 1.0000 0.9451);fill-opacity:1;"/>
<path d="M66.1466 68.6205V19.7405H74.6066V27.2605C76.9566 22.8425 82.2206 18.7065 89.3646 18.7065C95.6626 18.7065 100.833 22.1845 103.183 27.5425C106.097 22.8425 111.549 18.7065 119.069 18.7065C129.503 18.7065 135.519 26.0385 135.519 36.5665V68.6205H127.059V37.9765C127.059 31.0205 123.957 25.8505 116.813 25.8505C110.891 25.8505 105.063 30.6445 105.063 39.0105V68.6205H96.6026V37.9765C96.6026 31.0205 93.5006 25.8505 86.2626 25.8505C80.4346 25.8505 74.6066 30.6445 74.6066 39.0105V68.6205H66.1466Z" fill="#FDFFF1" style="fill:#FDFFF1;fill:color(display-p3 0.9922 1.0000 0.9451);fill-opacity:1;"/>
<path d="M27.166 0H36.754L63.92 68.62H54.614L47 48.974H16.638L9.118 68.62H0L27.166 0ZM31.772 9.776L19.646 41.266H43.992L31.772 9.776Z" fill="#FDFFF1" style="fill:#FDFFF1;fill:color(display-p3 0.9922 1.0000 0.9451);fill-opacity:1;"/>
</svg>
