<svg width="53" height="30" viewBox="0 0 53 30" fill="none" xmlns="http://www.w3.org/2000/svg">
<path d="M1.00869e-07 25.3853L0 23.0776L52.0745 23.0776L52.0745 25.3853L1.00869e-07 25.3853Z" fill="#1968b4"/>
<path d="M1.00869e-07 20.7686L0 18.4609L52.0745 18.4609L52.0745 20.7686L1.00869e-07 20.7686Z" fill="#1968b4"/>
<path d="M1.00869e-07 30L0 27.6924L52.0745 27.6924L52.0745 30L1.00869e-07 30Z" fill="#1968b4"/>
<path d="M0 2.27635e-06L52.0745 0L52.0745 2.30762L22.7052 2.30762L22.7052 4.61524L52.0748 4.61524L52.0748 6.92285L22.7052 6.92286L22.7052 9.23047L52.0748 9.23047L52.0748 11.5381L22.7052 11.5381L22.7052 13.8457L52.0748 13.8457L52.0748 16.1533L7.06084e-07 16.1533L0 2.27635e-06ZM1.6427 14.2369L0.966041 14.2369L1.51307 14.6544L1.30397 15.33L1.85153 14.9125L2.39856 15.33L2.18946 14.6544L2.73702 14.2369L2.06036 14.2369L1.85126 13.5614L1.64216 14.2369L1.6427 14.2369ZM6.26408 15.3297L6.05498 14.6542L6.602 14.2367L5.92534 14.2367L5.71624 13.5612L5.50714 14.2367L4.83047 14.2367L5.3775 14.6542L5.1684 15.3297L5.71597 14.9122L6.26353 15.3297L6.26408 15.3297ZM9.96795 15.3297L9.75885 14.6542L10.3059 14.2367L9.62922 14.2367L9.42012 13.5612L9.21101 14.2367L8.53435 14.2367L9.08192 14.6542L8.87282 15.3297L9.41985 14.9122L9.96741 15.3297L9.96795 15.3297ZM13.8321 15.3297L13.623 14.6542L14.1706 14.2367L13.4939 14.2367L13.2848 13.5612L13.0757 14.2367L12.3991 14.2367L12.9461 14.6542L12.737 15.3297L13.2845 14.9122L13.8316 15.3297L13.8321 15.3297ZM17.5363 15.3297L17.3272 14.6542L17.8742 14.2367L17.1975 14.2367L16.9884 13.5612L16.7793 14.2367L16.1027 14.2367L16.6497 14.6542L16.4406 15.3297L16.9882 14.9122L17.5357 15.3297L17.5363 15.3297ZM15.1369 11.9537L14.9468 12.6292L14.3317 12.6292L14.8296 13.0467L14.6395 13.7222L15.1369 13.3047L15.6348 13.7222L15.4447 13.0467L15.9421 12.6292L15.327 12.6292L15.1369 11.9537ZM17.5363 12.1148L17.3272 11.4393L17.8742 11.0218L17.1975 11.0218L16.9884 10.3462L16.7793 11.0218L16.1027 11.0218L16.6497 11.4393L16.4406 12.1148L16.9882 11.6973L17.5357 12.1148L17.5363 12.1148ZM15.1369 8.73879L14.9468 9.41431L14.3317 9.41431L14.8296 9.83181L14.6395 10.5073L15.1369 10.0898L15.6348 10.5073L15.4447 9.83181L15.9421 9.41431L15.327 9.41431L15.1369 8.73879ZM17.5363 8.89935L17.3272 8.22382L17.8742 7.80632L17.1975 7.80632L16.9884 7.13079L16.7793 7.80632L16.1027 7.80632L16.6497 8.22382L16.4406 8.89935L16.9882 8.48184L17.5357 8.89935L17.5363 8.89935ZM15.1369 5.52334L14.9468 6.19887L14.3317 6.19887L14.8296 6.61636L14.6395 7.29189L15.1369 6.87439L15.6348 7.29189L15.4447 6.61636L15.9421 6.19887L15.327 6.19887L15.1369 5.52334ZM17.5363 5.68417L17.3272 5.00864L17.8742 4.59114L17.1975 4.59114L16.9884 3.91561L16.7793 4.59114L16.1027 4.59114L16.6497 5.00864L16.4406 5.68417L16.9882 5.26667L17.5357 5.68417L17.5363 5.68417ZM15.1369 2.30843L14.9468 2.98396L14.3317 2.98396L14.8296 3.40146L14.6395 4.07698L15.1369 3.65948L15.6348 4.07698L15.4447 3.40146L15.9421 2.98396L15.327 2.98396L15.1369 2.30843ZM8.03506 13.722L7.82596 13.0465L8.37353 12.629L7.69686 12.629L7.48776 11.9534L7.27866 12.629L6.602 12.629L7.14903 13.0465L6.93992 13.722L7.48749 13.3045L8.03452 13.722L8.03506 13.722ZM11.9003 13.722L11.6912 13.0465L12.2382 12.629L11.5616 12.629L11.3525 11.9534L11.1434 12.629L10.4667 12.629L11.0137 13.0465L10.8046 13.722L11.3522 13.3045L11.8998 13.722L11.9003 13.722ZM13.8321 12.1148L13.623 11.4393L14.1706 11.0218L13.4939 11.0218L13.2848 10.3462L13.0757 11.0218L12.3991 11.0218L12.9461 11.4393L12.737 12.1148L13.2845 11.6973L13.8316 12.1148L13.8321 12.1148ZM11.3527 8.73879L11.1436 9.41431L10.467 9.41431L11.014 9.83181L10.8049 10.5073L11.3525 10.0898L11.9 10.5073L11.6909 9.83181L12.238 9.41431L11.5613 9.41431L11.3522 8.73879L11.3527 8.73879ZM13.8321 8.89935L13.623 8.22382L14.1706 7.80632L13.4939 7.80632L13.2848 7.13079L13.0757 7.80632L12.3991 7.80632L12.9461 8.22382L12.737 8.89935L13.2845 8.48184L13.8316 8.89935L13.8321 8.89935ZM11.3527 5.52334L11.1436 6.19887L10.467 6.19887L11.014 6.61636L10.8049 7.29189L11.3525 6.87439L11.9 7.29189L11.6909 6.61636L12.238 6.19887L11.5613 6.19887L11.3522 5.52334L11.3527 5.52334ZM13.8321 5.68417L13.623 5.00864L14.1706 4.59114L13.4939 4.59114L13.2848 3.91562L13.0757 4.59114L12.3991 4.59114L12.9461 5.00864L12.737 5.68417L13.2845 5.26667L13.8316 5.68417L13.8321 5.68417ZM9.96795 5.68417L9.75885 5.00864L10.3059 4.59114L9.62922 4.59114L9.42012 3.91562L9.21101 4.59114L8.53435 4.59114L9.08192 5.00864L8.87282 5.68417L9.41984 5.26667L9.96741 5.68417L9.96795 5.68417ZM9.96795 8.89935L9.75885 8.22382L10.3059 7.80632L9.62922 7.80632L9.42012 7.13079L9.21101 7.80632L8.53435 7.80632L9.08192 8.22382L8.87282 8.89935L9.41984 8.48184L9.96741 8.89935L9.96795 8.89935ZM9.96795 12.1148L9.75885 11.4393L10.3059 11.0218L9.62922 11.0218L9.42012 10.3462L9.21101 11.0218L8.53435 11.0218L9.08192 11.4393L8.87282 12.1148L9.41985 11.6973L9.96741 12.1148L9.96795 12.1148ZM6.26408 12.1148L6.05498 11.4393L6.602 11.0218L5.92534 11.0218L5.71624 10.3462L5.50714 11.0218L4.83047 11.0218L5.3775 11.4393L5.1684 12.1148L5.71597 11.6973L6.26353 12.1148L6.26408 12.1148ZM6.9402 10.5073L7.48776 10.0898L8.03479 10.5073L7.82569 9.83181L8.37326 9.41431L7.69659 9.41431L7.48749 8.73879L7.27839 9.41431L6.60173 9.41431L7.14876 9.83181L6.93965 10.5073L6.9402 10.5073ZM6.26408 8.89935L6.05497 8.22382L6.602 7.80632L5.92534 7.80632L5.71624 7.13079L5.50714 7.80632L4.83047 7.80632L5.3775 8.22382L5.1684 8.89935L5.71597 8.48185L6.26353 8.89935L6.26408 8.89935ZM6.9402 7.29162L7.48776 6.87412L8.03479 7.29162L7.82569 6.61609L8.37326 6.1986L7.69659 6.1986L7.48749 5.52307L7.27839 6.1986L6.60173 6.1986L7.14875 6.61609L6.93965 7.29162L6.9402 7.29162ZM6.26408 5.68417L6.05497 5.00864L6.602 4.59114L5.92534 4.59114L5.71624 3.91562L5.50714 4.59114L4.83047 4.59114L5.3775 5.00864L5.1684 5.68417L5.71597 5.26667L6.26353 5.68417L6.26408 5.68417ZM6.9402 4.07671L7.48776 3.65921L8.03479 4.07671L7.82569 3.40119L8.37326 2.98369L7.69659 2.98369L7.48749 2.30816L7.27839 2.98369L6.60173 2.98369L7.14875 3.40119L6.93965 4.07671L6.9402 4.07671ZM10.467 2.98396L11.014 3.40146L10.8049 4.07698L11.3525 3.65948L11.9 4.07698L11.6909 3.40146L12.238 2.98396L11.5613 2.98396L11.3522 2.30843L11.1431 2.98396L10.4664 2.98396L10.467 2.98396ZM2.89866 12.6292L3.44623 13.0467L3.23713 13.7222L3.78416 13.3047L4.33172 13.7222L4.12262 13.0467L4.66965 12.6292L3.99299 12.6292L3.78389 11.9537L3.57478 12.6292L2.89812 12.6292L2.89866 12.6292ZM1.6427 11.0218L0.966041 11.0218L1.51307 11.4393L1.30397 12.1148L1.85153 11.6973L2.39856 12.1148L2.18946 11.4393L2.73702 11.0218L2.06036 11.0218L1.85126 10.3462L1.64216 11.0218L1.6427 11.0218ZM2.89866 9.41431L3.44623 9.83181L3.23713 10.5073L3.78416 10.0898L4.33172 10.5073L4.12262 9.83181L4.66965 9.41431L3.99299 9.41431L3.78388 8.73879L3.57478 9.41431L2.89812 9.41431L2.89866 9.41431ZM1.6427 7.80659L0.966041 7.80659L1.51307 8.22409L1.30397 8.89962L1.85153 8.48212L2.39856 8.89962L2.18946 8.22409L2.73702 7.80659L2.06036 7.80659L1.85126 7.13106L1.64216 7.80659L1.6427 7.80659ZM2.89866 6.19887L3.44623 6.61637L3.23713 7.29189L3.78416 6.87439L4.33172 7.29189L4.12262 6.61637L4.66965 6.19887L3.99299 6.19887L3.78388 5.52334L3.57478 6.19887L2.89812 6.19887L2.89866 6.19887ZM1.6427 4.59141L0.966041 4.59141L1.51307 5.00891L1.30397 5.68444L1.85153 5.26694L2.39856 5.68444L2.18946 5.00891L2.73702 4.59141L2.06036 4.59141L1.85126 3.91589L1.64216 4.59141L1.6427 4.59141ZM2.89866 2.98396L3.44623 3.40146L3.23713 4.07698L3.78416 3.65948L4.33172 4.07698L4.12262 3.40146L4.66965 2.98396L3.99299 2.98396L3.78388 2.30843L3.57478 2.98396L2.89812 2.98396L2.89866 2.98396ZM1.6427 1.37623L0.96604 1.37623L1.51307 1.79373L1.30396 2.46926L1.85153 2.05176L2.39856 2.46926L2.18946 1.79373L2.73702 1.37623L2.06036 1.37623L1.85126 0.700708L1.64216 1.37623L1.6427 1.37623ZM5.50741 1.37623L4.83074 1.37623L5.37777 1.79373L5.16867 2.46926L5.71624 2.05176L6.2638 2.46926L6.0547 1.79373L6.60173 1.37623L5.92507 1.37623L5.71597 0.700708L5.50686 1.37623L5.50741 1.37623ZM9.21129 1.37623L8.53462 1.37623L9.08219 1.79373L8.87309 2.46926L9.42012 2.05176L9.96768 2.46926L9.75858 1.79373L10.3056 1.37623L9.62894 1.37623L9.41984 0.700708L9.21074 1.37623L9.21129 1.37623ZM13.076 1.37623L12.3993 1.37623L12.9464 1.79373L12.7373 2.46926L13.2848 2.05176L13.8318 2.46926L13.6227 1.79373L14.1703 1.37623L13.4936 1.37623L13.2845 0.700708L13.0754 1.37623L13.076 1.37623ZM16.7796 1.37623L16.1029 1.37623L16.65 1.79373L16.4409 2.46926L16.9884 2.05176L17.536 2.46926L17.3269 1.79373L17.8739 1.37623L17.1973 1.37623L16.9882 0.700707L16.7791 1.37623L16.7796 1.37623ZM21.401 2.46926L21.1919 1.79373L21.7392 1.37623L21.0625 1.37623L20.8534 0.700707L20.6443 1.37623L19.9676 1.37623L20.5152 1.79373L20.3061 2.46926L20.8531 2.05176L21.4007 2.46926L21.401 2.46926ZM19.8065 2.98396L19.1299 2.98396L18.9208 2.30843L18.7117 2.98396L18.035 2.98396L18.582 3.40146L18.3729 4.07698L18.9205 3.65948L19.4675 4.07698L19.2584 3.40146L19.806 2.98396L19.8065 2.98396ZM21.7392 4.59141L21.0625 4.59141L20.8534 3.91589L20.6443 4.59141L19.9676 4.59141L20.5152 5.00891L20.3061 5.68444L20.8531 5.26694L21.4007 5.68444L21.1916 5.00891L21.7389 4.59141L21.7392 4.59141ZM19.259 6.61636L19.8065 6.19887L19.1299 6.19887L18.9208 5.52334L18.7117 6.19887L18.035 6.19887L18.582 6.61636L18.3729 7.29189L18.9205 6.87439L19.4675 7.29189L19.2584 6.61636L19.259 6.61636ZM21.401 8.89934L21.1919 8.22382L21.7392 7.80632L21.0625 7.80632L20.8534 7.13079L20.6443 7.80632L19.9676 7.80632L20.5152 8.22382L20.3061 8.89934L20.8531 8.48184L21.4007 8.89934L21.401 8.89934ZM18.9211 8.73879L18.7119 9.41431L18.0353 9.41431L18.5823 9.83181L18.3732 10.5073L18.9208 10.0898L19.4678 10.5073L19.2587 9.83181L19.8063 9.41431L19.1296 9.41431L18.9205 8.73879L18.9211 8.73879ZM21.401 12.1148L21.1919 11.4393L21.7392 11.0218L21.0625 11.0218L20.8534 10.3462L20.6443 11.0218L19.9676 11.0218L20.5152 11.4393L20.3061 12.1148L20.8531 11.6973L21.4007 12.1148L21.401 12.1148ZM19.8065 12.6292L19.1299 12.6292L18.9208 11.9537L18.7117 12.6292L18.035 12.6292L18.582 13.0467L18.3729 13.7222L18.9205 13.3047L19.4675 13.7222L19.2584 13.0467L19.806 12.6292L19.8065 12.6292ZM20.8534 13.5614L20.6443 14.2369L19.9676 14.2369L20.5152 14.6544L20.3061 15.33L20.8531 14.9125L21.4007 15.33L21.1916 14.6544L21.7389 14.2369L21.0622 14.2369L20.8531 13.5614L20.8534 13.5614Z" fill="#1968b4"/>
</svg>
