<svg width="278" height="43" viewBox="0 0 278 43" fill="none" xmlns="http://www.w3.org/2000/svg">
<path d="M51.1713 17.1674C48.0578 17.1674 45.3963 19.5198 42.082 24.0744C40.5253 26.1765 38.5668 29.2296 37.7131 30.5309C37.2109 31.1816 36.8092 31.0815 37.1105 30.3808L39.4205 24.4748L47.7063 1.80183C48.1081 0.850866 44.7937 -0.250248 44.1911 0.850869V0.950961C42.785 3.95401 40.1235 4.95502 35.4031 4.75482C30.6827 4.60467 21.1916 2.00203 14.0106 2.00203C5.02172 2.00203 0 7.50761 0 14.0142C0 17.6679 2.41042 20.0203 5.62432 19.9202C7.13084 20.0203 8.43648 19.0193 8.73779 17.5678C8.93866 16.7169 8.43649 15.8661 7.63301 15.6659C7.33171 15.5658 7.0304 15.6158 6.7291 15.7159C3.56542 16.3666 2.46064 14.1644 2.46064 12.5127C2.46064 8.45857 5.92563 5.45553 13.1569 5.45553C15.0149 5.45553 18.6306 5.90599 22.4973 6.3064C17.6262 20.9212 12.7049 34.485 11.4997 37.6882C11.2486 38.5891 10.5958 39.2898 9.74213 39.5401C7.98453 40.0906 7.43214 40.1407 6.32736 40.3909C4.6702 40.7914 4.9715 42.1427 6.1265 42.0927C8.1854 41.9926 10.8971 41.6923 13.0062 41.6923C15.6175 41.6923 20.2877 41.8925 20.9908 41.9425C22.2964 42.0426 22.4471 40.491 21.3925 40.2908C20.6393 40.1907 19.3838 39.9905 18.1786 39.7903C16.7725 39.6402 16.3206 39.0396 16.6219 37.8884C17.3249 35.9865 25.7112 11.862 27.3684 6.8069C29.9797 7.10721 32.1892 7.35746 33.6455 7.45756C36.6585 7.65776 39.5711 7.45755 42.082 5.65573L35.4533 24.3246L29.6281 40.2908C28.6238 42.8935 32.3399 43.0937 33.1936 41.4921C36.0057 35.8864 39.32 30.531 43.0863 25.4758C45.4968 21.9723 47.7565 19.8701 49.3133 19.8701C50.5185 19.8701 51.2215 20.5208 51.2215 22.0223C51.2215 23.9743 50.3176 27.0274 48.4094 32.2327C45.9487 38.9895 44.9946 40.7913 44.1911 40.8414C43.3876 40.8914 41.7807 38.8894 40.927 38.6392C40.0733 38.3889 39.1694 38.7893 38.7677 39.5901C38.3157 40.3409 38.617 42.7934 42.3331 42.9936C46.7522 43.1938 50.5687 38.6892 53.18 31.4319C54.9878 26.5269 55.4398 23.9743 55.4398 22.2225C55.49 18.769 53.8328 17.1674 51.1713 17.1674ZM126.397 40.5911C123.584 39.9405 122.48 38.8894 122.48 37.7883L122.58 35.486C122.58 33.7843 123.886 8.95908 124.187 5.25533C124.388 2.50254 121.274 2.65269 119.969 4.25431L117.358 7.55766C114.144 11.5617 101.288 28.0785 95.0611 35.8363C93.3035 37.9885 90.9935 39.5901 88.332 40.4911C87.2775 40.7413 87.3779 41.8424 88.5329 41.8424C89.4368 41.8424 92.1987 41.5421 94.2074 41.5421C96.2161 41.5421 99.9824 41.6923 100.886 41.7423C101.84 41.7924 102.192 40.7413 100.886 40.441C98.275 39.6902 96.9694 39.1397 96.9694 38.489C96.9694 37.8384 97.572 36.8874 98.9781 34.9354C100.083 33.3838 102.694 29.9804 105.607 26.1265H118.111C117.86 31.3818 117.508 36.8874 117.458 37.9885C117.458 38.6892 116.956 39.3399 116.253 39.44L113.441 40.2408C112.687 40.441 112.336 41.8925 113.541 41.8424C116.303 41.6922 118.563 41.442 119.768 41.442C121.576 41.442 124.639 41.8424 126.045 41.8925C127.652 41.9926 127.451 40.8414 126.397 40.5911ZM118.613 20.5208C118.613 21.5218 118.513 22.5729 118.462 23.7241H107.766C112.738 17.1674 118.01 10.2604 118.462 9.60975C118.914 8.95909 119.316 9.30944 119.266 9.75989C119.065 12.2624 118.764 16.6669 118.613 20.5208ZM71.5595 17.5178C66.7888 17.3176 61.4658 22.8231 58.955 31.1316C56.4943 39.1397 59.2061 42.4931 62.2191 42.4931C64.4286 42.4931 68.0945 39.6402 70.1032 36.3869C70.8062 35.2357 70.2538 34.0345 69.1993 35.2357C67.8434 36.6872 65.9854 38.2888 64.0269 37.9384C62.7213 37.7382 61.516 35.486 63.4243 29.9303C68.0443 29.7301 73.4175 27.0774 74.8236 22.7731C75.9786 18.9692 73.5179 17.5678 71.5595 17.5178ZM72.0616 21.5719C70.9067 24.9753 66.8893 27.7782 63.9767 28.4789C66.7888 21.1214 69.4504 19.1194 71.1577 19.1694C72.0616 19.2195 72.4634 20.2705 72.0616 21.5719ZM142.115 20.2705H146.534C147.538 20.2705 147.99 20.0203 148.241 19.2695C148.643 18.3186 148.392 17.9182 147.438 17.9182H143.019L145.178 12.2624C145.429 11.5117 145.178 11.1113 144.726 11.1113H142.416C141.813 11.1113 141.612 11.2614 141.311 12.0622L139.001 17.9682H135.486C134.984 17.9682 134.582 17.8681 134.281 19.3196C134.18 20.0203 134.281 20.3206 134.984 20.3206H138.097L132.774 34.1346C131.921 36.1366 131.217 38.1387 130.565 40.1907C130.263 42.0927 131.418 42.8935 132.824 42.5932C135.637 42.0927 139.604 39.1897 143.219 34.6852C144.224 33.3838 143.37 32.583 142.416 33.584C140.909 35.0355 139.353 36.4369 137.645 37.6882C136.239 38.6392 135.536 37.9384 135.988 36.5871L142.115 20.2705ZM191.528 18.9692C191.83 18.2185 190.775 17.9682 188.264 17.5178C187.511 17.3676 187.059 18.1684 185.753 20.9212C184.649 19.5698 182.941 18.8691 181.184 19.0693C177.166 19.1694 172.245 22.7731 168.177 28.2787C164.963 32.6831 163.959 35.7863 164.562 39.0396C164.913 40.9415 166.621 42.3429 168.579 42.2929C171.592 42.393 174.605 39.5401 177.668 36.4369L179.577 34.535C180.129 33.9844 180.631 34.3348 180.28 34.9855C179.275 36.6872 178.472 38.489 177.819 40.3909C177.417 42.2929 178.472 42.7934 179.928 42.5932C182.791 42.1928 187.21 39.5901 190.624 34.8854C191.579 33.534 190.624 32.7332 189.72 33.7842C188.214 35.3358 186.607 36.7873 184.849 38.0386C183.393 39.0396 182.69 38.7393 183.142 37.5881C183.443 36.8874 184.247 34.8854 191.528 18.9692ZM178.874 33.2337C175.409 36.3869 172.647 38.6892 170.688 38.6892C169.383 38.6892 168.78 38.1387 168.679 37.2378C168.378 34.8353 170.538 31.1816 172.345 28.7291C175.459 24.625 179.326 21.2215 181.786 21.2215C183.494 21.2215 184.397 21.9222 184.548 22.9733C184.849 24.8752 181.686 30.631 178.924 33.1836L178.874 33.2337ZM255.003 16.767C252.291 16.767 248.726 18.6689 245.311 22.4227C244.206 23.724 245.06 24.5749 246.064 23.624C247.219 22.5729 248.475 21.6219 249.78 20.7711C250.935 20.0703 251.688 20.6209 251.387 21.6219C251.136 22.4728 250.282 24.4748 249.68 25.8262L245.964 34.3348C244.909 36.7372 243.955 39.1397 243.704 39.7903C243.202 41.4921 244.106 42.393 245.462 42.393C248.073 42.393 251.638 40.2408 255.103 36.4369C256.208 35.1356 255.354 34.3348 254.35 35.2357C253.095 36.3869 251.739 37.3879 250.282 38.3389C249.127 39.0396 248.324 38.489 248.675 37.4379C248.927 36.6872 249.78 34.9354 250.333 33.6841L254.099 25.1755C255.204 22.673 256.459 20.0203 256.71 19.2695C257.112 17.6679 256.308 16.767 255.003 16.767ZM258.267 3.55361C256.61 3.4535 255.153 4.65472 255.003 6.35645C254.752 7.80792 255.706 9.25939 257.212 9.50964C257.263 9.50964 257.363 9.50964 257.413 9.55969C259.02 9.60974 260.426 8.40853 260.627 6.8069C260.928 5.35543 259.974 3.90396 258.518 3.60366C258.468 3.55361 258.367 3.55361 258.267 3.55361ZM273.483 17.5678C268.662 17.3676 263.49 22.9232 260.979 31.1316C258.468 39.3399 261.18 42.4931 264.393 42.4931C266.603 42.4931 270.269 39.8904 272.428 36.3869C273.131 35.2357 272.579 34.0345 271.474 35.2357C270.118 36.6872 268.361 38.0886 266.553 37.9885C264.745 37.8884 263.49 35.3859 265.548 29.4298C268.612 20.8211 270.721 19.8201 271.675 19.77C272.629 19.72 274.537 22.1725 275.692 22.4728C276.546 22.723 277.45 22.3226 277.801 21.5719C278.354 20.5208 278.002 17.8181 273.483 17.5678ZM242.348 17.9682H237.929L240.038 12.3125C240.339 11.5617 240.038 11.1613 239.586 11.1613H237.276C236.674 11.1613 236.473 11.3115 236.171 12.1123L233.912 18.0183H230.396C229.894 18.0183 229.543 17.9182 229.191 19.3696C229.091 20.0704 229.241 20.3707 229.894 20.3707H233.008L227.685 34.1846C226.831 36.1366 226.128 38.1887 225.475 40.2408C225.124 42.1427 226.279 42.9435 227.735 42.6432C230.547 42.1427 234.514 39.2398 238.13 34.7352C239.134 33.4339 238.281 32.6331 237.276 33.6341C235.77 35.0856 234.163 36.487 232.506 37.7383C231.099 38.6892 230.346 37.9885 230.848 36.6371L236.975 20.3206H241.394C242.398 20.3206 242.85 20.0703 243.101 19.3196C243.553 18.4187 243.302 17.9682 242.348 17.9682ZM159.691 33.3838C158.134 34.9354 156.477 36.3869 154.769 37.6882C153.363 38.6392 152.66 37.9384 153.112 36.5871L166.47 1.30132C166.671 0.750764 166.57 0 165.817 0C163.206 0.150152 160.595 0.450451 158.033 0.900907C157.581 1.00101 157.381 1.65168 157.883 1.80183L160.846 2.90294C161.448 3.10314 161.498 3.40346 161.097 4.35442L149.597 34.0845C148.743 36.0365 148.04 38.0886 147.387 40.1407C147.086 42.0426 148.191 42.8434 149.647 42.5431C152.61 42.0426 156.828 39.1397 160.494 34.3849C161.498 33.1336 160.695 32.3328 159.691 33.3838ZM216.085 33.484L219.298 27.0274C221.056 23.4738 221.408 21.8722 221.408 20.6209C221.408 18.2685 220.202 17.0673 217.742 17.0673C214.277 17.0673 211.565 19.8201 207.347 25.676C206.192 27.2776 205.438 28.4789 203.882 30.4308C203.38 31.0315 203.028 30.9814 203.279 30.2807L205.388 24.9753C206.242 23.1235 206.845 21.1715 207.146 19.1694C207.146 17.768 206.543 17.1174 205.037 17.1174C203.179 17.1174 200.818 18.1184 196.701 23.2736C195.244 25.1755 196.701 25.3757 197.203 24.8252C198.006 23.9743 199.814 22.1224 200.969 21.1214C202.124 20.1204 203.229 20.4207 202.777 21.672C202.476 22.673 202.124 23.6239 201.722 24.5749L195.244 40.441C194.34 42.6432 198.508 43.1437 199.262 41.4921C201.522 36.3368 206.443 29.8302 208.451 26.9774C211.414 22.7731 213.975 19.8701 215.833 19.8701C216.838 19.8701 217.239 20.4207 217.239 21.4718C217.139 22.3727 216.888 23.2736 216.486 24.0744L211.866 33.8343C210.561 36.4369 209.355 39.1897 209.104 39.8904C208.552 41.5922 209.506 42.4931 210.962 42.4931C213.574 42.4931 217.139 40.3409 220.604 36.537C221.709 35.2357 220.855 34.4349 219.851 35.3358C218.595 36.487 217.239 37.488 215.783 38.439C214.578 39.1897 213.775 38.5891 214.126 37.488C214.528 36.6872 215.482 34.6852 216.085 33.484Z" fill="#302D2D"/>
</svg>
