<svg width="101" height="51" viewBox="0 0 101 51" fill="none" xmlns="http://www.w3.org/2000/svg">
<g clip-path="url(#clip0_560_1153)">
<path d="M42.8986 1.32191H39.9305V8.99749H38.4571V1.32191H35.4891V0H42.9199V1.32191H42.8986ZM43.7954 8.99749V0H45.226V3.43269C45.5677 2.92099 46.2083 2.45192 47.1265 2.45192C48.4717 2.45192 49.3258 3.43269 49.3258 4.83988V9.01881H47.8952V5.11706C47.8952 4.24289 47.4895 3.6459 46.614 3.6459C45.7385 3.6459 45.226 4.17893 45.226 5.20234V9.01881H43.7954V8.99749ZM56.2015 6.95067C55.988 8.25125 54.9417 9.14674 53.4256 9.14674C51.9096 9.14674 50.3721 7.78219 50.3721 5.79933C50.3721 3.81647 51.6747 2.4306 53.4256 2.4306C55.1766 2.4306 56.2869 3.85911 56.2869 5.62876C56.2869 5.86329 56.2442 6.14047 56.2442 6.14047H51.7174C51.8241 7.41973 52.5501 7.9954 53.447 7.9954C54.3438 7.9954 54.7709 7.5903 54.9203 6.95067H56.2015ZM53.4043 3.58194C52.4434 3.58194 51.9309 4.24289 51.7601 5.11706H54.899C54.899 4.30686 54.3652 3.58194 53.4043 3.58194ZM38.8415 13.2191H40.4857L43.9876 22.2166H42.4074L41.5106 19.8712H37.7098L36.8343 22.2166H35.2969L38.7988 13.2191H38.8415ZM39.6315 14.8608L38.2436 18.592H41.0408L39.6315 14.8608ZM44.863 22.2166V15.7989H46.2937V16.6304C46.5926 16.1401 47.2759 15.6497 48.1514 15.6497C49.0269 15.6497 49.5394 16.0121 49.9024 16.6304C50.3081 16.0974 50.9914 15.6497 51.9096 15.6497C53.2762 15.6497 54.1303 16.6091 54.1303 18.0376V22.2166H52.6996V18.2722C52.6996 17.462 52.3366 16.8436 51.5252 16.8436C50.7138 16.8436 50.2227 17.3767 50.2227 18.3574V22.2166H48.792V18.2722C48.792 17.462 48.429 16.8436 47.6176 16.8436C46.8062 16.8436 46.3151 17.3767 46.3151 18.3574V22.2166H44.8844H44.863ZM61.0129 20.1697C60.7994 21.4703 59.7461 22.3658 58.2301 22.3658C56.714 22.3658 55.1766 21.0013 55.1766 19.0184C55.1766 17.0355 56.4791 15.6497 58.2301 15.6497C59.981 15.6497 61.0914 17.0782 61.0914 18.8478C61.0914 18.9758 61.0914 19.1676 61.0487 19.3595H56.5218C56.6286 20.6388 57.3546 21.2145 58.2514 21.2145C59.1482 21.2145 59.5753 20.8094 59.7248 20.1697H61.0129ZM58.2087 16.801C57.2478 16.801 56.7353 17.462 56.5645 18.3361H59.7034C59.7034 17.5259 59.1696 16.801 58.2087 16.801ZM65.8317 15.7563V17.1635H65.5115C64.3584 17.1635 63.5897 17.931 63.5897 19.0184V22.2166H62.1377V15.7989H63.5897V17.0355C63.9313 16.2253 64.6787 15.7563 65.5755 15.7563H65.8317ZM66.6859 14.6902V13.2191H68.1592V14.6902H66.6859ZM68.1379 15.7989V22.2166H66.7072V15.7989H68.1379ZM69.2269 19.0184C69.2269 17.0142 70.5508 15.671 72.259 15.671C73.9673 15.671 74.736 16.5878 74.9068 17.7605H73.4975C73.348 17.1635 72.8996 16.801 72.259 16.801C71.2768 16.801 70.6575 17.6752 70.6575 19.0184C70.6575 20.3616 71.2768 21.2358 72.259 21.2358C73.2413 21.2358 73.3907 20.8733 73.5402 20.1911H74.9495C74.7573 21.4703 73.7537 22.3658 72.2377 22.3658C70.7216 22.3658 69.2269 21.0013 69.2269 19.0184ZM79.1134 18.2295C79.5404 18.1656 79.7539 17.9737 79.7539 17.6112C79.7539 17.2487 79.3055 16.7797 78.5795 16.7797C77.8535 16.7797 77.3411 17.1848 77.277 17.7818H75.8677C75.9958 16.6091 76.9353 15.6923 78.6009 15.6923C80.2664 15.6923 81.1419 16.5878 81.1419 18.0163V20.9373C81.1419 21.3637 81.1632 21.7901 81.206 22.2379H79.8821C79.8394 21.982 79.818 21.7048 79.7967 21.4064C79.4337 21.982 78.6649 22.3658 77.8322 22.3658C76.615 22.3658 75.5901 21.6622 75.5901 20.4469C75.5901 19.2316 76.5723 18.6346 77.8322 18.4427L79.1134 18.2295ZM76.914 20.3616C76.914 20.9799 77.4051 21.2784 78.0457 21.2784C78.9639 21.2784 79.7539 20.7454 79.7539 19.6793V19.0824L78.1525 19.3809C77.4692 19.5088 76.914 19.7007 76.914 20.3616ZM82.5085 22.2166V15.7989H83.9391V16.6304C84.2808 16.1187 84.9214 15.6497 85.8396 15.6497C87.1848 15.6497 88.0389 16.6304 88.0389 18.0376V22.2166H86.6083V18.3148C86.6083 17.4406 86.2026 16.8436 85.3271 16.8436C84.4516 16.8436 83.9391 17.3767 83.9391 18.4001V22.2166H82.5085ZM41.895 26.4381H43.3683V35.4356H41.895V31.4912H37.4108V35.4356H35.9375V26.4381H37.4108V30.1693H41.895V26.4381ZM50.607 32.2375C50.607 34.199 49.3472 35.5849 47.5535 35.5849C45.7599 35.5849 44.5 34.199 44.5 32.2375C44.5 30.2759 45.7812 28.8901 47.5535 28.8901C49.3258 28.8901 50.607 30.2759 50.607 32.2375ZM45.9093 32.2375C45.9093 33.538 46.5072 34.4548 47.5322 34.4548C48.5571 34.4548 49.155 33.5594 49.155 32.2375C49.155 30.9156 48.5571 30.0201 47.5322 30.0201C46.5072 30.0201 45.9093 30.9156 45.9093 32.2375ZM57.0983 29.018V35.4356H55.6677V34.6041C55.326 35.1158 54.7068 35.5849 53.81 35.5849C52.4861 35.5849 51.632 34.6041 51.632 33.1969V29.018H53.0626V32.9197C53.0626 33.7939 53.447 34.3909 54.3011 34.3909C55.1552 34.3909 55.6677 33.8579 55.6677 32.8344V29.018H57.0983ZM58.0592 33.4101H59.4899C59.554 34.0497 60.1091 34.4975 60.9419 34.4975C61.7747 34.4975 62.1804 34.199 62.1804 33.666C62.1804 33.1329 61.9882 33.069 61.4544 32.9411L59.8956 32.5999C58.9988 32.408 58.2941 31.9816 58.2941 30.9156C58.2941 29.8495 59.2977 28.8901 60.8138 28.8901C62.3298 28.8901 63.3975 29.7429 63.5043 30.9795H62.1163C62.0523 30.4038 61.5825 29.9774 60.8138 29.9774C60.0451 29.9774 59.5753 30.3399 59.5753 30.8089C59.5753 31.278 59.8956 31.3633 60.3227 31.4486L61.9455 31.7897C62.9918 32.0029 63.5683 32.5999 63.5683 33.538C63.5683 34.7533 62.3939 35.6062 60.9205 35.6062C59.4472 35.6062 58.1446 34.6467 58.0592 33.4314V33.4101ZM64.5933 27.9093V26.4381H66.0666V27.9093H64.5933ZM66.0453 29.018V35.4356H64.6146V29.018H66.0453ZM67.4759 35.4356V29.018H68.9066V29.8495C69.2482 29.3378 69.8888 28.8687 70.807 28.8687C72.1523 28.8687 73.0064 29.8495 73.0064 31.2567V35.4356H71.5757V31.5339C71.5757 30.6597 71.17 30.0627 70.2945 30.0627C69.4191 30.0627 68.9066 30.5957 68.9066 31.6191V35.4356H67.4759ZM80.2237 34.86C80.2237 36.9921 78.7717 37.9302 77.1062 37.9302C75.4406 37.9302 74.3303 37.12 74.1808 35.7554H75.5901C75.7182 36.4377 76.3375 36.8215 77.1062 36.8215C77.8749 36.8215 78.7931 36.2032 78.7931 34.9879V34.3056C78.4514 34.9026 77.7468 35.3503 76.8286 35.3503C75.1417 35.3503 74.01 33.9005 74.01 32.1095C74.01 30.3186 75.1417 28.8687 76.8286 28.8687C78.5155 28.8687 78.4514 29.3591 78.7931 29.9135V29.018H80.2237V34.86ZM78.8571 32.1309C78.8571 30.8729 78.2379 30.0414 77.1702 30.0414C76.1026 30.0414 75.462 30.8729 75.462 32.1309C75.462 33.3888 76.0599 34.2203 77.1702 34.2203C78.2806 34.2203 78.8571 33.3675 78.8571 32.1309ZM35.5318 44.1559C35.5318 41.3842 37.3254 39.5079 39.6956 39.5079C42.0658 39.5079 43.1121 40.6593 43.3897 42.4716H41.8309C41.5747 41.4908 40.9127 40.8725 39.6743 40.8725C38.4358 40.8725 37.0478 42.2584 37.0478 44.1559C37.0478 46.0535 38.0301 47.4394 39.6743 47.4394C41.3184 47.4394 41.5533 46.8211 41.8309 45.8403H43.3897C43.1121 47.6313 41.7455 48.8039 39.6956 48.8039C37.6457 48.8039 35.5318 46.9277 35.5318 44.1559ZM50.1373 45.4565C50.1373 47.4181 48.8774 48.8039 47.0838 48.8039C45.2901 48.8039 44.0303 47.4181 44.0303 45.4565C44.0303 43.495 45.3115 42.1091 47.0838 42.1091C48.8561 42.1091 50.1373 43.495 50.1373 45.4565ZM45.4396 45.4565C45.4396 46.7571 46.0375 47.6739 47.0624 47.6739C48.0874 47.6739 48.6852 46.7784 48.6852 45.4565C48.6852 44.1346 48.0874 43.2391 47.0624 43.2391C46.0375 43.2391 45.4396 44.1346 45.4396 45.4565ZM54.899 42.1944V43.6016H54.5787C53.4256 43.6016 52.6569 44.3691 52.6569 45.4565V48.6547H51.2049V42.237H52.6569V43.4737C52.9986 42.6635 53.7459 42.1944 54.6427 42.1944H54.899ZM57.2051 47.7592V51H55.7745V42.237H57.2051V43.1325C57.5681 42.5569 58.2941 42.0878 59.2123 42.0878C60.8992 42.0878 62.0096 43.6016 62.0096 45.4352C62.0096 47.2688 60.9205 48.7826 59.2123 48.7826C57.5041 48.7826 57.5681 48.3135 57.2051 47.7379V47.7592ZM57.1411 45.4565C57.1411 46.7784 57.7603 47.6739 58.8493 47.6739C59.9383 47.6739 60.5575 46.7784 60.5575 45.4565C60.5575 44.1346 59.9383 43.2391 58.8493 43.2391C57.7603 43.2391 57.1411 44.1346 57.1411 45.4565ZM68.9066 45.4565C68.9066 47.4181 67.6468 48.8039 65.8531 48.8039C64.0594 48.8039 62.7996 47.4181 62.7996 45.4565C62.7996 43.495 64.0808 42.1091 65.8531 42.1091C67.6254 42.1091 68.9066 43.495 68.9066 45.4565ZM64.2303 45.4565C64.2303 46.7571 64.8282 47.6739 65.8531 47.6739C66.8781 47.6739 67.4759 46.7784 67.4759 45.4565C67.4759 44.1346 66.8781 43.2391 65.8531 43.2391C64.8282 43.2391 64.2303 44.1346 64.2303 45.4565ZM73.6683 42.1944V43.6016H73.348C72.195 43.6016 71.4263 44.3691 71.4263 45.4565V48.6547H69.9742V42.237H71.4263V43.4737C71.7679 42.6635 72.5153 42.1944 73.4121 42.1944H73.6683ZM77.4905 44.6676C77.9176 44.6037 78.1311 44.4118 78.1311 44.0493C78.1311 43.6869 77.6827 43.2178 76.9567 43.2178C76.2307 43.2178 75.7182 43.6229 75.6542 44.2199H74.2449C74.373 43.0472 75.3125 42.1304 76.9781 42.1304C78.6436 42.1304 79.5191 43.0259 79.5191 44.4544V47.3754C79.5191 47.8018 79.5404 48.2283 79.5831 48.676H78.2592C78.2165 48.4202 78.1952 48.143 78.1738 47.8445C77.8108 48.4202 77.0421 48.8039 76.2093 48.8039C74.9922 48.8039 73.9673 48.1003 73.9673 46.885C73.9673 45.6697 74.9495 45.0727 76.2093 44.8809L77.4905 44.6676ZM75.2912 46.7997C75.2912 47.4181 75.7823 47.7166 76.4229 47.7166C77.3411 47.7166 78.1311 47.1835 78.1311 46.1175V45.5205L76.5296 45.819C75.8463 45.9469 75.2912 46.1388 75.2912 46.7997ZM81.0778 46.9916V43.4097H80.1383V42.2584H81.0778V40.638H82.4658V42.2584H83.9178V43.4097H82.4658V46.7997C82.4658 47.3115 82.6793 47.482 83.1491 47.482H83.9178V48.676H82.7861C81.7398 48.676 81.0778 48.1643 81.0778 46.9916ZM84.9427 41.1283V39.6572H86.4161V41.1283H84.9427ZM86.3948 42.237V48.6547H84.9641V42.237H86.3948ZM93.6121 45.4565C93.6121 47.4181 92.3523 48.8039 90.5586 48.8039C88.7649 48.8039 87.5051 47.4181 87.5051 45.4565C87.5051 43.495 88.7863 42.1091 90.5586 42.1091C92.3309 42.1091 93.6121 43.495 93.6121 45.4565ZM88.9144 45.4565C88.9144 46.7571 89.5123 47.6739 90.5372 47.6739C91.5622 47.6739 92.1601 46.7784 92.1601 45.4565C92.1601 44.1346 91.5622 43.2391 90.5372 43.2391C89.5123 43.2391 88.9144 44.1346 88.9144 45.4565ZM94.6797 48.6547V42.237H96.1104V43.0686C96.452 42.5569 97.0926 42.0878 98.0108 42.0878C99.3561 42.0878 100.21 43.0686 100.21 44.4758V48.6547H98.7795V44.7529C98.7795 43.8788 98.3738 43.2818 97.4983 43.2818C96.6229 43.2818 96.1104 43.8148 96.1104 44.8382V48.6547H94.6797Z" fill="#302D2D"/>
<path d="M22.6328 51V0H24.8962V51H22.6328Z" fill="#953012"/>
<path d="M18.0859 51V0H20.3494V51H18.0859Z" fill="#953012"/>
<path d="M13.5586 51V22.2379H15.822V51H13.5586Z" fill="#953012"/>
<path d="M9.03125 51V22.2379H11.2947V51H9.03125Z" fill="#953012"/>
<path d="M4.48438 51V22.2379H6.7478V51H4.48438Z" fill="#953012"/>
<path d="M-0.0429688 51V22.2379H2.22046V51H-0.0429688Z" fill="#953012"/>
<path d="M27.1602 51V0H29.4236V51H27.1602Z" fill="#953012"/>
<path d="M20.3711 51V0H22.6345V51H20.3711Z" fill="#FDFFF1"/>
<path d="M15.8242 51V0H18.0876V51H15.8242Z" fill="#FDFFF1"/>
<path d="M24.8984 51V0H27.1619V51H24.8984Z" fill="#FDFFF1"/>
<path d="M2.21875 51V22.2379H4.48218V51H2.21875Z" fill="#FDFFF1"/>
<path d="M11.2969 51V22.2379H13.5603V51H11.2969Z" fill="#FDFFF1"/>
<path d="M6.75 51V22.2379H9.01343V51H6.75Z" fill="#FDFFF1"/>
<path d="M0 0V22.2379H15.8226V0" fill="#1968B4"/>
<path d="M0.640625 1.81229L1.30257 1.59908V0.938126L1.70828 1.47115L2.37022 1.25794L1.96452 1.79097L2.37022 2.324L1.70828 2.11078L1.30257 2.64381V1.98286L0.640625 1.76965V1.81229Z" fill="#FDFFF1"/>
<path d="M3.80078 1.81229L4.46273 1.59908V0.938126L4.86843 1.47115L5.53038 1.25794L5.12467 1.79097L5.53038 2.324L4.86843 2.11078L4.46273 2.64381V1.98286L3.80078 1.76965V1.81229Z" fill="#FDFFF1"/>
<path d="M6.96094 1.81229L7.62288 1.59908V0.938126L8.02859 1.47115L8.69054 1.25794L8.28483 1.79097L8.69054 2.324L8.02859 2.11078L7.62288 2.64381V1.98286L6.96094 1.76965V1.81229Z" fill="#FDFFF1"/>
<path d="M10.1211 1.81229L10.783 1.59908V0.938126L11.1887 1.47115L11.8507 1.25794L11.445 1.79097L11.8507 2.324L11.1887 2.11078L10.783 2.64381V1.98286L10.1211 1.76965V1.81229Z" fill="#FDFFF1"/>
<path d="M13.9432 2.0255L13.2812 1.81229L13.9432 1.59908V0.938126L14.3489 1.47115L15.0108 1.25794L14.6051 1.79097L15.0108 2.324L14.3489 2.11078L13.9432 2.64381V1.98286V2.0255Z" fill="#FDFFF1"/>
<path d="M2.21875 3.70986L2.8807 3.49665V2.8357L3.2864 3.36873L3.94835 3.15552L3.54264 3.68854L3.94835 4.22157L3.2864 4.00836L2.8807 4.54139V3.88043L2.21875 3.66722V3.70986Z" fill="#FDFFF1"/>
<path d="M5.38281 3.70986L6.04476 3.49665V2.8357L6.45047 3.36873L7.11241 3.15552L6.7067 3.68854L7.11241 4.22157L6.45047 4.00836L6.04476 4.54139V3.88043L5.38281 3.66722V3.70986Z" fill="#FDFFF1"/>
<path d="M8.54297 3.70986L9.20491 3.49665V2.8357L9.61062 3.36873L10.2726 3.15552L9.86686 3.68854L10.2726 4.22157L9.61062 4.00836L9.20491 4.54139V3.88043L8.54297 3.66722V3.70986Z" fill="#FDFFF1"/>
<path d="M12.3651 3.90176L11.7031 3.68854L12.3651 3.47533V2.81438L12.7708 3.34741L13.4327 3.1342L13.027 3.66722L13.4327 4.20025L12.7708 3.98704L12.3651 4.52007V3.85911V3.90176Z" fill="#FDFFF1"/>
<path d="M0.640625 5.60744L1.30257 5.39423V4.73328L1.70828 5.2663L2.37022 5.05309L1.96452 5.58612L2.37022 6.11915L1.70828 5.90594L1.30257 6.43896V5.77801L0.640625 5.5648V5.60744Z" fill="#FDFFF1"/>
<path d="M3.80078 5.60744L4.46273 5.39423V4.73328L4.86843 5.2663L5.53038 5.05309L5.12467 5.58612L5.53038 6.11915L4.86843 5.90594L4.46273 6.43896V5.77801L3.80078 5.5648V5.60744Z" fill="#FDFFF1"/>
<path d="M6.96094 5.60744L7.62288 5.39423V4.73328L8.02859 5.2663L8.69054 5.05309L8.28483 5.58612L8.69054 6.11915L8.02859 5.90594L7.62288 6.43896V5.77801L6.96094 5.5648V5.60744Z" fill="#FDFFF1"/>
<path d="M10.1211 5.60744L10.783 5.39423V4.73328L11.1887 5.2663L11.8507 5.05309L11.445 5.58612L11.8507 6.11915L11.1887 5.90594L10.783 6.43896V5.77801L10.1211 5.5648V5.60744Z" fill="#FDFFF1"/>
<path d="M13.9432 5.79933L13.2812 5.58612L13.9432 5.37291V4.71196L14.3489 5.24498L15.0108 5.03177L14.6051 5.5648L15.0108 6.09783L14.3489 5.88462L13.9432 6.41764V5.75669V5.79933Z" fill="#FDFFF1"/>
<path d="M2.21875 7.33445L2.8807 7.12124V6.46029L3.2864 6.99331L3.94835 6.7801L3.54264 7.31313L3.94835 7.84615L3.2864 7.63294L2.8807 8.16597V7.50502L2.21875 7.29181V7.33445Z" fill="#FDFFF1"/>
<path d="M5.38281 7.33445L6.04476 7.12124V6.46029L6.45047 6.99331L7.11241 6.7801L6.7067 7.31313L7.11241 7.84615L6.45047 7.63294L6.04476 8.16597V7.50502L5.38281 7.29181V7.33445Z" fill="#FDFFF1"/>
<path d="M8.54297 7.33445L9.20491 7.12124V6.46029L9.61062 6.99331L10.2726 6.7801L9.86686 7.31313L10.2726 7.84615L9.61062 7.63294L9.20491 8.16597V7.50502L8.54297 7.29181V7.33445Z" fill="#FDFFF1"/>
<path d="M12.3651 7.54766L11.7031 7.33445L12.3651 7.12124V6.46029L12.7708 6.99331L13.4327 6.7801L13.027 7.31313L13.4327 7.84615L12.7708 7.63294L12.3651 8.16597V7.50502V7.54766Z" fill="#FDFFF1"/>
<path d="M0.640625 9.23202L1.30257 9.01881V8.35786L1.70828 8.89089L2.37022 8.67768L1.96452 9.2107L2.37022 9.74373L1.70828 9.53052L1.30257 10.0635V9.40259L0.640625 9.18938V9.23202Z" fill="#FDFFF1"/>
<path d="M3.80078 9.23202L4.46273 9.01881V8.35786L4.86843 8.89089L5.53038 8.67768L5.12467 9.2107L5.53038 9.74373L4.86843 9.53052L4.46273 10.0635V9.40259L3.80078 9.18938V9.23202Z" fill="#FDFFF1"/>
<path d="M6.96094 9.23202L7.62288 9.01881V8.35786L8.02859 8.89089L8.69054 8.67768L8.28483 9.2107L8.69054 9.74373L8.02859 9.53052L7.62288 10.0635V9.40259L6.96094 9.18938V9.23202Z" fill="#FDFFF1"/>
<path d="M10.1211 9.23202L10.783 9.01881V8.35786L11.1887 8.89089L11.8507 8.67768L11.445 9.2107L11.8507 9.74373L11.1887 9.53052L10.783 10.0635V9.40259L10.1211 9.18938V9.23202Z" fill="#FDFFF1"/>
<path d="M13.9432 9.42391L13.2812 9.2107L13.9432 8.99749V8.33654L14.3489 8.86956L15.0108 8.65635L14.6051 9.18938L15.0108 9.72241L14.3489 9.5092L13.9432 10.0422V9.38127V9.42391Z" fill="#FDFFF1"/>
<path d="M2.21875 11.1083L2.8807 10.8951V10.2341L3.2864 10.7671L3.94835 10.5539L3.54264 11.087L3.94835 11.62L3.2864 11.4068L2.8807 11.9398V11.2788L2.21875 11.0656V11.1083Z" fill="#FDFFF1"/>
<path d="M5.38281 11.1083L6.04476 10.8951V10.2341L6.45047 10.7671L7.11241 10.5539L6.7067 11.087L7.11241 11.62L6.45047 11.4068L6.04476 11.9398V11.2788L5.38281 11.0656V11.1083Z" fill="#FDFFF1"/>
<path d="M8.54297 11.1083L9.20491 10.8951V10.2341L9.61062 10.7671L10.2726 10.5539L9.86686 11.087L10.2726 11.62L9.61062 11.4068L9.20491 11.9398V11.2788L8.54297 11.0656V11.1083Z" fill="#FDFFF1"/>
<path d="M12.3651 11.3215L11.7031 11.1083L12.3651 10.8951V10.2341L12.7708 10.7671L13.4327 10.5539L13.027 11.087L13.4327 11.62L12.7708 11.4068L12.3651 11.9398V11.2788V11.3215Z" fill="#FDFFF1"/>
<path d="M0.640625 13.0059L1.30257 12.7926V12.1317L1.70828 12.6647L2.37022 12.4515L1.96452 12.9845L2.37022 13.5176L1.70828 13.3044L1.30257 13.8374V13.1764L0.640625 12.9632V13.0059Z" fill="#FDFFF1"/>
<path d="M3.80078 13.0059L4.46273 12.7926V12.1317L4.86843 12.6647L5.53038 12.4515L5.12467 12.9845L5.53038 13.5176L4.86843 13.3044L4.46273 13.8374V13.1764L3.80078 12.9632V13.0059Z" fill="#FDFFF1"/>
<path d="M6.96094 13.0059L7.62288 12.7926V12.1317L8.02859 12.6647L8.69054 12.4515L8.28483 12.9845L8.69054 13.5176L8.02859 13.3044L7.62288 13.8374V13.1764L6.96094 12.9632V13.0059Z" fill="#FDFFF1"/>
<path d="M10.1211 13.0059L10.783 12.7926V12.1317L11.1887 12.6647L11.8507 12.4515L11.445 12.9845L11.8507 13.5176L11.1887 13.3044L10.783 13.8374V13.1764L10.1211 12.9632V13.0059Z" fill="#FDFFF1"/>
<path d="M13.9432 13.2191L13.2812 13.0059L13.9432 12.7926V12.1317L14.3489 12.6647L15.0108 12.4515L14.6051 12.9845L15.0108 13.5176L14.3489 13.3044L13.9432 13.8374V13.1764V13.2191Z" fill="#FDFFF1"/>
<path d="M2.21875 14.8181L2.8807 14.6263V14.0293L3.2864 14.5196L3.94835 14.3278L3.54264 14.8181L3.94835 15.3085L3.2864 15.1166L2.8807 15.607V15.01L2.21875 14.8181Z" fill="#FDFFF1"/>
<path d="M5.38281 14.8181L6.04476 14.6263V14.0293L6.45047 14.5196L7.11241 14.3278L6.7067 14.8181L7.11241 15.3085L6.45047 15.1166L6.04476 15.607V15.01L5.38281 14.8181Z" fill="#FDFFF1"/>
<path d="M8.54297 14.8181L9.20491 14.6263V14.0293L9.61062 14.5196L10.2726 14.3278L9.86686 14.8181L10.2726 15.3085L9.61062 15.1166L9.20491 15.607V15.01L8.54297 14.8181Z" fill="#FDFFF1"/>
<path d="M12.3651 15.01L11.7031 14.8181L12.3651 14.6263V14.0293L12.7708 14.5196L13.4327 14.3278L13.027 14.8181L13.4327 15.3085L12.7708 15.1166L12.3651 15.607V15.01Z" fill="#FDFFF1"/>
<path d="M0.640625 16.6304L1.30257 16.4172V15.7563L1.70828 16.2893L2.37022 16.0761L1.96452 16.6091L2.37022 17.1421L1.70828 16.9289L1.30257 17.462V16.801L0.640625 16.5878V16.6304Z" fill="#FDFFF1"/>
<path d="M3.80078 16.6304L4.46273 16.4172V15.7563L4.86843 16.2893L5.53038 16.0761L5.12467 16.6091L5.53038 17.1421L4.86843 16.9289L4.46273 17.462V16.801L3.80078 16.5878V16.6304Z" fill="#FDFFF1"/>
<path d="M6.96094 16.6304L7.62288 16.4172V15.7563L8.02859 16.2893L8.69054 16.0761L8.28483 16.6091L8.69054 17.1421L8.02859 16.9289L7.62288 17.462V16.801L6.96094 16.5878V16.6304Z" fill="#FDFFF1"/>
<path d="M10.1211 16.6304L10.783 16.4172V15.7563L11.1887 16.2893L11.8507 16.0761L11.445 16.6091L11.8507 17.1421L11.1887 16.9289L10.783 17.462V16.801L10.1211 16.5878V16.6304Z" fill="#FDFFF1"/>
<path d="M13.9432 16.8436L13.2812 16.6304L13.9432 16.4172V15.7563L14.3489 16.2893L15.0108 16.0761L14.6051 16.6091L15.0108 17.1421L14.3489 16.9289L13.9432 17.462V16.801V16.8436Z" fill="#FDFFF1"/>
<path d="M2.21875 18.528L2.8807 18.3148V17.6538L3.2864 18.1869L3.94835 17.9737L3.54264 18.5067L3.94835 19.0397L3.2864 18.8265L2.8807 19.3595V18.6986L2.21875 18.4854V18.528Z" fill="#FDFFF1"/>
<path d="M5.38281 18.528L6.04476 18.3148V17.6538L6.45047 18.1869L7.11241 17.9737L6.7067 18.5067L7.11241 19.0397L6.45047 18.8265L6.04476 19.3595V18.6986L5.38281 18.4854V18.528Z" fill="#FDFFF1"/>
<path d="M8.54297 18.528L9.20491 18.3148V17.6538L9.61062 18.1869L10.2726 17.9737L9.86686 18.5067L10.2726 19.0397L9.61062 18.8265L9.20491 19.3595V18.6986L8.54297 18.4854V18.528Z" fill="#FDFFF1"/>
<path d="M12.3651 18.7412L11.7031 18.528L12.3651 18.3148V17.6538L12.7708 18.1869L13.4327 17.9737L13.027 18.5067L13.4327 19.0397L12.7708 18.8265L12.3651 19.3595V18.6986V18.7412Z" fill="#FDFFF1"/>
<path d="M1.70828 20.0844L2.37022 19.8712L1.96452 20.4043L2.37022 20.9373L1.70828 20.7241L1.30257 21.2571V20.5962L0.640625 20.3829L1.30257 20.1697V19.5088L1.70828 20.0418V20.0844Z" fill="#FDFFF1"/>
<path d="M3.80078 20.4256L4.46273 20.2124V19.5514L4.86843 20.0844L5.53038 19.8712L5.12467 20.4043L5.53038 20.9373L4.86843 20.7241L4.46273 21.2571V20.5962L3.80078 20.3829V20.4256Z" fill="#FDFFF1"/>
<path d="M6.96094 20.4256L7.62288 20.2124V19.5514L8.02859 20.0844L8.69054 19.8712L8.28483 20.4043L8.69054 20.9373L8.02859 20.7241L7.62288 21.2571V20.5962L6.96094 20.3829V20.4256Z" fill="#FDFFF1"/>
<path d="M10.1211 20.4256L10.783 20.2124V19.5514L11.1887 20.0844L11.8507 19.8712L11.445 20.4043L11.8507 20.9373L11.1887 20.7241L10.783 21.2571V20.5962L10.1211 20.3829V20.4256Z" fill="#FDFFF1"/>
<path d="M13.9432 20.6388L13.2812 20.4256L13.9432 20.2124V19.5514L14.3489 20.0844L15.0108 19.8712L14.6051 20.4043L15.0108 20.9373L14.3489 20.7241L13.9432 21.2571V20.5962V20.6388Z" fill="#FDFFF1"/>
<path d="M0 0C0 0.0229933 0.0459866 0 0.0459866 0H0Z" fill="#1968B4"/>
</g>
<defs>
<clipPath id="clip0_560_1153">
<rect width="101" height="51" fill="white"/>
</clipPath>
</defs>
</svg>
