<svg width="196" height="43" viewBox="0 0 196 43" fill="none" xmlns="http://www.w3.org/2000/svg">
<path d="M125.158 0.739022L124.99 1.33691C127.593 1.4713 128.33 2.60242 128.33 3.58592C128.33 4.16268 128.098 4.83081 127.633 5.5809C127.633 5.5809 114.821 25.6481 113.818 27.2196C113.76 26.9714 108.5 4.6058 108.5 4.6058C108.406 4.19398 108.359 3.83255 108.359 3.51567C108.359 1.96432 109.551 1.42701 111.855 1.34124L112.025 0.73877H101.853L101.679 1.33665C103.853 1.42116 105.125 2.00403 105.808 4.77227C107.022 9.7661 111.722 29.6002 111.859 30.1802C106.939 37.3742 102.79 41.5413 96.1571 41.5413C91.3216 41.5413 87.676 38.1994 87.676 33.7668C87.676 29.3446 91.2108 25.7458 95.5549 25.7458C98.2569 25.7458 99.7156 27.1223 99.7156 28.4197C99.7156 29.1652 99.304 29.5386 98.9953 29.7557C98.6341 29.9858 98.2989 30.2757 98.2989 30.827C98.2989 31.3518 98.709 31.7326 99.2743 31.7326C100.206 31.7326 100.709 30.6091 100.709 29.5526C100.709 26.8324 98.7342 25.1416 95.5551 25.1416C90.2279 25.1416 86.9297 29.6931 86.9297 33.9091C86.9297 38.0095 90.3813 42.2509 96.1573 42.2509C104.592 42.2509 109.037 35.566 113.743 28.4899C113.743 28.4899 127.28 7.42139 128.715 5.28641C130.377 2.81241 132.528 1.43745 134.911 1.33971L135.082 0.73877L125.158 0.739022ZM124.401 22.4329C124.401 27.2827 127.6 29.8188 130.761 29.8188C133.518 29.8188 136.367 28.4064 138.579 25.9408C140.847 23.4134 142.148 20.0569 142.148 16.7318C142.148 12.5471 139.664 9.73606 135.966 9.73606C130.238 9.73581 124.401 16.1435 124.401 22.4329ZM126.6 23.1772C126.6 17.6755 131.177 10.2902 135.861 10.2902C139.182 10.2902 139.879 13.26 139.879 15.7391C139.879 20.4542 136.735 29.2642 130.724 29.2642C128.142 29.2642 126.6 26.9806 126.6 23.1772ZM154.561 10.0542C154.561 10.0542 151.146 10.1153 151.146 10.1153C149.471 10.1573 147.703 10.199 146.406 10.1601L146.27 10.6213C148.198 10.7432 148.921 11.225 148.205 13.5273L144.344 26.3142C143.842 27.9249 142.754 28.7653 141.062 28.8638L140.883 29.3584H148.615L148.753 28.8638C147.306 28.7956 146.221 28.5665 146.221 27.2885C146.221 26.9971 146.28 26.6611 146.396 26.2748C146.396 26.2748 148.274 20.0136 148.297 19.938C148.374 19.938 151.736 19.938 151.8 19.938C151.812 19.9614 151.825 19.9864 151.825 19.9864C153.358 23.055 155.266 26.8701 156.389 29.327L156.403 29.3584H166.787L166.922 28.8608C165.489 28.83 164.359 28.523 164.359 27.2738C164.359 26.9867 164.418 26.6548 164.53 26.2745C164.53 26.2745 166.066 21.1567 166.12 20.9788C166.146 20.9577 168.681 18.9831 168.78 18.9044C172.321 26.0498 178.238 37.9311 189.767 37.9311C193.075 37.9311 195.665 35.8684 195.665 33.2368C195.665 31.2223 194.159 30.1372 192.742 30.1372C191.343 30.1372 190.598 31.0935 190.598 31.7843C190.598 32.1979 190.937 32.4761 191.254 32.4761C191.63 32.4761 191.877 32.32 192.081 31.9522C192.286 31.5806 192.714 31.2281 193.306 31.2281C194.417 31.2281 195.167 31.9843 195.167 33.2368C195.167 35.4917 192.808 37.3261 189.909 37.3261C182.606 37.3261 176.291 30.8723 170.602 17.5984C170.67 17.5478 177.297 12.489 177.297 12.489C179.495 10.8644 180.569 10.6911 181.443 10.6231L181.584 10.1604H175.099L174.963 10.62C176.042 10.6819 176.68 11.0856 176.68 11.6371C176.68 12.0658 176.312 12.583 175.601 13.1472C175.601 13.1472 167.478 19.2778 166.349 20.1302C166.443 19.8255 168.39 13.4537 168.39 13.4537C168.389 13.4562 168.432 13.3305 168.432 13.3305C169.007 11.673 169.364 10.7422 171.746 10.6203L171.882 10.1606H164.544L164.4 10.6233C165.465 10.6704 166.112 10.8916 166.385 11.2785C166.67 11.6845 166.646 12.3366 166.303 13.5293L162.478 26.3142C161.981 27.9088 160.968 28.8608 159.768 28.8608C158.673 28.8608 157.946 28.1972 157.089 26.4119C157.089 26.4119 154.098 20.3033 153.791 19.6743C156.769 19.1144 160.211 17.2843 160.211 13.933C160.21 11.5844 158.577 10.0407 154.561 10.0542ZM153.96 10.5159C157.397 10.5159 158.119 12.2404 158.119 13.6858C158.119 16.3108 156.887 19.4394 151.019 19.4394C151.019 19.4394 148.575 19.4394 148.436 19.4394C148.479 19.3017 151.111 10.6893 151.131 10.6198C151.568 10.5826 152.865 10.5159 153.96 10.5159Z" fill="#302D2D"/>
<path d="M44.9852 24.5667C41.9059 19.1776 37.808 10.6652 35.6313 0.738893H25.5197C22.9065 0.738893 18.5225 1.29784 18.5225 5.01165C18.5225 6.46882 19.6806 8.04104 21.5526 8.04104C23.2516 8.04104 24.1564 6.91933 24.1564 6.11019C24.1564 5.60521 23.8739 5.06306 23.2521 5.06306C22.6272 5.06306 22.348 5.58866 22.348 6.11019C22.348 6.74549 21.9189 7.18938 21.304 7.18938C20.0644 7.18938 19.1977 6.26418 19.1977 4.9414C19.1977 2.55622 21.3251 1.34696 25.5194 1.34696H29.8077C32.3194 1.34696 33.4274 2.59211 32.7977 5.10582C28.5007 20.2545 19.903 36.4438 8.66004 36.4438C3.48703 36.4438 0.780636 33.4251 0.780636 30.4415C0.780636 28.2836 2.24875 26.6712 3.56033 26.6712C4.42929 26.6712 4.74923 27.2474 5.05772 27.8041C5.34711 28.3271 5.64669 28.8667 6.39322 28.8667C6.9178 28.8667 7.47522 28.488 7.47522 27.7865C7.47522 26.5836 6.11222 25.6778 4.30406 25.6778C2.22533 25.6778 0 27.5921 0 30.4417C0 34.3521 3.64204 37.1903 8.6603 37.1903C14.6773 37.1903 20.2948 32.9636 25.3578 24.6271C30.1946 16.6619 32.8353 7.66459 33.5976 4.82381C38.0035 20.5801 51.1605 42.2554 64.5859 42.2554C68.1839 42.2554 70.6966 40.252 70.6966 37.3848C70.6966 35.6064 69.6146 34.2189 68.2337 34.2189C67.4045 34.2189 66.8687 34.5821 66.8687 35.1528C66.8687 35.6522 67.3284 35.952 67.7738 35.952C68.0014 35.952 68.1788 35.8749 68.3506 35.8006C68.5076 35.7318 68.657 35.6672 68.8354 35.6672C69.5631 35.6672 70.0915 36.4346 70.0915 37.4911C70.0915 39.9018 67.8209 41.6511 64.692 41.6511C58.2563 41.6511 51.9501 36.3142 45.4126 25.3349C48.092 16.6828 53.4775 2.19759 59.4854 2.19759C60.5824 2.19759 61.265 2.47172 61.8672 2.71403C62.3412 2.90391 62.7886 3.08284 63.3471 3.08284C64.6469 3.08284 64.9939 2.27013 64.9939 1.78882C64.9939 0.718786 63.9327 3.12702e-08 62.3547 3.12702e-08C53.5877 -0.000763551 48.2462 13.983 44.9852 24.5667ZM91.2143 10.16L91.0738 10.6151C92.7178 10.7301 93.2095 11.6037 93.2095 12.325C93.2095 12.7172 93.0845 13.1642 92.8359 13.6618L85.8409 27.0693L84.7867 12.5423C84.6732 11.0366 85.4902 10.6367 87.1149 10.6227L87.2556 10.16H80.5898L80.4503 10.6151C82.1009 10.7525 82.6051 11.3288 82.6051 11.9997C82.6051 12.3204 82.5194 12.6429 82.2816 13.1303C82.2811 13.1303 75.46 27.0059 75.46 27.0059L74.3997 12.5749C74.3162 10.9238 75.1442 10.68 76.6698 10.6202L76.8075 10.1597H69.9999L69.8571 10.6202C71.7752 10.7322 72.3642 11.2868 72.5001 13.0517L73.8496 29.6914H74.6774L82.8866 13.0338L84.2272 29.6914H85.0183L93.3897 13.7109C94.5079 11.5978 95.7556 10.722 97.3878 10.6197L97.525 10.16H91.2143ZM68.3037 10.16H55.3012L55.1638 10.6166C56.2262 10.6922 56.8912 10.9111 57.1697 11.311C57.4418 11.7024 57.4418 12.2993 57.1661 13.2456L53.1993 26.4564C52.7376 27.9474 51.6167 28.7667 49.9487 28.8708L49.7739 29.3597H66.3541L69.2287 23.6823L68.8881 23.5364C66.5274 27.2912 63.0653 28.8606 57.0053 28.8606C57.0053 28.8606 54.6664 28.8606 54.529 28.8606C54.5699 28.7247 57.3064 19.6246 57.3295 19.5485C57.4074 19.5485 60.0868 19.5485 60.0868 19.5485C61.1989 19.5485 61.94 19.7964 62.3542 20.3062C62.8294 20.8914 62.8899 21.8904 62.573 23.4066L62.9961 23.4086L65.2909 15.7629L64.8605 15.7598C64.0506 17.8806 62.3603 19.085 60.1232 19.085C60.1232 19.085 57.6065 19.085 57.469 19.085C57.51 18.9491 59.9983 10.6978 60.0217 10.6225C60.0993 10.6225 62.6026 10.6225 62.6026 10.6225C65.8608 10.6225 67.8975 12.0511 68.6224 14.7733L68.9676 14.7231L68.3518 10.1597H68.3037V10.16Z" fill="#302D2D"/>
</svg>
