<svg width="73" height="35" viewBox="0 0 73 35" fill="none" xmlns="http://www.w3.org/2000/svg">
<path d="M33.5092 0.483592H34.5468L34.6689 0H21.607L21.4849 0.483592H23.3771C25.0251 0.483592 26.3679 1.63212 26.3679 3.86874C26.3679 5.13817 25.8186 6.77029 24.903 8.76511L16.4189 27.323L14.3436 3.2038C14.1605 1.32988 15.1371 0.483592 17.2734 0.483592H18.4941L18.6162 0H0.18311L0 0.483592H1.1597C2.62458 0.483592 3.17391 1.39033 3.29599 3.0829L6.59197 34.2746H14.3436L27.3445 7.01209C29.3587 2.962 31.4339 0.483592 33.5092 0.483592ZM31.9833 34.3955C30.8236 34.3955 30.0911 34.0328 30.0911 32.0984C30.0911 29.6805 31.0067 24.905 31.9833 20.5527C32.1053 22.5475 33.5092 24.5423 35.5844 24.5423C36.0727 24.5423 36.5 24.4819 36.9273 24.4214C34.9741 32.7029 34.2416 34.3955 31.9833 34.3955ZM68.9716 18.0138C71.413 18.0138 73 16.019 73 13.7219C73 11.7876 71.5961 10.3368 69.5819 10.3368C65.9808 10.3368 64.2717 13.1779 61.2809 18.3765C60.6706 15.1123 59.1446 10.8808 55.3604 10.8808C51.0878 10.8808 46.1438 16.9257 41.6271 20.6736C39.5518 22.4266 37.2935 23.5147 35.4624 23.5147C33.5702 23.5147 32.4716 21.6408 32.4716 18.3161C33.8144 12.8756 34.4858 11.4853 36.561 11.4853C37.9649 11.4853 38.5752 12.2712 38.5752 13.9033C38.5752 15.6563 38.209 18.5579 37.4155 22.2453C39.4298 21.6408 42.4816 19.1019 45.0451 16.3817C43.7023 13.1779 40.7726 11.0017 36.6221 11.0017C28.8704 11.0017 22.0343 17.8929 22.0343 25.6304C22.0343 30.9499 25.8796 35 31.8612 35C41.7492 35 45.8997 26.5371 45.8997 20.6131C45.8997 19.7668 45.8386 19.1623 45.7776 18.3765C47.3035 16.7444 49.2567 15.1727 50.8436 15.1727C52.6747 15.1727 54.1396 19.7064 55.5435 26.5371C54.2617 27.9275 52.9799 30.5872 52.3696 31.0708C52.1254 28.6528 50.4774 27.1416 48.3411 27.1416C45.8997 27.1416 44.2517 29.4387 44.2517 31.3731C44.2517 33.5492 45.7776 35 47.7918 35C52.0033 35 53.163 31.0708 55.7876 27.5648C56.5811 31.3126 58.4732 35 61.7082 35C65.5535 35 69.0936 31.7358 70.9247 29.4387L70.5585 28.8946C69.3988 30.0432 68.2391 30.7686 66.8963 30.7686C64.5159 30.7686 62.8069 25.6908 61.5251 19.525C62.3186 18.4974 63.5393 15.8377 64.3938 14.8705C64.9431 15.9585 66.1639 18.0138 68.9716 18.0138Z" fill="#302D2D"/>
</svg>
