<svg width="100" height="51" viewBox="0 0 100 51" fill="none" xmlns="http://www.w3.org/2000/svg">
<path d="M43.017 1.31507H40.0584V8.96324H38.5851V1.31507H35.6385V0.00158691H43.0165V1.31507H43.017ZM43.9082 8.96324V0.00158691H45.3321V3.41414C45.6637 2.91071 46.314 2.43228 47.2224 2.43228C48.5604 2.43228 49.4079 3.40216 49.4079 4.80154V8.96324H47.984V5.08371C47.984 4.21222 47.579 3.6229 46.7195 3.6229C46.0073 3.6229 45.3326 4.15079 45.3326 5.16961V8.96272H43.9088L43.9082 8.96324ZM56.2408 6.93757C56.032 8.22658 54.9887 9.11057 53.4785 9.11057C51.686 9.11057 50.434 7.74815 50.434 5.78392C50.434 3.81968 51.735 2.43228 53.4785 2.43228C55.3074 2.43228 56.3267 3.84415 56.3267 5.62409C56.3267 5.78392 56.3142 5.94322 56.2778 6.12752H51.7725C51.8828 7.39206 52.607 7.98138 53.491 7.98138C54.301 7.98138 54.8045 7.57635 54.9518 6.93809H56.2408V6.93757ZM53.4665 3.57396C52.5091 3.57396 51.9932 4.23669 51.8214 5.1087H54.9518C54.9393 4.29864 54.4119 3.57396 53.4665 3.57396ZM38.9781 13.1635H40.6232L44.1097 22.1251H42.5385L41.6546 19.7928H37.8859L37.0144 22.1251H35.4922L38.9787 13.1635H38.9781ZM39.7637 14.7961L38.3763 18.5033H41.1631L39.7637 14.7961ZM44.975 22.1251V15.7415H46.3988V16.564C46.7054 16.0731 47.3687 15.5941 48.2402 15.5941C48.9274 15.5941 49.6151 15.9622 49.9712 16.564C50.3762 16.0361 51.0514 15.5941 51.9724 15.5941C53.3348 15.5941 54.1698 16.5515 54.1698 17.9634V22.1251H52.746V18.1966C52.746 17.3866 52.3779 16.7848 51.5798 16.7848C50.9291 16.7848 50.2783 17.3127 50.2783 18.2825V22.1251H48.8545V18.1966C48.8545 17.3866 48.4984 16.7848 47.6883 16.7848C47.0376 16.7848 46.3993 17.3127 46.3993 18.2825V22.1251H44.9755H44.975ZM61.0121 20.0994C60.8034 21.3885 59.7601 22.2724 58.2498 22.2724C56.4574 22.2724 55.2053 20.91 55.2053 18.9458C55.2053 16.9816 56.5063 15.5941 58.2498 15.5941C60.0787 15.5941 61.098 17.006 61.098 18.786C61.098 18.9458 61.0855 19.1051 61.0491 19.2894H56.5438C56.6542 20.5539 57.3783 21.1432 58.2623 21.1432C59.0724 21.1432 59.5758 20.7382 59.7231 20.1H61.0121V20.0994ZM58.2378 16.7358C57.2804 16.7358 56.7645 17.3986 56.5927 18.2706H59.7231C59.7106 17.4605 59.1832 16.7358 58.2378 16.7358ZM65.8251 15.6925V17.0919H65.506C64.3518 17.0919 63.6032 17.8655 63.6032 18.9333V22.1251H62.1668V15.7415H63.6032V16.9691C63.9468 16.171 64.6959 15.6925 65.5674 15.6925H65.8251ZM66.6742 14.6243V13.1635H68.1475V14.6243H66.6742ZM68.1105 15.7415V22.1251H66.6867V15.7415H68.1105ZM69.196 18.9333C69.196 16.9446 70.5095 15.5941 72.216 15.5941C73.7627 15.5941 74.6712 16.5026 74.8555 17.6812H73.4561C73.3087 17.0919 72.8543 16.7358 72.216 16.7358C71.2341 16.7358 70.6204 17.6073 70.6204 18.9333C70.6204 20.2593 71.2341 21.1308 72.216 21.1308C72.8543 21.1308 73.3457 20.7747 73.4805 20.0994H74.8799C74.6956 21.3765 73.6893 22.2724 72.1915 22.2724C70.485 22.2724 69.196 20.922 69.196 18.9333ZM79.013 18.1477C79.4305 18.0863 79.6512 17.89 79.6512 17.5214C79.6512 17.0425 79.1968 16.6864 78.4851 16.6864C77.724 16.6864 77.2575 17.0914 77.1836 17.6807H75.7842C75.9071 16.5146 76.8525 15.5936 78.4971 15.5936C80.2281 15.5936 81.0256 16.4776 81.0256 17.914V20.8236C81.0256 21.2531 81.0501 21.6706 81.0996 22.1251H79.7736C79.7247 21.8799 79.6997 21.5852 79.6877 21.3026C79.3191 21.8674 78.5585 22.2599 77.7359 22.2599C76.5328 22.2599 75.5015 21.5603 75.5015 20.3446C75.5015 19.0556 76.4714 18.5402 77.7359 18.3435L79.0125 18.1472L79.013 18.1477ZM76.8275 20.2712C76.8275 20.885 77.3064 21.1922 77.9447 21.1922C78.8532 21.1922 79.6512 20.6643 79.6512 19.596V19.0067L78.0676 19.3014C77.3804 19.4242 76.8275 19.6205 76.8275 20.2712ZM82.3912 22.1251V15.7415H83.815V16.5765C84.1466 16.0731 84.7969 15.5947 85.7053 15.5947C87.0438 15.5947 87.8908 16.5646 87.8908 17.9639V22.1256H86.467V18.2466C86.467 17.3751 86.0619 16.7858 85.2024 16.7858C84.4902 16.7858 83.815 17.3137 83.815 18.3325V22.1256H82.3912V22.1251ZM42.0101 26.3253H43.4834V35.287H42.0101V31.3585H37.5418V35.287H36.0685V26.3253H37.5418V30.045H42.0101V26.3253ZM50.673 32.0952C50.673 34.0474 49.4209 35.4343 47.6285 35.4343C45.836 35.4343 44.584 34.0474 44.584 32.0952C44.584 30.1429 45.8485 28.756 47.6285 28.756C49.4084 28.756 50.673 30.1429 50.673 32.0952ZM46.0078 32.0952C46.0078 33.3967 46.5972 34.2926 47.6285 34.2926C48.6598 34.2926 49.2491 33.3967 49.2491 32.0952C49.2491 30.7937 48.6598 29.8977 47.6285 29.8977C46.5972 29.8977 46.0078 30.7937 46.0078 32.0952ZM57.1383 28.9033V35.287H55.7145V34.4524C55.3828 34.9559 54.7696 35.4343 53.8731 35.4343C52.5471 35.4343 51.7001 34.4644 51.7001 33.065V28.9033H53.124V32.7824C53.124 33.6538 53.5165 34.2432 54.3515 34.2432C55.0757 34.2432 55.7145 33.7153 55.7145 32.6965V28.9033H57.1383ZM58.0921 33.2613H59.5039C59.5773 33.8996 60.1177 34.3416 60.9403 34.3416C61.6155 34.3416 62.1804 34.0349 62.1804 33.507C62.1804 33.139 61.9841 32.9057 61.4562 32.7948L59.897 32.4632C59.0005 32.267 58.3133 31.8494 58.3133 30.7812C58.3133 29.7129 59.3077 28.7555 60.8179 28.7555C62.4386 28.7555 63.3835 29.615 63.4938 30.8421H62.1069C62.0455 30.2652 61.5791 29.8477 60.8179 29.8477C60.1427 29.8477 59.6763 30.2038 59.6763 30.6703C59.6763 31.0383 59.9095 31.2226 60.327 31.3085L61.9476 31.6521C62.9909 31.8729 63.5683 32.4622 63.5683 33.3831C63.5683 34.6352 62.4021 35.4333 60.9413 35.4333C59.2348 35.4333 58.1915 34.4879 58.0931 33.2603L58.0921 33.2613ZM64.5881 27.7861V26.3253H66.0614V27.7861H64.5881ZM66.0245 28.9033V35.287H64.6006V28.9033H66.0245ZM67.4416 35.287V28.9033H68.8654V29.7379C69.197 29.2344 69.8473 28.756 70.7557 28.756C72.0942 28.756 72.9412 29.7259 72.9412 31.1253V35.287H71.5174V31.408C71.5174 30.5365 71.1123 29.9472 70.2528 29.9472C69.5406 29.9472 68.8659 30.475 68.8659 31.4939V35.2875H67.4421L67.4416 35.287ZM80.1302 34.7101C80.1302 36.8337 78.6939 37.7671 77.0368 37.7671C75.4656 37.7671 74.287 36.9571 74.1271 35.6066H75.5265C75.6614 36.2818 76.2632 36.6624 77.0368 36.6624C78.117 36.6624 78.7064 36.0486 78.7064 34.8455V34.1583C78.3747 34.7476 77.6631 35.2016 76.7546 35.2016C75.0725 35.2016 73.9553 33.7653 73.9553 31.9733C73.9553 30.1814 75.0725 28.7571 76.7546 28.7571C77.6631 28.7571 78.3628 29.248 78.7064 29.8003V28.9044H80.1302V34.7112V34.7101ZM78.7673 31.9848C78.7673 30.7327 78.1535 29.8982 77.0857 29.8982C76.018 29.8982 75.3917 30.7208 75.3917 31.9848C75.3917 33.2488 75.993 34.0719 77.0857 34.0719C78.1785 34.0719 78.7673 33.2249 78.7673 31.9848ZM35.6999 43.968C35.6999 41.2057 37.4798 39.3399 39.8371 39.3399C41.8628 39.3399 43.2252 40.494 43.5074 42.2865H41.9607C41.703 41.3041 41.0522 40.6903 39.8246 40.6903C38.204 40.6903 37.2221 42.0777 37.2221 43.968C37.2221 45.8583 38.204 47.2457 39.8246 47.2457C41.0522 47.2457 41.703 46.6319 41.9607 45.6496H43.5074C43.2252 47.442 41.8628 48.5962 39.8371 48.5962C37.4798 48.5962 35.6999 46.7303 35.6999 43.968ZM50.2174 45.257C50.2174 47.2093 48.9654 48.5962 47.1729 48.5962C45.3805 48.5962 44.1285 47.2093 44.1285 45.257C44.1285 43.3048 45.393 41.9179 47.1729 41.9179C48.9529 41.9179 50.2174 43.3048 50.2174 45.257ZM45.5523 45.257C45.5523 46.5585 46.1416 47.4545 47.1729 47.4545C48.2043 47.4545 48.7936 46.5585 48.7936 45.257C48.7936 43.9555 48.2043 43.0596 47.1729 43.0596C46.1416 43.0596 45.5523 43.9555 45.5523 45.257ZM54.9518 42.0163V43.4157H54.6327C53.4785 43.4157 52.7299 44.1893 52.7299 45.257V48.4488H51.2935V42.0652H52.7299V43.2928C53.0735 42.4952 53.8226 42.0163 54.6941 42.0163H54.9518ZM57.2367 47.5529V50.7811H55.8129V42.0652H57.2367V42.9612C57.5928 42.3843 58.317 41.9179 59.2254 41.9179C60.907 41.9179 61.9997 43.4157 61.9997 45.257C61.9997 47.0984 60.907 48.5962 59.2254 48.5962C58.317 48.5962 57.5928 48.1297 57.2367 47.5529ZM57.1753 45.257C57.1753 46.5705 57.8016 47.4545 58.8693 47.4545C59.9371 47.4545 60.5634 46.5705 60.5634 45.257C60.5634 43.9436 59.9496 43.0596 58.8693 43.0596C57.7891 43.0596 57.1753 43.9436 57.1753 45.257ZM68.8831 45.257C68.8831 47.2093 67.6311 48.5962 65.8386 48.5962C64.0462 48.5962 62.7941 47.2093 62.7941 45.257C62.7941 43.3048 64.0587 41.9179 65.8386 41.9179C67.6186 41.9179 68.8831 43.3048 68.8831 45.257ZM64.2185 45.257C64.2185 46.5585 64.8078 47.4545 65.8391 47.4545C66.8705 47.4545 67.4598 46.5585 67.4598 45.257C67.4598 43.9555 66.8705 43.0596 65.8391 43.0596C64.8078 43.0596 64.2185 43.9555 64.2185 45.257ZM73.618 42.0163V43.4157H73.2989C72.1447 43.4157 71.3961 44.1893 71.3961 45.257V48.4488H69.9597V42.0652H71.3961V43.2928C71.7402 42.4952 72.4888 42.0163 73.3603 42.0163H73.618ZM77.4064 44.4714C77.8239 44.41 78.0447 44.2137 78.0447 43.8452C78.0447 43.3662 77.5907 43.0101 76.8785 43.0101C76.1174 43.0101 75.6509 43.4151 75.577 44.0045H74.1776C74.3005 42.8383 75.2459 41.9179 76.8905 41.9179C78.6215 41.9179 79.4191 42.8019 79.4191 44.2382V47.1479C79.4191 47.5774 79.4435 47.9949 79.4925 48.4494H78.1665C78.117 48.2042 78.0931 47.9095 78.0806 47.6268C77.7125 48.1917 76.9514 48.5842 76.1283 48.5842C74.9252 48.5842 73.8944 47.8845 73.8944 46.6689C73.8944 45.3799 74.8643 44.864 76.1283 44.6677L77.4048 44.4714H77.4064ZM75.2209 46.5955C75.2209 47.2093 75.6999 47.5164 76.3381 47.5164C77.2466 47.5164 78.0447 46.9886 78.0447 45.9208V45.3315L76.461 45.6261C75.7733 45.749 75.2209 45.9453 75.2209 46.596V46.5955ZM80.9731 46.7798V43.2199H80.0401V42.0657H80.9731V40.4451H82.3605V42.0657H83.8093V43.2199H82.3605V46.5955C82.3605 47.0989 82.5812 47.2707 83.0477 47.2707H83.8088V48.4494H82.6791C81.6358 48.4494 80.9725 47.934 80.9725 46.7798H80.9731ZM84.825 40.948V39.4872H86.2983V40.948H84.825ZM86.2608 42.0652V48.4488H84.837V42.0652H86.2608ZM93.4358 45.257C93.4358 47.2093 92.1837 48.5962 90.3913 48.5962C88.5988 48.5962 87.3468 47.2093 87.3468 45.257C87.3468 43.3048 88.6113 41.9179 90.3913 41.9179C92.1712 41.9179 93.4358 43.3048 93.4358 45.257ZM88.7706 45.257C88.7706 46.5585 89.36 47.4545 90.3913 47.4545C91.4226 47.4545 92.0119 46.5585 92.0119 45.257C92.0119 43.9555 91.4226 43.0596 90.3913 43.0596C89.36 43.0596 88.7706 43.9555 88.7706 45.257ZM94.4999 48.4488V42.0652H95.9237V42.8997C96.2553 42.3963 96.9056 41.9179 97.8145 41.9179C99.1525 41.9179 99.9995 42.8878 99.9995 44.2871V48.4488H98.5757V44.5698C98.5757 43.6983 98.1706 43.109 97.3111 43.109C96.5989 43.109 95.9237 43.6369 95.9237 44.6557V48.4494H94.4999V48.4488Z" fill="#302D2D"/>
<path d="M22.543 50.7827V0H24.7972V50.7827H22.543Z" fill="#953012"/>
<path d="M18.0352 50.7827V0H20.2894V50.7827H18.0352Z" fill="#953012"/>
<path d="M13.5273 50.7843V22.1433H15.7816V50.7843H13.5273Z" fill="#953012"/>
<path d="M9.01562 50.7843V22.1433H11.2698V50.7843H9.01562Z" fill="#953012"/>
<path d="M4.50781 50.7843V22.1433H6.76202V50.7843H4.50781Z" fill="#953012"/>
<path d="M0 50.7843V22.1433H2.25421V50.7843H0Z" fill="#953012"/>
<path d="M27.0508 50.7827V0H29.305V50.7827H27.0508Z" fill="#953012"/>
<path d="M20.2891 50.7827V0H22.5433V50.7827H20.2891Z" fill="#FDFFF1"/>
<path d="M15.7812 50.7843V0.00158691H18.0355V50.7843H15.7812Z" fill="#FDFFF1"/>
<path d="M24.7969 50.7827V0H27.0511V50.7827H24.7969Z" fill="#FDFFF1"/>
<path d="M2.25391 50.7843V22.1433H4.50811V50.7843H2.25391Z" fill="#FDFFF1"/>
<path d="M11.2734 50.7843V22.1433H13.5276V50.7843H11.2734Z" fill="#FDFFF1"/>
<path d="M6.76172 50.7843V22.1433H9.01593V50.7843H6.76172Z" fill="#FDFFF1"/>
<path d="M0.0546875 0.00158691V22.1433H15.7779V0.00158691" fill="#1968B4"/>
<path d="M0.683594 1.80704L1.3432 1.60296V0.943359L1.75083 1.47698L2.41043 1.2729L2.0028 1.80704L2.41043 2.34066L1.75083 2.13658L1.3432 2.67072V2.01111L0.683594 1.80704Z" fill="#FDFFF1"/>
<path d="M3.82422 1.80704L4.48382 1.60296V0.943359L4.89145 1.47698L5.55106 1.2729L5.14343 1.80704L5.55106 2.34066L4.89145 2.13658L4.48382 2.67072V2.01111L3.82422 1.80704Z" fill="#FDFFF1"/>
<path d="M6.96484 1.80704L7.62445 1.60296V0.943359L8.03208 1.47698L8.69168 1.2729L8.28405 1.80704L8.69168 2.34066L8.03208 2.13658L7.62445 2.67072V2.01111L6.96484 1.80704Z" fill="#FDFFF1"/>
<path d="M10.1055 1.80704L10.7651 1.60296V0.943359L11.1727 1.47698L11.8323 1.2729L11.4247 1.80704L11.8323 2.34066L11.1727 2.13658L10.7651 2.67072V2.01111L10.1055 1.80704Z" fill="#FDFFF1"/>
<path d="M13.9057 2.01111L13.2461 1.80704L13.9057 1.60296V0.943359L14.3133 1.47698L14.9729 1.2729L14.5653 1.80704L14.9729 2.34066L14.3133 2.13658L13.9057 2.67072V2.01111Z" fill="#FDFFF1"/>
<path d="M2.25391 3.69156L2.91351 3.48748V2.82788L3.32114 3.36202L3.98074 3.15794L3.57311 3.69156L3.98074 4.2257L3.32114 4.02162L2.91351 4.55524V3.89564L2.25391 3.69156Z" fill="#FDFFF1"/>
<path d="M5.39453 3.69156L6.05413 3.48748V2.82788L6.46177 3.36202L7.12137 3.15794L6.71374 3.69156L7.12137 4.2257L6.46177 4.02162L6.05413 4.55524V3.89564L5.39453 3.69156Z" fill="#FDFFF1"/>
<path d="M8.53516 3.69156L9.19476 3.48748V2.82788L9.60239 3.36202L10.262 3.15794L9.85436 3.69156L10.262 4.2257L9.60239 4.02162L9.19476 4.55524V3.89564L8.53516 3.69156Z" fill="#FDFFF1"/>
<path d="M12.3354 3.89564L11.6758 3.69156L12.3354 3.48748V2.82788L12.743 3.36202L13.4026 3.15794L12.995 3.69156L13.4026 4.2257L12.743 4.02162L12.3354 4.55524V3.89564Z" fill="#FDFFF1"/>
<path d="M0.683594 5.5762L1.3432 5.37213V4.71252L1.75083 5.24614L2.41043 5.04207L2.0028 5.5762L2.41043 6.11034L1.75083 5.90627L1.3432 6.43988V5.78028L0.683594 5.5762Z" fill="#FDFFF1"/>
<path d="M3.82422 5.5762L4.48382 5.37213V4.71252L4.89145 5.24614L5.55106 5.04207L5.14343 5.5762L5.55106 6.11034L4.89145 5.90627L4.48382 6.43988V5.78028L3.82422 5.5762Z" fill="#FDFFF1"/>
<path d="M6.96484 5.5762L7.62445 5.37213V4.71252L8.03208 5.24614L8.69168 5.04207L8.28405 5.5762L8.69168 6.11034L8.03208 5.90627L7.62445 6.43988V5.78028L6.96484 5.5762Z" fill="#FDFFF1"/>
<path d="M10.1055 5.5762L10.7651 5.37213V4.71252L11.1727 5.24614L11.8323 5.04207L11.4247 5.5762L11.8323 6.11034L11.1727 5.90627L10.7651 6.43988V5.78028L10.1055 5.5762Z" fill="#FDFFF1"/>
<path d="M13.9057 5.77973L13.2461 5.57565L13.9057 5.37158V4.71198L14.3133 5.24559L14.9729 5.04152L14.5653 5.57565L14.9729 6.10979L14.3133 5.90572L13.9057 6.43933V5.77973Z" fill="#FDFFF1"/>
<path d="M2.25391 7.3035L2.91351 7.09942V6.43982L3.32114 6.97344L3.98074 6.76936L3.57311 7.3035L3.98074 7.83712L3.32114 7.63304L2.91351 8.16718V7.50758L2.25391 7.3035Z" fill="#FDFFF1"/>
<path d="M5.39453 7.3035L6.05413 7.09942V6.43982L6.46177 6.97344L7.12137 6.76936L6.71374 7.3035L7.12137 7.83712L6.46177 7.63304L6.05413 8.16718V7.50758L5.39453 7.3035Z" fill="#FDFFF1"/>
<path d="M8.53516 7.3035L9.19476 7.09942V6.43982L9.60239 6.97344L10.262 6.76936L9.85436 7.3035L10.262 7.83712L9.60239 7.63304L9.19476 8.16718V7.50758L8.53516 7.3035Z" fill="#FDFFF1"/>
<path d="M12.3354 7.50709L11.6758 7.30301L12.3354 7.09893V6.43933L12.743 6.97295L13.4026 6.76887L12.995 7.30301L13.4026 7.83663L12.743 7.63255L12.3354 8.16669V7.50709Z" fill="#FDFFF1"/>
<path d="M0.683594 9.18814L1.3432 8.98407V8.32446L1.75083 8.8586L2.41043 8.65453L2.0028 9.18814L2.41043 9.72228L1.75083 9.5182L1.3432 10.0518V9.39222L0.683594 9.18814Z" fill="#FDFFF1"/>
<path d="M3.82422 9.18814L4.48382 8.98407V8.32446L4.89145 8.8586L5.55106 8.65453L5.14343 9.18814L5.55106 9.72228L4.89145 9.5182L4.48382 10.0518V9.39222L3.82422 9.18814Z" fill="#FDFFF1"/>
<path d="M6.96484 9.18814L7.62445 8.98407V8.32446L8.03208 8.8586L8.69168 8.65453L8.28405 9.18814L8.69168 9.72228L8.03208 9.5182L7.62445 10.0518V9.39222L6.96484 9.18814Z" fill="#FDFFF1"/>
<path d="M10.1055 9.18814L10.7651 8.98407V8.32446L11.1727 8.8586L11.8323 8.65453L11.4247 9.18814L11.8323 9.72228L11.1727 9.5182L10.7651 10.0518V9.39222L10.1055 9.18814Z" fill="#FDFFF1"/>
<path d="M13.9057 9.39167L13.2461 9.18759L13.9057 8.98352V8.32391L14.3133 8.85805L14.9729 8.65398L14.5653 9.18759L14.9729 9.72173L14.3133 9.51766L13.9057 10.0513V9.39167Z" fill="#FDFFF1"/>
<path d="M2.25391 11.0722L2.91351 10.8681V10.2085L3.32114 10.7421L3.98074 10.538L3.57311 11.0722L3.98074 11.6063L3.32114 11.4022L2.91351 11.9359V11.2763L2.25391 11.0722Z" fill="#FDFFF1"/>
<path d="M5.39453 11.0722L6.05413 10.8681V10.2085L6.46177 10.7421L7.12137 10.538L6.71374 11.0722L7.12137 11.6063L6.46177 11.4022L6.05413 11.9359V11.2763L5.39453 11.0722Z" fill="#FDFFF1"/>
<path d="M8.53516 11.0722L9.19476 10.8681V10.2085L9.60239 10.7421L10.262 10.538L9.85436 11.0722L10.262 11.6063L9.60239 11.4022L9.19476 11.9359V11.2763L8.53516 11.0722Z" fill="#FDFFF1"/>
<path d="M12.3354 11.2763L11.6758 11.0722L12.3354 10.8681V10.2085L12.743 10.7421L13.4026 10.538L12.995 11.0722L13.4026 11.6063L12.743 11.4022L12.3354 11.9359V11.2763Z" fill="#FDFFF1"/>
<path d="M0.683594 12.9568L1.3432 12.7527V12.0931L1.75083 12.6267L2.41043 12.4226L2.0028 12.9568L2.41043 13.4904L1.75083 13.2863L1.3432 13.8204V13.1608L0.683594 12.9568Z" fill="#FDFFF1"/>
<path d="M3.82422 12.9568L4.48382 12.7527V12.0931L4.89145 12.6267L5.55106 12.4226L5.14343 12.9568L5.55106 13.4904L4.89145 13.2863L4.48382 13.8204V13.1608L3.82422 12.9568Z" fill="#FDFFF1"/>
<path d="M6.96484 12.9568L7.62445 12.7527V12.0931L8.03208 12.6267L8.69168 12.4226L8.28405 12.9568L8.69168 13.4904L8.03208 13.2863L7.62445 13.8204V13.1608L6.96484 12.9568Z" fill="#FDFFF1"/>
<path d="M10.1055 12.9568L10.7651 12.7527V12.0931L11.1727 12.6267L11.8323 12.4226L11.4247 12.9568L11.8323 13.4904L11.1727 13.2863L10.7651 13.8204V13.1608L10.1055 12.9568Z" fill="#FDFFF1"/>
<path d="M13.9057 13.1608L13.2461 12.9568L13.9057 12.7527V12.0931L14.3133 12.6267L14.9729 12.4226L14.5653 12.9568L14.9729 13.4904L14.3133 13.2863L13.9057 13.8204V13.1608Z" fill="#FDFFF1"/>
<path d="M2.25391 14.7627L2.91351 14.5774V13.9777L3.32114 14.4634L3.98074 14.278L3.57311 14.7632L3.98074 15.249L3.32114 15.0636L2.91351 15.5488V14.9491L2.25391 14.7638V14.7627Z" fill="#FDFFF1"/>
<path d="M5.39453 14.7627L6.05413 14.5774V13.9777L6.46177 14.4634L7.12137 14.278L6.71374 14.7632L7.12137 15.249L6.46177 15.0636L6.05413 15.5488V14.9491L5.39453 14.7638V14.7627Z" fill="#FDFFF1"/>
<path d="M8.53516 14.7627L9.19476 14.5774V13.9777L9.60239 14.4634L10.262 14.278L9.85436 14.7632L10.262 15.249L9.60239 15.0636L9.19476 15.5488V14.9491L8.53516 14.7638V14.7627Z" fill="#FDFFF1"/>
<path d="M12.3354 14.9481L11.6758 14.7627L12.3354 14.5774V13.9777L12.743 14.4634L13.4026 14.278L12.995 14.7632L13.4026 15.249L12.743 15.0636L12.3354 15.5488V14.9491V14.9481Z" fill="#FDFFF1"/>
<path d="M0.683594 16.5687L1.3432 16.3646V15.705L1.75083 16.2386L2.41043 16.0346L2.0028 16.5687L2.41043 17.1028L1.75083 16.8988L1.3432 17.4324V16.7728L0.683594 16.5687Z" fill="#FDFFF1"/>
<path d="M3.82422 16.5687L4.48382 16.3646V15.705L4.89145 16.2386L5.55106 16.0346L5.14343 16.5687L5.55106 17.1028L4.89145 16.8988L4.48382 17.4324V16.7728L3.82422 16.5687Z" fill="#FDFFF1"/>
<path d="M6.96484 16.5687L7.62445 16.3646V15.705L8.03208 16.2386L8.69168 16.0346L8.28405 16.5687L8.69168 17.1028L8.03208 16.8988L7.62445 17.4324V16.7728L6.96484 16.5687Z" fill="#FDFFF1"/>
<path d="M10.1055 16.5687L10.7651 16.3646V15.705L11.1727 16.2386L11.8323 16.0346L11.4247 16.5687L11.8323 17.1028L11.1727 16.8988L10.7651 17.4324V16.7728L10.1055 16.5687Z" fill="#FDFFF1"/>
<path d="M13.9057 16.7722L13.2461 16.5681L13.9057 16.3641V15.7045L14.3133 16.2381L14.9729 16.034L14.5653 16.5681L14.9729 17.1023L14.3133 16.8982L13.9057 17.4318V16.7722Z" fill="#FDFFF1"/>
<path d="M2.25391 18.4527L2.91351 18.2487V17.5891L3.32114 18.1227L3.98074 17.9186L3.57311 18.4527L3.98074 18.9863L3.32114 18.7823L2.91351 19.3164V18.6568L2.25391 18.4527Z" fill="#FDFFF1"/>
<path d="M5.39453 18.4527L6.05413 18.2487V17.5891L6.46177 18.1227L7.12137 17.9186L6.71374 18.4527L7.12137 18.9863L6.46177 18.7823L6.05413 19.3164V18.6568L5.39453 18.4527Z" fill="#FDFFF1"/>
<path d="M8.53516 18.4527L9.19476 18.2487V17.5891L9.60239 18.1227L10.262 17.9186L9.85436 18.4527L10.262 18.9863L9.60239 18.7823L9.19476 19.3164V18.6568L8.53516 18.4527Z" fill="#FDFFF1"/>
<path d="M12.3354 18.6568L11.6758 18.4527L12.3354 18.2487V17.5891L12.743 18.1227L13.4026 17.9186L12.995 18.4527L13.4026 18.9863L12.743 18.7823L12.3354 19.3164V18.6568Z" fill="#FDFFF1"/>
<path d="M1.75083 20.0078L2.41043 19.8037L2.0028 20.3373L2.41043 20.8715L1.75083 20.6674L1.3432 21.201V20.5409L0.683594 20.3368L1.3432 20.1327V19.4731L1.75083 20.0073V20.0078Z" fill="#FDFFF1"/>
<path d="M3.82422 20.3373L4.48382 20.1332V19.4736L4.89145 20.0078L5.55106 19.8037L5.14343 20.3373L5.55106 20.8715L4.89145 20.6674L4.48382 21.201V20.5409L3.82422 20.3368V20.3373Z" fill="#FDFFF1"/>
<path d="M6.96484 20.3373L7.62445 20.1332V19.4736L8.03208 20.0078L8.69168 19.8037L8.28405 20.3373L8.69168 20.8715L8.03208 20.6674L7.62445 21.201V20.5409L6.96484 20.3368V20.3373Z" fill="#FDFFF1"/>
<path d="M10.1055 20.3373L10.7651 20.1332V19.4736L11.1727 20.0078L11.8323 19.8037L11.4247 20.3373L11.8323 20.8715L11.1727 20.6674L10.7651 21.201V20.5409L10.1055 20.3368V20.3373Z" fill="#FDFFF1"/>
<path d="M13.9057 20.5414L13.2461 20.3373L13.9057 20.1332V19.4736L14.3133 20.0078L14.9729 19.8037L14.5653 20.3373L14.9729 20.8715L14.3133 20.6674L13.9057 21.201V20.5409V20.5414Z" fill="#FDFFF1"/>
</svg>
