<svg width="100" height="51" viewBox="0 0 100 51" fill="none" xmlns="http://www.w3.org/2000/svg">
<path d="M43.017 1.31507H40.0584V8.96324H38.5851V1.31507H35.6385V0.00158691H43.0165V1.31507H43.017ZM43.9082 8.96324V0.00158691H45.3321V3.41414C45.6637 2.91071 46.314 2.43228 47.2224 2.43228C48.5604 2.43228 49.4079 3.40216 49.4079 4.80154V8.96324H47.984V5.08371C47.984 4.21222 47.579 3.6229 46.7195 3.6229C46.0073 3.6229 45.3326 4.15079 45.3326 5.16961V8.96272H43.9088L43.9082 8.96324ZM56.2408 6.93757C56.032 8.22658 54.9887 9.11057 53.4785 9.11057C51.686 9.11057 50.434 7.74815 50.434 5.78392C50.434 3.81968 51.735 2.43228 53.4785 2.43228C55.3074 2.43228 56.3267 3.84415 56.3267 5.62409C56.3267 5.78392 56.3142 5.94322 56.2778 6.12752H51.7725C51.8828 7.39206 52.607 7.98138 53.491 7.98138C54.301 7.98138 54.8045 7.57635 54.9518 6.93809H56.2408V6.93757ZM53.4665 3.57396C52.5091 3.57396 51.9932 4.23669 51.8214 5.1087H54.9518C54.9393 4.29864 54.4119 3.57396 53.4665 3.57396ZM38.9781 13.1635H40.6232L44.1097 22.1251H42.5385L41.6546 19.7928H37.8859L37.0144 22.1251H35.4922L38.9787 13.1635H38.9781ZM39.7637 14.7961L38.3763 18.5033H41.1631L39.7637 14.7961ZM44.975 22.1251V15.7415H46.3988V16.564C46.7054 16.0731 47.3687 15.5941 48.2402 15.5941C48.9274 15.5941 49.6151 15.9622 49.9712 16.564C50.3762 16.0361 51.0514 15.5941 51.9724 15.5941C53.3348 15.5941 54.1698 16.5515 54.1698 17.9634V22.1251H52.746V18.1966C52.746 17.3866 52.3779 16.7848 51.5798 16.7848C50.9291 16.7848 50.2783 17.3127 50.2783 18.2825V22.1251H48.8545V18.1966C48.8545 17.3866 48.4984 16.7848 47.6883 16.7848C47.0376 16.7848 46.3993 17.3127 46.3993 18.2825V22.1251H44.9755H44.975ZM61.0121 20.0994C60.8034 21.3885 59.7601 22.2724 58.2498 22.2724C56.4574 22.2724 55.2053 20.91 55.2053 18.9458C55.2053 16.9816 56.5063 15.5941 58.2498 15.5941C60.0787 15.5941 61.098 17.006 61.098 18.786C61.098 18.9458 61.0855 19.1051 61.0491 19.2894H56.5438C56.6542 20.5539 57.3783 21.1432 58.2623 21.1432C59.0724 21.1432 59.5758 20.7382 59.7231 20.1H61.0121V20.0994ZM58.2378 16.7358C57.2804 16.7358 56.7645 17.3986 56.5927 18.2706H59.7231C59.7106 17.4605 59.1832 16.7358 58.2378 16.7358ZM65.8251 15.6925V17.0919H65.506C64.3518 17.0919 63.6032 17.8655 63.6032 18.9333V22.1251H62.1668V15.7415H63.6032V16.9691C63.9468 16.171 64.6959 15.6925 65.5674 15.6925H65.8251ZM66.6742 14.6243V13.1635H68.1475V14.6243H66.6742ZM68.1105 15.7415V22.1251H66.6867V15.7415H68.1105ZM69.196 18.9333C69.196 16.9446 70.5095 15.5941 72.216 15.5941C73.7627 15.5941 74.6712 16.5026 74.8555 17.6812H73.4561C73.3087 17.0919 72.8543 16.7358 72.216 16.7358C71.2341 16.7358 70.6204 17.6073 70.6204 18.9333C70.6204 20.2593 71.2341 21.1308 72.216 21.1308C72.8543 21.1308 73.3457 20.7747 73.4805 20.0994H74.8799C74.6956 21.3765 73.6893 22.2724 72.1915 22.2724C70.485 22.2724 69.196 20.922 69.196 18.9333ZM79.013 18.1477C79.4305 18.0863 79.6512 17.89 79.6512 17.5214C79.6512 17.0425 79.1968 16.6864 78.4851 16.6864C77.724 16.6864 77.2575 17.0914 77.1836 17.6807H75.7842C75.9071 16.5146 76.8525 15.5936 78.4971 15.5936C80.2281 15.5936 81.0256 16.4776 81.0256 17.914V20.8236C81.0256 21.2531 81.0501 21.6706 81.0996 22.1251H79.7736C79.7247 21.8799 79.6997 21.5852 79.6877 21.3026C79.3191 21.8674 78.5585 22.2599 77.7359 22.2599C76.5328 22.2599 75.5015 21.5603 75.5015 20.3446C75.5015 19.0556 76.4714 18.5402 77.7359 18.3435L79.0125 18.1472L79.013 18.1477ZM76.8275 20.2712C76.8275 20.885 77.3064 21.1922 77.9447 21.1922C78.8532 21.1922 79.6512 20.6643 79.6512 19.596V19.0067L78.0676 19.3014C77.3804 19.4242 76.8275 19.6205 76.8275 20.2712ZM82.3912 22.1251V15.7415H83.815V16.5765C84.1466 16.0731 84.7969 15.5947 85.7053 15.5947C87.0438 15.5947 87.8908 16.5646 87.8908 17.9639V22.1256H86.467V18.2466C86.467 17.3751 86.0619 16.7858 85.2024 16.7858C84.4902 16.7858 83.815 17.3137 83.815 18.3325V22.1256H82.3912V22.1251ZM42.0101 26.3253H43.4834V35.287H42.0101V31.3585H37.5418V35.287H36.0685V26.3253H37.5418V30.045H42.0101V26.3253ZM50.673 32.0952C50.673 34.0474 49.4209 35.4343 47.6285 35.4343C45.836 35.4343 44.584 34.0474 44.584 32.0952C44.584 30.1429 45.8485 28.756 47.6285 28.756C49.4084 28.756 50.673 30.1429 50.673 32.0952ZM46.0078 32.0952C46.0078 33.3967 46.5972 34.2926 47.6285 34.2926C48.6598 34.2926 49.2491 33.3967 49.2491 32.0952C49.2491 30.7937 48.6598 29.8977 47.6285 29.8977C46.5972 29.8977 46.0078 30.7937 46.0078 32.0952ZM57.1383 28.9033V35.287H55.7145V34.4524C55.3828 34.9559 54.7696 35.4343 53.8731 35.4343C52.5471 35.4343 51.7001 34.4644 51.7001 33.065V28.9033H53.124V32.7824C53.124 33.6538 53.5165 34.2432 54.3515 34.2432C55.0757 34.2432 55.7145 33.7153 55.7145 32.6965V28.9033H57.1383ZM58.0921 33.2613H59.5039C59.5773 33.8996 60.1177 34.3416 60.9403 34.3416C61.6155 34.3416 62.1804 34.0349 62.1804 33.507C62.1804 33.139 61.9841 32.9057 61.4562 32.7948L59.897 32.4632C59.0005 32.267 58.3133 31.8494 58.3133 30.7812C58.3133 29.7129 59.3077 28.7555 60.8179 28.7555C62.4386 28.7555 63.3835 29.615 63.4938 30.8421H62.1069C62.0455 30.2652 61.5791 29.8477 60.8179 29.8477C60.1427 29.8477 59.6763 30.2038 59.6763 30.6703C59.6763 31.0383 59.9095 31.2226 60.327 31.3085L61.9476 31.6521C62.9909 31.8729 63.5683 32.4622 63.5683 33.3831C63.5683 34.6352 62.4021 35.4333 60.9413 35.4333C59.2348 35.4333 58.1915 34.4879 58.0931 33.2603L58.0921 33.2613ZM64.5881 27.7861V26.3253H66.0614V27.7861H64.5881ZM66.0245 28.9033V35.287H64.6006V28.9033H66.0245ZM67.4416 35.287V28.9033H68.8654V29.7379C69.197 29.2344 69.8473 28.756 70.7557 28.756C72.0942 28.756 72.9412 29.7259 72.9412 31.1253V35.287H71.5174V31.408C71.5174 30.5365 71.1123 29.9472 70.2528 29.9472C69.5406 29.9472 68.8659 30.475 68.8659 31.4939V35.2875H67.4421L67.4416 35.287ZM80.1302 34.7101C80.1302 36.8337 78.6939 37.7671 77.0368 37.7671C75.4656 37.7671 74.287 36.9571 74.1271 35.6066H75.5265C75.6614 36.2818 76.2632 36.6624 77.0368 36.6624C78.117 36.6624 78.7064 36.0486 78.7064 34.8455V34.1583C78.3747 34.7476 77.6631 35.2016 76.7546 35.2016C75.0725 35.2016 73.9553 33.7653 73.9553 31.9733C73.9553 30.1814 75.0725 28.7571 76.7546 28.7571C77.6631 28.7571 78.3628 29.248 78.7064 29.8003V28.9044H80.1302V34.7112V34.7101ZM78.7673 31.9848C78.7673 30.7327 78.1535 29.8982 77.0857 29.8982C76.018 29.8982 75.3917 30.7208 75.3917 31.9848C75.3917 33.2488 75.993 34.0719 77.0857 34.0719C78.1785 34.0719 78.7673 33.2249 78.7673 31.9848ZM35.6999 43.968C35.6999 41.2057 37.4798 39.3399 39.8371 39.3399C41.8628 39.3399 43.2252 40.494 43.5074 42.2865H41.9607C41.703 41.3041 41.0522 40.6903 39.8246 40.6903C38.204 40.6903 37.2221 42.0777 37.2221 43.968C37.2221 45.8583 38.204 47.2457 39.8246 47.2457C41.0522 47.2457 41.703 46.6319 41.9607 45.6496H43.5074C43.2252 47.442 41.8628 48.5962 39.8371 48.5962C37.4798 48.5962 35.6999 46.7303 35.6999 43.968ZM50.2174 45.257C50.2174 47.2093 48.9654 48.5962 47.1729 48.5962C45.3805 48.5962 44.1285 47.2093 44.1285 45.257C44.1285 43.3048 45.393 41.9179 47.1729 41.9179C48.9529 41.9179 50.2174 43.3048 50.2174 45.257ZM45.5523 45.257C45.5523 46.5585 46.1416 47.4545 47.1729 47.4545C48.2043 47.4545 48.7936 46.5585 48.7936 45.257C48.7936 43.9555 48.2043 43.0596 47.1729 43.0596C46.1416 43.0596 45.5523 43.9555 45.5523 45.257ZM54.9518 42.0163V43.4157H54.6327C53.4785 43.4157 52.7299 44.1893 52.7299 45.257V48.4488H51.2935V42.0652H52.7299V43.2928C53.0735 42.4952 53.8226 42.0163 54.6941 42.0163H54.9518ZM57.2367 47.5529V50.7811H55.8129V42.0652H57.2367V42.9612C57.5928 42.3843 58.317 41.9179 59.2254 41.9179C60.907 41.9179 61.9997 43.4157 61.9997 45.257C61.9997 47.0984 60.907 48.5962 59.2254 48.5962C58.317 48.5962 57.5928 48.1297 57.2367 47.5529ZM57.1753 45.257C57.1753 46.5705 57.8016 47.4545 58.8693 47.4545C59.9371 47.4545 60.5634 46.5705 60.5634 45.257C60.5634 43.9436 59.9496 43.0596 58.8693 43.0596C57.7891 43.0596 57.1753 43.9436 57.1753 45.257ZM68.8831 45.257C68.8831 47.2093 67.6311 48.5962 65.8386 48.5962C64.0462 48.5962 62.7941 47.2093 62.7941 45.257C62.7941 43.3048 64.0587 41.9179 65.8386 41.9179C67.6186 41.9179 68.8831 43.3048 68.8831 45.257ZM64.2185 45.257C64.2185 46.5585 64.8078 47.4545 65.8391 47.4545C66.8705 47.4545 67.4598 46.5585 67.4598 45.257C67.4598 43.9555 66.8705 43.0596 65.8391 43.0596C64.8078 43.0596 64.2185 43.9555 64.2185 45.257ZM73.618 42.0163V43.4157H73.2989C72.1447 43.4157 71.3961 44.1893 71.3961 45.257V48.4488H69.9597V42.0652H71.3961V43.2928C71.7402 42.4952 72.4888 42.0163 73.3603 42.0163H73.618ZM77.4064 44.4714C77.8239 44.41 78.0447 44.2137 78.0447 43.8452C78.0447 43.3662 77.5907 43.0101 76.8785 43.0101C76.1174 43.0101 75.6509 43.4151 75.577 44.0045H74.1776C74.3005 42.8383 75.2459 41.9179 76.8905 41.9179C78.6215 41.9179 79.4191 42.8019 79.4191 44.2382V47.1479C79.4191 47.5774 79.4435 47.9949 79.4925 48.4494H78.1665C78.117 48.2042 78.0931 47.9095 78.0806 47.6268C77.7125 48.1917 76.9514 48.5842 76.1283 48.5842C74.9252 48.5842 73.8944 47.8845 73.8944 46.6689C73.8944 45.3799 74.8643 44.864 76.1283 44.6677L77.4048 44.4714H77.4064ZM75.2209 46.5955C75.2209 47.2093 75.6999 47.5164 76.3381 47.5164C77.2466 47.5164 78.0447 46.9886 78.0447 45.9208V45.3315L76.461 45.6261C75.7733 45.749 75.2209 45.9453 75.2209 46.596V46.5955ZM80.9731 46.7798V43.2199H80.0401V42.0657H80.9731V40.4451H82.3605V42.0657H83.8093V43.2199H82.3605V46.5955C82.3605 47.0989 82.5812 47.2707 83.0477 47.2707H83.8088V48.4494H82.6791C81.6358 48.4494 80.9725 47.934 80.9725 46.7798H80.9731ZM84.825 40.948V39.4872H86.2983V40.948H84.825ZM86.2608 42.0652V48.4488H84.837V42.0652H86.2608ZM93.4358 45.257C93.4358 47.2093 92.1837 48.5962 90.3913 48.5962C88.5988 48.5962 87.3468 47.2093 87.3468 45.257C87.3468 43.3048 88.6113 41.9179 90.3913 41.9179C92.1712 41.9179 93.4358 43.3048 93.4358 45.257ZM88.7706 45.257C88.7706 46.5585 89.36 47.4545 90.3913 47.4545C91.4226 47.4545 92.0119 46.5585 92.0119 45.257C92.0119 43.9555 91.4226 43.0596 90.3913 43.0596C89.36 43.0596 88.7706 43.9555 88.7706 45.257ZM94.4999 48.4488V42.0652H95.9237V42.8997C96.2553 42.3963 96.9056 41.9179 97.8145 41.9179C99.1525 41.9179 99.9995 42.8878 99.9995 44.2871V48.4488H98.5757V44.5698C98.5757 43.6983 98.1706 43.109 97.3111 43.109C96.5989 43.109 95.9237 43.6369 95.9237 44.6557V48.4494H94.4999V48.4488Z" fill="#FDFFF1"/>
<path d="M22.543 50.7827V0H24.7972V50.7827H22.543Z" fill="#FDFFF1"/>
<path d="M18.0352 50.7827V0H20.2894V50.7827H18.0352Z" fill="#FDFFF1"/>
<path d="M13.5273 50.7843V22.1433H15.7816V50.7843H13.5273Z" fill="#FDFFF1"/>
<path d="M9.01562 50.7843V22.1433H11.2698V50.7843H9.01562Z" fill="#FDFFF1"/>
<path d="M4.50781 50.7843V22.1433H6.76202V50.7843H4.50781Z" fill="#FDFFF1"/>
<path d="M0 50.7843V22.1433H2.25421V50.7843H0Z" fill="#FDFFF1"/>
<path d="M27.0508 50.7827V0H29.305V50.7827H27.0508Z" fill="#FDFFF1"/>
<path d="M15.7784 0.00158691H0.0546875V22.1433H15.7779V0.00158691H15.7784ZM12.3352 2.82794L12.7428 3.36208L13.4024 3.158L12.9948 3.69162L13.4024 4.22575L12.7428 4.02168L12.3352 4.5553V3.89569L11.6756 3.69162L12.3352 3.48754V2.82794ZM13.4024 7.83717L12.7428 7.6331L12.3352 8.16724V7.50763L11.6756 7.30356L12.3352 7.09948V6.43988L12.7428 6.97349L13.4024 6.76942L12.9948 7.30356L13.4024 7.83717ZM13.4024 11.6063L12.7428 11.4023L12.3352 11.9359V11.2763L11.6756 11.0722L12.3352 10.8681V10.2085L12.7428 10.7421L13.4024 10.5381L12.9948 11.0722L13.4024 11.6063ZM13.4024 15.2479L12.7428 15.0626L12.3352 15.5478V14.9481L11.6756 14.7627L12.3352 14.5774V13.9777L12.7428 14.4634L13.4024 14.2781L12.9948 14.7633L13.4024 15.249V15.2479ZM11.8323 17.1023L11.1727 16.8983L10.765 17.4319V16.7723L10.1054 16.5682L10.765 16.3641V15.7045L11.1727 16.2381L11.8323 16.0341L11.4246 16.5682L11.8323 17.1023ZM8.53478 14.7627L9.19438 14.5774V13.9777L9.60201 14.4634L10.2616 14.2781L9.85399 14.7633L10.2616 15.249L9.60201 15.0637L9.19438 15.5489V14.9491L8.53478 14.7638V14.7627ZM8.69148 17.1023L8.03188 16.8983L7.62425 17.4319V16.7723L6.96464 16.5682L7.62425 16.3641V15.7045L8.03188 16.2381L8.69148 16.0341L8.28385 16.5682L8.69148 17.1023ZM5.39399 14.7627L6.05359 14.5774V13.9777L6.46122 14.4634L7.12082 14.2781L6.71319 14.7633L7.12082 15.249L6.46122 15.0637L6.05359 15.5489V14.9491L5.39399 14.7638V14.7627ZM5.55121 17.1023L4.8916 16.8983L4.48397 17.4319V16.7723L3.82437 16.5682L4.48397 16.3641V15.7045L4.8916 16.2381L5.55121 16.0341L5.14358 16.5682L5.55121 17.1023ZM2.25371 14.7627L2.91332 14.5774V13.9777L3.32095 14.4634L3.98055 14.2781L3.57292 14.7633L3.98055 15.249L3.32095 15.0637L2.91332 15.5489V14.9491L2.25371 14.7638V14.7627ZM11.8323 6.11034L11.1727 5.90626L10.765 6.43988V5.78027L10.1054 5.5762L10.765 5.37212V4.71252L11.1727 5.24614L11.8323 5.04206L11.4246 5.5762L11.8323 6.11034ZM11.8323 9.72175L11.1727 9.51768L10.765 10.0513V9.39169L10.1054 9.18762L10.765 8.98354V8.32394L11.1727 8.85807L11.8323 8.654L11.4246 9.18762L11.8323 9.72175ZM11.8323 13.4904L11.1727 13.2863L10.765 13.8205V13.1609L10.1054 12.9568L10.765 12.7527V12.0931L11.1727 12.6267L11.8323 12.4226L11.4246 12.9568L11.8323 13.4904ZM8.53478 11.0722L9.19438 10.8681V10.2085L9.60201 10.7421L10.2616 10.5381L9.85399 11.0722L10.2616 11.6063L9.60201 11.4023L9.19438 11.9359V11.2763L8.53478 11.0722ZM8.69148 13.4904L8.03188 13.2863L7.62425 13.8205V13.1609L6.96464 12.9568L7.62425 12.7527V12.0931L8.03188 12.6267L8.69148 12.4226L8.28385 12.9568L8.69148 13.4904ZM5.39399 11.0722L6.05359 10.8681V10.2085L6.46122 10.7421L7.12082 10.5381L6.71319 11.0722L7.12082 11.6063L6.46122 11.4023L6.05359 11.9359V11.2763L5.39399 11.0722ZM5.55121 13.4904L4.8916 13.2863L4.48397 13.8205V13.1609L3.82437 12.9568L4.48397 12.7527V12.0931L4.8916 12.6267L5.55121 12.4226L5.14358 12.9568L5.55121 13.4904ZM5.55121 9.72175L4.8916 9.51768L4.48397 10.0513V9.39169L3.82437 9.18762L4.48397 8.98354V8.32394L4.8916 8.85807L5.55121 8.654L5.14358 9.18762L5.55121 9.72175ZM8.69148 9.72175L8.03188 9.51768L7.62425 10.0513V9.39169L6.96464 9.18762L7.62425 8.98354V8.32394L8.03188 8.85807L8.69148 8.654L8.28385 9.18762L8.69148 9.72175ZM10.2621 6.76942L9.85451 7.30356L10.2621 7.83717L9.60254 7.6331L9.1949 8.16724V7.50763L8.5353 7.30356L9.1949 7.09948V6.43988L9.60254 6.97349L10.2621 6.76942ZM8.69148 6.11034L8.03188 5.90626L7.62425 6.43988V5.78027L6.96464 5.5762L7.62425 5.37212V4.71252L8.03188 5.24614L8.69148 5.04206L8.28385 5.5762L8.69148 6.11034ZM7.12134 6.76942L6.71371 7.30356L7.12134 7.83717L6.46174 7.6331L6.05411 8.16724V7.50763L5.39451 7.30356L6.05411 7.09948V6.43988L6.46174 6.97349L7.12134 6.76942ZM5.55121 6.11034L4.8916 5.90626L4.48397 6.43988V5.78027L3.82437 5.5762L4.48397 5.37212V4.71252L4.8916 5.24614L5.55121 5.04206L5.14358 5.5762L5.55121 6.11034ZM3.98107 6.76942L3.57344 7.30356L3.98107 7.83717L3.32147 7.6331L2.91384 8.16724V7.50763L2.25423 7.30356L2.91384 7.09948V6.43988L3.32147 6.97349L3.98107 6.76942ZM2.91332 10.2085L3.32095 10.7421L3.98055 10.5381L3.57292 11.0722L3.98055 11.6063L3.32095 11.4023L2.91332 11.9359V11.2763L2.25371 11.0722L2.91332 10.8681V10.2085ZM10.765 1.60348V0.943877L11.1727 1.47749L11.8323 1.27342L11.4246 1.80756L11.8323 2.34117L11.1727 2.1371L10.765 2.67124V2.01163L10.1054 1.80756L10.765 1.60348ZM9.1949 2.82794L9.60254 3.36208L10.2621 3.158L9.85451 3.69162L10.2621 4.22575L9.60254 4.02168L9.1949 4.5553V3.89569L8.5353 3.69162L9.1949 3.48754V2.82794ZM7.62425 1.60348V0.943877L8.03188 1.47749L8.69148 1.27342L8.28385 1.80756L8.69148 2.34117L8.03188 2.1371L7.62425 2.67124V2.01163L6.96464 1.80756L7.62425 1.60348ZM6.05359 2.82794L6.46122 3.36208L7.12082 3.158L6.71319 3.69162L7.12082 4.22575L6.46122 4.02168L6.05359 4.5553V3.89569L5.39399 3.69162L6.05359 3.48754V2.82794ZM4.48345 1.60348V0.943877L4.89108 1.47749L5.55069 1.27342L5.14305 1.80756L5.55069 2.34117L4.89108 2.1371L4.48345 2.67124V2.01163L3.82385 1.80756L4.48345 1.60348ZM2.91332 2.82794L3.32095 3.36208L3.98055 3.158L3.57292 3.69162L3.98055 4.22575L3.32095 4.02168L2.91332 4.5553V3.89569L2.25371 3.69162L2.91332 3.48754V2.82794ZM1.34266 1.60348V0.943877L1.75029 1.47749L2.40989 1.27342L2.00226 1.80756L2.40989 2.34117L1.75029 2.1371L1.34266 2.67124V2.01163L0.683055 1.80756L1.34266 1.60348ZM1.34266 5.37212V4.71252L1.75029 5.24614L2.40989 5.04206L2.00226 5.5762L2.40989 6.11034L1.75029 5.90626L1.34266 6.43988V5.78027L0.683055 5.5762L1.34266 5.37212ZM1.34266 8.98406V8.32446L1.75029 8.8586L2.40989 8.65452L2.00226 9.18814L2.40989 9.72227L1.75029 9.5182L1.34266 10.0518V9.39221L0.683055 9.18814L1.34266 8.98406ZM1.34266 12.7527V12.0931L1.75029 12.6267L2.40989 12.4226L2.00226 12.9568L2.40989 13.4904L1.75029 13.2863L1.34266 13.8205V13.1609L0.683055 12.9568L1.34266 12.7527ZM1.34266 16.3646V15.705L1.75029 16.2387L2.40989 16.0346L2.00226 16.5687L2.40989 17.1029L1.75029 16.8988L1.34266 17.4324V16.7728L0.683055 16.5687L1.34266 16.3646ZM2.41041 20.8715L1.75081 20.6674L1.34318 21.201V20.5409L0.683575 20.3368L1.34318 20.1328V19.4732L1.75081 20.0073L2.41041 19.8032L2.00278 20.3368L2.41041 20.871V20.8715ZM2.91332 19.3165V18.6569L2.25371 18.4528L2.91332 18.2487V17.5891L3.32095 18.1227L3.98055 17.9186L3.57292 18.4528L3.98055 18.9864L3.32095 18.7823L2.91332 19.3165ZM5.55121 20.8715L4.8916 20.6674L4.48397 21.201V20.5409L3.82437 20.3368L4.48397 20.1328V19.4732L4.8916 20.0073L5.55121 19.8032L5.14358 20.3368L5.55121 20.871V20.8715ZM6.05359 19.3165V18.6569L5.39399 18.4528L6.05359 18.2487V17.5891L6.46122 18.1227L7.12082 17.9186L6.71319 18.4528L7.12082 18.9864L6.46122 18.7823L6.05359 19.3165ZM8.69148 20.8715L8.03188 20.6674L7.62425 21.201V20.5409L6.96464 20.3368L7.62425 20.1328V19.4732L8.03188 20.0073L8.69148 19.8032L8.28385 20.3368L8.69148 20.871V20.8715ZM9.1949 19.3165V18.6569L8.5353 18.4528L9.1949 18.2487V17.5891L9.60254 18.1227L10.2621 17.9186L9.85451 18.4528L10.2621 18.9864L9.60254 18.7823L9.1949 19.3165ZM11.8323 20.8715L11.1727 20.6674L10.765 21.201V20.5409L10.1054 20.3368L10.765 20.1328V19.4732L11.1727 20.0073L11.8323 19.8032L11.4246 20.3368L11.8323 20.871V20.8715ZM12.3352 19.3165V18.6569L11.6756 18.4528L12.3352 18.2487V17.5891L12.7428 18.1227L13.4024 17.9186L12.9948 18.4528L13.4024 18.9864L12.7428 18.7823L12.3352 19.3165ZM14.9731 20.8715L14.3135 20.6674L13.9058 21.201V20.5409L13.2462 20.3368L13.9058 20.1328V19.4732L14.3135 20.0073L14.9731 19.8032L14.5654 20.3368L14.9731 20.871V20.8715ZM14.9731 17.1023L14.3135 16.8983L13.9058 17.4319V16.7723L13.2462 16.5682L13.9058 16.3641V15.7045L14.3135 16.2381L14.9731 16.0341L14.5654 16.5682L14.9731 17.1023ZM14.9731 13.4904L14.3135 13.2863L13.9058 13.8205V13.1609L13.2462 12.9568L13.9058 12.7527V12.0931L14.3135 12.6267L14.9731 12.4226L14.5654 12.9568L14.9731 13.4904ZM14.9731 9.72175L14.3135 9.51768L13.9058 10.0513V9.39169L13.2462 9.18762L13.9058 8.98354V8.32394L14.3135 8.85807L14.9731 8.654L14.5654 9.18762L14.9731 9.72175ZM14.9731 6.11034L14.3135 5.90626L13.9058 6.43988V5.78027L13.2462 5.5762L13.9058 5.37212V4.71252L14.3135 5.24614L14.9731 5.04206L14.5654 5.5762L14.9731 6.11034ZM14.9731 2.34065L14.3135 2.13658L13.9058 2.67072V2.01111L13.2462 1.80704L13.9058 1.60296V0.943357L14.3135 1.47697L14.9731 1.2729L14.5654 1.80704L14.9731 2.34065Z" fill="#FDFFF1"/>
</svg>
