<svg width="277" height="43" viewBox="0 0 277 43" fill="none" xmlns="http://www.w3.org/2000/svg">
<path d="M15.4198 13.2381V28.4486C17.4484 27.3387 18.8689 25.4064 19.5584 23.2274L19.7209 23.31C19.2742 28.7365 15.6225 34.1625 9.94171 34.1625C4.22013 34.1625 0 29.8464 0 22.9394C0 17.7601 3.32729 14.5119 7.5882 11.593C6.96561 11.4276 6.32445 11.3447 5.6808 11.3464C2.75885 11.3464 1.05473 13.3608 1.05473 15.4165H0.811286C0.770512 15.1285 0.770512 14.8412 0.770512 14.5532C0.770512 10.8944 2.6779 6.4544 7.30398 6.4544C10.2661 6.4544 12.5387 9.20869 15.9877 9.20869C17.3674 9.20869 19.0715 8.5508 19.7611 7.02968H19.8828C19.8426 9.70256 19.0313 12.4568 15.4198 13.2381ZM17.6108 28.8185C15.5817 30.9969 13.3907 32.8473 10.5503 32.8473C5.27546 32.8473 1.21783 28.6539 1.21783 22.5695C1.21783 18.9933 2.6785 17.0615 4.30168 14.7999H4.13918C3.12462 15.8277 0.446717 18.4174 0.446717 22.8161C0.446717 29.5584 4.62607 33.7105 10.1042 33.7105C13.9184 33.7105 16.5153 31.0389 17.6924 28.8598L17.6108 28.8185ZM19.2334 8.88065C18.5439 10.1958 17.0832 11.881 14.1211 11.881C11.1589 11.881 8.44026 9.82527 6.04597 9.82527C3.85436 9.82527 2.35351 11.3057 1.78507 12.4155L1.82584 12.4982C2.59696 11.7169 3.77341 10.9357 5.6808 10.9357C8.8456 10.9357 10.8747 12.9094 14.0803 12.9094C17.4891 12.9094 19.0308 10.6478 19.315 8.92196L19.2334 8.88065ZM7.95276 11.7169C5.88348 13.896 3.97608 16.2803 3.97608 20.9256C3.97608 23.474 4.82814 26.105 6.73554 27.7494L7.91199 27.1322V16.1157L6.81648 16.6909L6.61381 16.2797L12.2946 13.1548C10.753 12.8268 9.37327 12.1282 7.95276 11.7169ZM14.9731 13.3201C14.6889 13.3608 14.4053 13.3608 14.0803 13.3608C13.5124 13.3608 12.9848 13.3201 12.4571 13.1961V25.1998L7.14148 28.1199C8.23698 28.9419 9.57594 29.4351 11.2801 29.4351C12.6598 29.4351 13.877 29.1472 14.9725 28.6539L14.9731 13.3201ZM9.12982 15.4171L8.35871 15.869V26.8868L9.12982 26.4755V15.4171ZM32.4622 16.9789V31.2029C32.4622 35.149 29.0132 37.8219 25.1583 38.6025L25.0773 38.4379C26.9847 37.492 28.0802 35.5603 28.0802 33.5046V18.7873L25.8892 16.7736L25.0371 17.7188V29.1885L26.2544 30.2983V30.381L22.9679 33.9985L19.1944 30.5043V30.3397L20.6551 28.7772V10.6071L24.9562 5.96235L25.0371 6.00305V17.0202L28.5677 13.1561L32.2602 16.5275L32.9497 15.787L33.2747 16.0756L32.4622 16.9789ZM21.1006 30.4217V30.3397L21.9527 29.4758V9.90789L21.1006 10.813V29.0652L19.8019 30.381V30.463L22.9667 33.3406L23.5345 32.6827L21.1006 30.4217ZM29.3784 18.1294L26.7407 15.8277L26.1728 16.4443L28.5263 18.5826V33.3819C28.5263 34.3684 28.3237 35.3956 27.9585 35.9715L27.9993 36.0128C29.0138 35.2723 29.379 34.1625 29.379 32.724V18.1294H29.3784ZM38.9142 25.2417V27.3381L42.8501 30.4624L45.1226 27.996L45.4476 28.3247L40.1728 34.0386L34.8164 29.6811L34.0051 30.5444L33.6801 30.2157L34.6137 29.2292V18.8286L42.2828 13.1554L46.3003 19.7332L38.9142 25.2417ZM35.9113 28.8598V18.4174L35.0592 19.0346V29.2711L40.0912 33.4232L40.7406 32.7246L35.9113 28.8598ZM38.9957 16.1977L38.9142 16.239V24.6665L42.5257 21.9942L38.9957 16.1977ZM40.0504 15.3758L39.3201 15.9097L42.8914 21.7062L43.6218 21.1717L40.0504 15.3758ZM72.7501 33.9979L67.1095 29.0646L62.8084 33.9979L56.9651 28.8999V20.843H55.8289C54.8143 20.843 54.2872 21.5009 54.0432 22.2815H53.9215C53.792 21.7711 53.7239 21.2467 53.7188 20.7197C53.7188 19.6506 54.003 16.8556 56.9651 16.8556V9.78457C56.9651 8.42809 55.3827 7.89351 55.3827 6.08445C55.3827 3.74204 57.5737 1.43971 61.5912 0L61.7537 0.123317C60.293 0.987144 59.5219 1.80906 59.5219 3.5768C59.5219 6.29039 62.1189 5.59118 62.1189 9.86658V11.511L66.8667 6.4544L71.8579 11.4284L76.5649 6.4544L81.1094 10.9764V26.187L72.7501 33.9979ZM58.2639 28.2427V19.5691H55.9913C54.8143 19.5691 54.2872 20.3498 54.2057 21.049L54.2459 21.0903C54.6518 20.6383 55.0577 20.3917 55.9907 20.3917H57.4107V28.6958L62.7671 33.3825L63.3757 32.642L58.2639 28.2427ZM58.2639 9.37331C58.2639 7.68818 56.8032 7.1123 56.8032 6.04375C56.8032 4.56334 57.3711 3.33078 58.2639 2.17961L58.183 2.13891C56.9657 3.08475 55.8295 4.60586 55.8295 6.08506C55.8295 7.56547 57.4118 8.26407 57.4118 9.57985V16.8562H58.2639V9.37331ZM66.8259 13.4847L63.742 10.4425L62.1189 12.1276V26.6802L65.8113 29.8458L66.8259 28.6946V13.4847ZM68.1241 28.1606V12.9094L64.675 9.45593L64.0257 10.1138L67.272 13.2788V28.6126L72.7501 33.4226L73.3995 32.8054L68.1241 28.1606ZM75.9965 12.9501L73.4403 10.4832L71.9796 12.0043V26.6395L75.9563 30.1744L75.9965 30.1337V12.9501ZM77.2947 12.3748L74.3325 9.45593L73.7239 10.1138L76.4426 12.7448V29.9284L77.2947 29.1059V12.3748ZM94.5367 33.9979L90.6818 30.4624L87.2328 33.9979L83.0126 30.2157L82.4442 30.8323L82.1198 30.5037L82.8501 29.7225V18.7059L90.4791 13.1147L94.8617 16.5682L95.6329 15.7457L95.9578 16.075L95.065 17.0202V28.4079L97.2152 30.4217L97.9054 29.6818L98.2298 29.9697L94.5367 33.9979ZM84.1489 29.4351V18.3354L83.2969 18.952V29.8464L87.1926 33.3819L87.842 32.724L84.1489 29.4351ZM90.6818 18.6233L87.3545 15.9923L87.2328 16.075V28.0373L89.9922 30.4624L90.6818 29.7638V18.6233ZM91.9806 29.8051V18.0067L88.5315 15.1698L87.7203 15.7451L91.1285 18.4587V30.2157L94.5373 33.34L95.146 32.6821L91.9806 29.8051ZM106.345 20.5964H110.524V29.3938L104.073 33.9979C103.22 33.0113 102.003 32.3127 100.502 32.3127C99.2845 32.3127 98.3101 32.724 97.012 33.8338L96.8093 33.7512L102.328 25.6117H98.9194V17.9654L105.696 13.1968C106.508 13.8546 107.116 14.224 108.172 14.224C108.983 14.224 110.16 14.0594 111.053 13.3201L111.215 13.4021L106.345 20.5964ZM101.801 31.1203C100.623 31.1203 99.6905 31.5315 98.8786 32.1068V32.1894C99.528 31.9015 100.177 31.8195 100.786 31.8195C101.719 31.8195 103.18 32.272 104.154 33.4232L105.088 32.7246C104.316 31.8195 103.383 31.1203 101.801 31.1203ZM106.142 24.2139H103.869L99.1214 31.1622L99.1622 31.2442C100.339 30.381 101.475 29.8057 102.855 29.8057C104.072 29.8057 105.33 30.381 106.101 31.3675L106.142 31.3268V24.2139ZM100.218 24.2139V17.5961L99.3655 18.2127V25.119H102.652L103.301 24.2145L100.218 24.2139ZM108.699 16.1564C107.847 16.7736 107.36 17.1022 105.939 17.1022C105.127 17.1022 104.153 16.7322 103.383 15.9097L103.302 15.951V21.9529H104.844L108.739 16.1971L108.699 16.1564ZM106.751 15.7864C106.021 15.7864 105.088 15.4171 104.478 14.5945L103.464 15.2931C104.235 16.239 104.965 16.6496 106.101 16.6496C106.831 16.6496 107.887 16.4437 108.982 15.4979L109.022 15.3752C108.333 15.6637 107.481 15.7864 106.751 15.7864ZM107.441 22.858H104.803L104.194 23.7212H106.589V31.6961L107.441 31.0796V22.858ZM124.524 16.9789V31.2029C124.524 35.149 121.075 37.8219 117.22 38.6025L117.139 38.4379C119.046 37.492 120.142 35.5603 120.142 33.5046V18.7873L117.951 16.7736L117.099 17.7188V29.1885L118.316 30.2983V30.381L115.029 33.9985L111.256 30.5043V30.3397L112.717 28.7772V10.6071L117.018 5.96235L117.099 6.00305V17.0202L120.629 13.1561L124.322 16.5275L125.011 15.787L125.336 16.0756L124.524 16.9789ZM113.162 30.4217V30.3397L114.014 29.4758V9.90789L113.162 10.8124V29.0646L111.863 30.3804V30.4624L115.028 33.34L115.596 32.6821L113.162 30.4217ZM121.44 18.1294L118.802 15.8277L118.234 16.4443L120.588 18.5826V33.3819C120.588 34.3684 120.385 35.3956 120.02 35.9715L120.061 36.0128C121.075 35.2723 121.441 34.1625 121.441 32.724L121.44 18.1294ZM131.909 33.9979L128.419 30.7503L127.608 31.6135L127.283 31.2843L128.216 30.257V18.3767L126.512 16.7322L125.863 17.4728L125.538 17.1435L129.189 13.1147L132.436 16.075L133.248 15.1704L133.613 15.4584L132.598 16.5682V28.5725L134.546 30.4223L135.439 29.4764L135.764 29.8057L131.909 33.9979ZM129.515 29.9697V17.7188L127.405 15.7457L126.837 16.4036L128.663 18.1714V30.381L131.909 33.3406L132.518 32.6827L129.515 29.9697ZM130.732 12.7861L127.405 9.70317L130.449 6.41431L133.776 9.49724L130.732 12.7861ZM128.663 9.04467L128.054 9.66126L130.691 12.1689L131.3 11.4703L128.663 9.04467ZM149.067 33.9979L145.537 30.7503V18.7466L143.386 16.7736L142.25 18.0067V29.1059L143.508 30.2977V30.4624L140.18 33.9979L136.406 30.5037V30.3804L137.868 28.8185V18.4587L135.96 16.6909L135.189 17.5542L134.865 17.2255L138.557 13.1554L142.25 16.4856V17.3075L146.105 13.1554L149.716 16.4443L150.527 15.5811L150.893 15.9097L149.919 16.9376V28.6946L151.745 30.4211L152.638 29.4345L152.962 29.7632L149.067 33.9979ZM138.355 30.4217V30.3397C138.355 30.4217 139.166 29.5171 139.166 29.5171V17.8415L136.853 15.7038L136.285 16.3204L138.314 18.2114V29.064L137.056 30.3797V30.4618L140.18 33.3394L140.829 32.6408L138.355 30.4217ZM146.835 30.093V18.048L144.32 15.7457L143.67 16.4443L145.983 18.5407V30.5037L149.026 33.3813L149.675 32.6821L146.835 30.093ZM160.51 41.3975C159.172 39.9177 158.238 39.3011 156.98 39.3011C155.641 39.3011 154.099 39.8357 152.516 40.6989L152.395 40.5762L157.995 33.9985L154.018 30.7922L153.247 31.6147L152.922 31.3268L153.815 30.3403V18.7059L161.525 13.1147L165.826 16.5682L166.557 15.7457L166.881 16.075L166.029 17.0202V31.0802C166.029 33.2179 167.205 33.1359 167.205 34.7384C167.205 36.5881 164.568 38.3146 160.51 41.3975ZM155.113 30.0104V18.3767L154.261 18.9939V30.381L158.278 33.6698L158.887 32.9293L155.113 30.0104ZM157.954 38.2326C156.615 38.2326 155.397 38.6438 154.261 39.4244V39.507C154.992 39.2191 155.803 38.8491 157.183 38.8491C158.441 38.8491 159.495 39.5477 160.551 40.7815L161.363 40.1236C160.347 38.9318 159.13 38.2326 157.954 38.2326ZM162.904 34.2858C161.89 33.6279 161.646 32.9293 161.646 31.1616V30.4211L154.91 38.314L154.951 38.3547C156.249 37.5741 157.426 36.9988 159.334 36.9988C160.957 36.9988 162.052 37.6561 163.31 38.7252C164.081 38.0673 164.608 37.41 164.608 36.3822C164.608 35.5603 163.918 34.9437 162.904 34.2858ZM161.646 18.6233L158.278 15.9516L158.197 16.0337V28.6539L160.794 30.7096L161.646 29.7231V18.6233ZM164.121 33.7105C163.066 32.888 162.944 32.1894 162.944 30.4217V17.9247L159.536 15.1291L158.765 15.6637L162.092 18.3354V30.9969C162.092 32.7647 162.174 33.2586 163.269 33.9979C164.243 34.6557 165.014 35.3543 165.014 36.3002C165.014 36.5462 164.974 36.9575 164.974 36.9575L165.014 36.9988C165.217 36.7928 165.46 36.4642 165.46 35.9296C165.461 35.0257 165.014 34.4091 164.121 33.7105ZM173.861 33.9979L170.127 31.0382L169.356 31.9015L169.032 31.5722L169.924 30.5857V16.1977H167.57L167.489 16.1157L168.909 13.9774H169.923V11.2237L174.225 6.57833L174.306 6.66095V13.978H177.552L177.634 14.0606L176.213 16.1983H174.306V28.6545L176.538 30.3816L177.39 29.4357L177.715 29.7644L173.861 33.9979ZM171.223 10.5245L170.371 11.4703V13.978H171.223V10.5245ZM171.223 30.175V16.1977H170.371V30.6683L173.82 33.3819L174.428 32.724L171.223 30.175ZM190.984 17.3901V28.9005L184.126 34.0392L178.972 30.093L178.364 30.7916L178.039 30.4624L178.77 29.6404V18.3767L185.952 13.1554L190.74 16.9382L191.511 16.1157L191.836 16.4443L190.984 17.3901ZM180.069 29.2298V18.0067L179.216 18.6233V29.6818L184.086 33.4639L184.857 32.8886L180.069 29.2298ZM186.602 18.7466L183.193 16.033L183.153 16.0744V28.3247L186.602 30.9556V18.7466ZM187.901 18.0067L184.127 15.0465L183.356 15.6218L187.049 18.4994V31.2849L187.901 30.6276V18.0067ZM206.485 33.9979L202.955 30.7503V18.7466L200.804 16.7736L199.668 18.0067V29.1059L200.926 30.2977V30.4624L197.598 33.9979L193.824 30.5037V30.3804L195.286 28.8185V18.4587L193.378 16.6909L192.607 17.5542L192.283 17.2255L195.975 13.1554L199.668 16.4856V17.3075L203.523 13.1554L207.134 16.4443L207.945 15.5811L208.311 15.9097L207.337 16.9376V28.6946L209.163 30.4211L210.055 29.4345L210.38 29.7632L206.485 33.9979ZM195.772 30.4217V30.3397C195.772 30.4217 196.584 29.5171 196.584 29.5171V17.8415L194.271 15.7038L193.703 16.3204L195.732 18.2114V29.064L194.474 30.3797V30.4618L197.599 33.3394L198.248 32.6408L195.772 30.4217ZM204.253 30.093V18.048L201.737 15.7457L201.088 16.4443L203.401 18.5407V30.5037L206.444 33.3813L207.093 32.6821L204.253 30.093ZM231.553 33.9979C230.417 32.7647 230.011 32.3534 228.672 31.9835V40.041L228.59 40.0817L226.967 38.6013L222.26 43L222.179 42.9593V31.9015C220.759 32.2301 219.257 32.9706 217.796 34.4498L217.715 34.4091C217.999 31.2436 219.541 28.9005 222.178 27.996V19.9798H221.326C220.149 19.9798 219.5 20.5964 218.932 21.7062H218.81C218.689 21.3369 218.607 20.7604 218.607 19.8158C218.607 18.0887 219.865 16.2803 221.935 16.2803H222.178V11.8403L220.515 10.3191L219.703 11.1417L219.418 10.8537L223.517 6.45501L227.331 9.99051V13.7313L228.224 12.7448V8.01683H228.67V12.3335L234.067 6.4544L238.652 10.6891V28.5719L231.553 33.9979ZM222.18 30.3804C220.516 30.709 219.34 31.7368 218.569 33.0933L218.609 33.1759C219.746 32.1894 220.8 31.7374 222.18 31.4082V30.3804ZM223.478 18.5826H221.247C219.704 18.5826 219.096 19.5691 219.056 20.7203L219.096 20.761C219.583 19.9385 220.07 19.6512 221.043 19.5284H222.626V41.9327L223.478 41.1101V18.5826ZM223.478 11.1824L221.449 9.29191L220.8 9.99051L222.626 11.6343V16.2797H223.478V11.1824ZM228.226 13.5254L227.333 14.4712V38.2739L228.226 39.0964V13.5254ZM233.542 12.5802L231.148 10.3605L228.672 13.074V27.5441C230.782 27.75 232.243 28.3666 233.501 29.7638L233.542 29.7231V12.5802ZM228.672 30.3804V31.4495C230.052 31.7781 230.62 32.1894 231.594 33.34L232.527 32.6001C231.553 31.3669 230.579 30.6276 228.672 30.3804ZM234.84 11.9229L232.081 9.33261L231.431 10.0312L233.988 12.4155V31.5315L234.84 30.8736V11.9229ZM252.816 17.3901V28.9005L245.958 34.0392L240.805 30.093L240.195 30.7916L239.871 30.4624L240.601 29.6404V18.3767L247.784 13.1554L252.572 16.9382L253.343 16.1157L253.668 16.4443L252.816 17.3901ZM241.901 29.2298V18.0067L241.048 18.6233V29.6818L245.917 33.4639L246.689 32.8886L241.901 29.2298ZM248.434 18.7466L245.025 16.033L244.984 16.0744V28.3247L248.434 30.9556V18.7466ZM249.732 18.0067L245.958 15.0465L245.188 15.6218L248.88 18.4994V31.2849L249.732 30.6276V18.0067ZM262.23 20.5964H266.41V29.3938L259.958 33.9979C259.106 33.0113 257.888 32.3127 256.387 32.3127C255.17 32.3127 254.196 32.724 252.897 33.8338L252.694 33.7512L258.213 25.6117H254.804V17.9654L261.581 13.1968C262.393 13.8546 263.001 14.224 264.056 14.224C264.868 14.224 266.044 14.0594 266.937 13.3201L267.1 13.4021L262.23 20.5964ZM257.685 31.1203C256.509 31.1203 255.575 31.5315 254.764 32.1068V32.1894C255.413 31.9015 256.062 31.8195 256.671 31.8195C257.605 31.8195 259.065 32.272 260.039 33.4232L260.972 32.7246C260.202 31.8195 259.268 31.1203 257.685 31.1203ZM262.027 24.2139H259.755L255.008 31.1622L255.048 31.2442C256.224 30.381 257.361 29.8057 258.74 29.8057C259.958 29.8057 261.216 30.381 261.987 31.3675L262.027 31.3268L262.027 24.2139ZM256.103 24.2139V17.5961L255.251 18.2127V25.119H258.537L259.186 24.2145L256.103 24.2139ZM264.584 16.1564C263.731 16.7736 263.245 17.1022 261.824 17.1022C261.012 17.1022 260.038 16.7322 259.267 15.9097L259.186 15.951V21.9529H260.728L264.623 16.1971L264.584 16.1564ZM262.635 15.7864C261.905 15.7864 260.972 15.4171 260.364 14.5945L259.349 15.2931C260.12 16.239 260.85 16.6496 261.987 16.6496C262.717 16.6496 263.772 16.4437 264.868 15.4979L264.908 15.3752C264.219 15.6637 263.366 15.7864 262.635 15.7864ZM263.326 22.858H260.689L260.08 23.7212H262.474V31.6961L263.326 31.0796V22.858ZM273.146 33.9979L269.412 31.0382L268.641 31.9015L268.317 31.5722L269.209 30.5857V16.1977H266.856L266.775 16.1157L268.195 13.9774H269.209V11.2237L273.51 6.57833L273.592 6.66095V13.978H276.838L276.919 14.0606L275.499 16.1983H273.592V28.6545L275.824 30.3816L276.676 29.4357L277 29.7644L273.146 33.9979ZM270.508 10.5245L269.656 11.4703V13.978H270.508V10.5245ZM270.508 30.175V16.1977H269.656V30.6683L273.105 33.3819L273.714 32.724L270.508 30.175Z" fill="#302D2D"/>
</svg>
