<svg width="100" height="51" viewBox="0 0 100 51" fill="none" xmlns="http://www.w3.org/2000/svg">
<path d="M43.017 1.31417H40.0584V8.9573H38.5851V1.31417H35.6385V0.00155926H43.0165V1.31417H43.017ZM43.9083 8.9573V0.00155926H45.3321V3.41186C45.6637 2.90877 46.314 2.43065 47.2224 2.43065C48.5604 2.43065 49.4079 3.39989 49.4079 4.79835V8.9573H47.9841V5.08033C47.9841 4.20942 47.579 3.62048 46.7195 3.62048C46.0073 3.62048 45.3326 4.14803 45.3326 5.16617V8.95678H43.9088L43.9083 8.9573ZM56.2408 6.93297C56.0321 8.22113 54.9888 9.10453 53.4785 9.10453C51.6861 9.10453 50.434 7.74302 50.434 5.78008C50.434 3.81714 51.735 2.43065 53.4785 2.43065C55.3074 2.43065 56.3267 3.84159 56.3267 5.62036C56.3267 5.78008 56.3142 5.93928 56.2778 6.12345H51.7725C51.8828 7.38716 52.607 7.97609 53.491 7.97609C54.301 7.97609 54.8045 7.57133 54.9518 6.93349H56.2408V6.93297ZM53.4665 3.57158C52.5091 3.57158 51.9932 4.23387 51.8214 5.1053H54.9518C54.9393 4.29578 54.4119 3.57158 53.4665 3.57158ZM38.9781 13.1548H40.6232L44.1097 22.1105H42.5385L41.6546 19.7797H37.8859L37.0144 22.1105H35.4922L38.9787 13.1548H38.9781ZM39.7637 14.7863L38.3763 18.491H41.1631L39.7637 14.7863ZM44.975 22.1105V15.7311H46.3988V16.5531C46.7055 16.0625 47.3687 15.5838 48.2402 15.5838C48.9274 15.5838 49.6151 15.9517 49.9712 16.5531C50.3762 16.0255 51.0514 15.5838 51.9724 15.5838C53.3348 15.5838 54.1699 16.5406 54.1699 17.9515V22.1105H52.746V18.1846C52.746 17.3751 52.3779 16.7737 51.5799 16.7737C50.9291 16.7737 50.2784 17.3012 50.2784 18.2705V22.1105H48.8545V18.1846C48.8545 17.3751 48.4984 16.7737 47.6884 16.7737C47.0376 16.7737 46.3993 17.3012 46.3993 18.2705V22.1105H44.9755H44.975ZM61.0121 20.0862C60.8034 21.3743 59.7601 22.2577 58.2498 22.2577C56.4574 22.2577 55.2053 20.8962 55.2053 18.9333C55.2053 16.9703 56.5063 15.5838 58.2498 15.5838C60.0787 15.5838 61.098 16.9948 61.098 18.7735C61.098 18.9333 61.0855 19.0925 61.0491 19.2766H56.5438C56.6542 20.5403 57.3783 21.1293 58.2623 21.1293C59.0724 21.1293 59.5758 20.7245 59.7231 20.0867H61.0121V20.0862ZM58.2379 16.7248C57.2805 16.7248 56.7645 17.3871 56.5927 18.2585H59.7231C59.7106 17.449 59.1833 16.7248 58.2379 16.7248ZM65.8251 15.6822V17.0806H65.506C64.3518 17.0806 63.6032 17.8537 63.6032 18.9208V22.1105H62.1668V15.7311H63.6032V16.9578C63.9468 16.1603 64.6959 15.6822 65.5674 15.6822H65.8251ZM66.6742 14.6146V13.1548H68.1475V14.6146H66.6742ZM68.1106 15.7311V22.1105H66.6867V15.7311H68.1106ZM69.196 18.9208C69.196 16.9334 70.5095 15.5838 72.216 15.5838C73.7627 15.5838 74.6712 16.4917 74.8555 17.6696H73.4561C73.3088 17.0806 72.8543 16.7248 72.216 16.7248C71.2342 16.7248 70.6204 17.5957 70.6204 18.9208C70.6204 20.2459 71.2342 21.1168 72.216 21.1168C72.8543 21.1168 73.3457 20.7609 73.4806 20.0862H74.88C74.6957 21.3624 73.6893 22.2577 72.1916 22.2577C70.485 22.2577 69.196 20.9082 69.196 18.9208ZM79.013 18.1357C79.4305 18.0743 79.6513 17.8782 79.6513 17.5098C79.6513 17.0312 79.1968 16.6753 78.4851 16.6753C77.724 16.6753 77.2576 17.0801 77.1836 17.669H75.7842C75.9071 16.5037 76.8525 15.5833 78.4971 15.5833C80.2281 15.5833 81.0257 16.4667 81.0257 17.9021V20.8098C81.0257 21.2391 81.0502 21.6563 81.0996 22.1105H79.7736C79.7247 21.8654 79.6997 21.571 79.6877 21.2885C79.3191 21.853 78.5585 22.2452 77.736 22.2452C76.5329 22.2452 75.5016 21.546 75.5016 20.3312C75.5016 19.043 76.4714 18.528 77.736 18.3313L79.0125 18.1352L79.013 18.1357ZM76.8275 20.2578C76.8275 20.8712 77.3065 21.1782 77.9447 21.1782C78.8532 21.1782 79.6513 20.6506 79.6513 19.5831V18.9941L78.0676 19.2886C77.3804 19.4114 76.8275 19.6075 76.8275 20.2578ZM82.3912 22.1105V15.7311H83.8151V16.5656C84.1467 16.0625 84.7969 15.5844 85.7054 15.5844C87.0438 15.5844 87.8909 16.5536 87.8909 17.9521V22.111H86.467V18.2346C86.467 17.3636 86.062 16.7747 85.2025 16.7747C84.4903 16.7747 83.8151 17.3023 83.8151 18.3204V22.111H82.3912V22.1105ZM42.0101 26.3079H43.4834V35.2637H42.0101V31.3378H37.5418V35.2637H36.0685V26.3079H37.5418V30.0252H42.0101V26.3079ZM50.673 32.074C50.673 34.0249 49.4209 35.4109 47.6285 35.4109C45.836 35.4109 44.584 34.0249 44.584 32.074C44.584 30.123 45.8485 28.737 47.6285 28.737C49.4084 28.737 50.673 30.123 50.673 32.074ZM46.0078 32.074C46.0078 33.3746 46.5972 34.27 47.6285 34.27C48.6598 34.27 49.2491 33.3746 49.2491 32.074C49.2491 30.7733 48.6598 29.878 47.6285 29.878C46.5972 29.878 46.0078 30.7733 46.0078 32.074ZM57.1383 28.8843V35.2637H55.7145V34.4297C55.3829 34.9328 54.7696 35.4109 53.8731 35.4109C52.5471 35.4109 51.7001 34.4417 51.7001 33.0432V28.8843H53.124V32.7607C53.124 33.6316 53.5165 34.2206 54.3515 34.2206C55.0757 34.2206 55.7145 33.693 55.7145 32.6749V28.8843H57.1383ZM58.0921 33.2394H59.504C59.5774 33.8772 60.1177 34.3189 60.9403 34.3189C61.6155 34.3189 62.1804 34.0125 62.1804 33.4849C62.1804 33.1171 61.9841 32.884 61.4562 32.7732L59.897 32.4418C59.0005 32.2457 58.3133 31.8284 58.3133 30.7608C58.3133 29.6933 59.3077 28.7365 60.818 28.7365C62.4386 28.7365 63.3835 29.5955 63.4939 30.8217H62.107C62.0455 30.2453 61.5791 29.828 60.818 29.828C60.1427 29.828 59.6763 30.1839 59.6763 30.65C59.6763 31.0178 59.9095 31.202 60.327 31.2879L61.9477 31.6312C62.991 31.8518 63.5683 32.4408 63.5683 33.3611C63.5683 34.6123 62.4022 35.4099 60.9413 35.4099C59.2348 35.4099 58.1915 34.4651 58.0931 33.2383L58.0921 33.2394ZM64.5882 27.7678V26.3079H66.0615V27.7678H64.5882ZM66.0245 28.8843V35.2637H64.6007V28.8843H66.0245ZM67.4416 35.2637V28.8843H68.8654V29.7182C69.1971 29.2151 69.8473 28.737 70.7557 28.737C72.0942 28.737 72.9412 29.7063 72.9412 31.1047V35.2637H71.5174V31.3872C71.5174 30.5163 71.1124 29.9274 70.2528 29.9274C69.5407 29.9274 68.866 30.4549 68.866 31.4731V35.2642H67.4421L67.4416 35.2637ZM80.1302 34.6872C80.1302 36.8094 78.6939 37.7422 77.0368 37.7422C75.4656 37.7422 74.287 36.9327 74.1272 35.5831H75.5266C75.6614 36.2579 76.2632 36.6382 77.0368 36.6382C78.1171 36.6382 78.7064 36.0248 78.7064 34.8225V34.1358C78.3748 34.7247 77.6631 35.1784 76.7547 35.1784C75.0726 35.1784 73.9554 33.743 73.9554 31.9522C73.9554 30.1615 75.0726 28.7381 76.7547 28.7381C77.6631 28.7381 78.3628 29.2287 78.7064 29.7807V28.8853H80.1302V34.6883V34.6872ZM78.7673 31.9637C78.7673 30.7125 78.1535 29.8785 77.0858 29.8785C76.018 29.8785 75.3917 30.7005 75.3917 31.9637C75.3917 33.2269 75.993 34.0494 77.0858 34.0494C78.1785 34.0494 78.7673 33.2029 78.7673 31.9637ZM35.6999 43.939C35.6999 41.1785 37.4798 39.3139 39.8371 39.3139C41.8628 39.3139 43.2252 40.4673 43.5074 42.2586H41.9607C41.703 41.2768 41.0522 40.6635 39.8246 40.6635C38.204 40.6635 37.2221 42.0499 37.2221 43.939C37.2221 45.8281 38.204 47.2146 39.8246 47.2146C41.0522 47.2146 41.703 46.6012 41.9607 45.6194H43.5074C43.2252 47.4107 41.8628 48.5641 39.8371 48.5641C37.4798 48.5641 35.6999 46.6995 35.6999 43.939ZM50.2174 45.2272C50.2174 47.1781 48.9654 48.5641 47.173 48.5641C45.3805 48.5641 44.1285 47.1781 44.1285 45.2272C44.1285 43.2762 45.393 41.8902 47.173 41.8902C48.9529 41.8902 50.2174 43.2762 50.2174 45.2272ZM45.5523 45.2272C45.5523 46.5278 46.1416 47.4232 47.173 47.4232C48.2043 47.4232 48.7936 46.5278 48.7936 45.2272C48.7936 43.9265 48.2043 43.0311 47.173 43.0311C46.1416 43.0311 45.5523 43.9265 45.5523 45.2272ZM54.9518 41.9886V43.387H54.6327C53.4785 43.387 52.7299 44.1601 52.7299 45.2272V48.4169H51.2935V42.0375H52.7299V43.2642C53.0735 42.4672 53.8226 41.9886 54.6941 41.9886H54.9518ZM57.2367 47.5215V50.7476H55.8129V42.0375H57.2367V42.9328C57.5928 42.3564 58.317 41.8902 59.2254 41.8902C60.907 41.8902 61.9997 43.387 61.9997 45.2272C61.9997 47.0673 60.907 48.5641 59.2254 48.5641C58.317 48.5641 57.5928 48.098 57.2367 47.5215ZM57.1753 45.2272C57.1753 46.5398 57.8016 47.4232 58.8693 47.4232C59.9371 47.4232 60.5634 46.5398 60.5634 45.2272C60.5634 43.9145 59.9496 43.0311 58.8693 43.0311C57.7891 43.0311 57.1753 43.9145 57.1753 45.2272ZM68.8831 45.2272C68.8831 47.1781 67.6311 48.5641 65.8387 48.5641C64.0462 48.5641 62.7942 47.1781 62.7942 45.2272C62.7942 43.2762 64.0587 41.8902 65.8387 41.8902C67.6186 41.8902 68.8831 43.2762 68.8831 45.2272ZM64.2185 45.2272C64.2185 46.5278 64.8079 47.4232 65.8392 47.4232C66.8705 47.4232 67.4598 46.5278 67.4598 45.2272C67.4598 43.9265 66.8705 43.0311 65.8392 43.0311C64.8079 43.0311 64.2185 43.9265 64.2185 45.2272ZM73.618 41.9886V43.387H73.2989C72.1447 43.387 71.3961 44.1601 71.3961 45.2272V48.4169H69.9597V42.0375H71.3961V43.2642C71.7402 42.4672 72.4888 41.9886 73.3603 41.9886H73.618ZM77.4064 44.4421C77.824 44.3807 78.0447 44.1846 78.0447 43.8162C78.0447 43.3376 77.5907 42.9817 76.8786 42.9817C76.1174 42.9817 75.651 43.3865 75.577 43.9754H74.1777C74.3005 42.81 75.2459 41.8902 76.8905 41.8902C78.6215 41.8902 79.4191 42.7736 79.4191 44.209V47.1167C79.4191 47.546 79.4436 47.9632 79.4925 48.4174H78.1665C78.1171 48.1724 78.0931 47.8779 78.0806 47.5954C77.7126 48.1599 76.9514 48.5521 76.1284 48.5521C74.9253 48.5521 73.8945 47.8529 73.8945 46.6381C73.8945 45.3499 74.8643 44.8344 76.1284 44.6382L77.4049 44.4421H77.4064ZM75.221 46.5648C75.221 47.1781 75.6999 47.4851 76.3382 47.4851C77.2466 47.4851 78.0447 46.9575 78.0447 45.8905V45.3016L76.461 45.596C75.7733 45.7188 75.221 45.9149 75.221 46.5653V46.5648ZM80.9731 46.7489V43.1914H80.0402V42.038H80.9731V40.4184H82.3605V42.038H83.8093V43.1914H82.3605V46.5648C82.3605 47.0678 82.5812 47.2395 83.0477 47.2395H83.8088V48.4174H82.6791C81.6358 48.4174 80.9726 47.9023 80.9726 46.7489H80.9731ZM84.825 40.921V39.4611H86.2983V40.921H84.825ZM86.2609 42.0375V48.4169H84.837V42.0375H86.2609ZM93.4358 45.2272C93.4358 47.1781 92.1838 48.5641 90.3913 48.5641C88.5989 48.5641 87.3468 47.1781 87.3468 45.2272C87.3468 43.2762 88.6114 41.8902 90.3913 41.8902C92.1713 41.8902 93.4358 43.2762 93.4358 45.2272ZM88.7707 45.2272C88.7707 46.5278 89.36 47.4232 90.3913 47.4232C91.4226 47.4232 92.012 46.5278 92.012 45.2272C92.012 43.9265 91.4226 43.0311 90.3913 43.0311C89.36 43.0311 88.7707 43.9265 88.7707 45.2272ZM94.4999 48.4169V42.0375H95.9238V42.8714C96.2554 42.3683 96.9056 41.8902 97.8146 41.8902C99.1526 41.8902 99.9996 42.8595 99.9996 44.2579V48.4169H98.5757V44.5404C98.5757 43.6695 98.1707 43.0806 97.3112 43.0806C96.599 43.0806 95.9238 43.6081 95.9238 44.6263V48.4174H94.4999V48.4169Z" fill="#FDFFF1"/>
<path d="M22.543 50.7492V0H24.7972V50.7492H22.543Z" fill="#FDFFF1"/>
<path d="M18.0352 50.7492V0H20.2894V50.7492H18.0352Z" fill="#FDFFF1"/>
<path d="M13.5273 50.7508V22.1287H15.7816V50.7508H13.5273Z" fill="#FDFFF1"/>
<path d="M9.01562 50.7508V22.1287H11.2698V50.7508H9.01562Z" fill="#FDFFF1"/>
<path d="M4.50781 50.7508V22.1287H6.76202V50.7508H4.50781Z" fill="#FDFFF1"/>
<path d="M0 50.7508V22.1287H2.25421V50.7508H0Z" fill="#FDFFF1"/>
<path d="M27.0508 50.7492V0H29.305V50.7492H27.0508Z" fill="#FDFFF1"/>
<path d="M15.7785 0.00155926H0.0546875V22.1287H15.7779V0.00155926H15.7785ZM12.3352 2.82605L12.7428 3.35983L13.4024 3.15589L12.9948 3.68916L13.4024 4.22294L12.7428 4.019L12.3352 4.55227V3.8931L11.6756 3.68916L12.3352 3.48521V2.82605ZM13.4024 7.83198L12.7428 7.62804L12.3352 8.16182V7.50266L11.6756 7.29871L12.3352 7.09477V6.4356L12.7428 6.96887L13.4024 6.76493L12.9948 7.29871L13.4024 7.83198ZM13.4024 11.5987L12.7428 11.3947L12.3352 11.928V11.2688L11.6756 11.0649L12.3352 10.8609V10.2018L12.7428 10.735L13.4024 10.5311L12.9948 11.0649L13.4024 11.5987ZM13.4024 15.2379L12.7428 15.0527L12.3352 15.5375V14.9382L11.6756 14.753L12.3352 14.5678V13.9684L12.7428 14.4538L13.4024 14.2686L12.9948 14.7535L13.4024 15.2389V15.2379ZM11.8323 17.091L11.1727 16.8871L10.7651 17.4204V16.7612L10.1054 16.5572L10.7651 16.3533V15.6941L11.1727 16.2274L11.8323 16.0235L11.4247 16.5572L11.8323 17.091ZM8.53479 14.753L9.19439 14.5678V13.9684L9.60202 14.4538L10.2616 14.2686L9.854 14.7535L10.2616 15.2389L9.60202 15.0537L9.19439 15.5386V14.9392L8.53479 14.754V14.753ZM8.69149 17.091L8.03189 16.8871L7.62425 17.4204V16.7612L6.96465 16.5572L7.62425 16.3533V15.6941L8.03189 16.2274L8.69149 16.0235L8.28386 16.5572L8.69149 17.091ZM5.39399 14.753L6.05359 14.5678V13.9684L6.46123 14.4538L7.12083 14.2686L6.7132 14.7535L7.12083 15.2389L6.46123 15.0537L6.05359 15.5386V14.9392L5.39399 14.754V14.753ZM5.55121 17.091L4.89161 16.8871L4.48398 17.4204V16.7612L3.82437 16.5572L4.48398 16.3533V15.6941L4.89161 16.2274L5.55121 16.0235L5.14358 16.5572L5.55121 17.091ZM2.25371 14.753L2.91332 14.5678V13.9684L3.32095 14.4538L3.98055 14.2686L3.57292 14.7535L3.98055 15.2389L3.32095 15.0537L2.91332 15.5386V14.9392L2.25371 14.754V14.753ZM11.8323 6.10628L11.1727 5.90234L10.7651 6.4356V5.77644L10.1054 5.57249L10.7651 5.36855V4.70938L11.1727 5.24265L11.8323 5.03871L11.4247 5.57249L11.8323 6.10628ZM11.8323 9.71532L11.1727 9.51138L10.7651 10.0446V9.38547L10.1054 9.18153L10.7651 8.97759V8.31842L11.1727 8.85221L11.8323 8.64827L11.4247 9.18153L11.8323 9.71532ZM11.8323 13.4815L11.1727 13.2775L10.7651 13.8113V13.1522L10.1054 12.9482L10.7651 12.7443V12.0851L11.1727 12.6184L11.8323 12.4144L11.4247 12.9482L11.8323 13.4815ZM8.53479 11.0649L9.19439 10.8609V10.2018L9.60202 10.735L10.2616 10.5311L9.854 11.0649L10.2616 11.5987L9.60202 11.3947L9.19439 11.928V11.2688L8.53479 11.0649ZM8.69149 13.4815L8.03189 13.2775L7.62425 13.8113V13.1522L6.96465 12.9482L7.62425 12.7443V12.0851L8.03189 12.6184L8.69149 12.4144L8.28386 12.9482L8.69149 13.4815ZM5.39399 11.0649L6.05359 10.8609V10.2018L6.46123 10.735L7.12083 10.5311L6.7132 11.0649L7.12083 11.5987L6.46123 11.3947L6.05359 11.928V11.2688L5.39399 11.0649ZM5.55121 13.4815L4.89161 13.2775L4.48398 13.8113V13.1522L3.82437 12.9482L4.48398 12.7443V12.0851L4.89161 12.6184L5.55121 12.4144L5.14358 12.9482L5.55121 13.4815ZM5.55121 9.71532L4.89161 9.51138L4.48398 10.0446V9.38547L3.82437 9.18153L4.48398 8.97759V8.31842L4.89161 8.85221L5.55121 8.64827L5.14358 9.18153L5.55121 9.71532ZM8.69149 9.71532L8.03189 9.51138L7.62425 10.0446V9.38547L6.96465 9.18153L7.62425 8.97759V8.31842L8.03189 8.85221L8.69149 8.64827L8.28386 9.18153L8.69149 9.71532ZM10.2621 6.76493L9.85452 7.29871L10.2621 7.83198L9.60254 7.62804L9.19491 8.16182V7.50266L8.53531 7.29871L9.19491 7.09477V6.4356L9.60254 6.96887L10.2621 6.76493ZM8.69149 6.10628L8.03189 5.90234L7.62425 6.4356V5.77644L6.96465 5.57249L7.62425 5.36855V4.70938L8.03189 5.24265L8.69149 5.03871L8.28386 5.57249L8.69149 6.10628ZM7.12135 6.76493L6.71372 7.29871L7.12135 7.83198L6.46175 7.62804L6.05412 8.16182V7.50266L5.39451 7.29871L6.05412 7.09477V6.4356L6.46175 6.96887L7.12135 6.76493ZM5.55121 6.10628L4.89161 5.90234L4.48398 6.4356V5.77644L3.82437 5.57249L4.48398 5.36855V4.70938L4.89161 5.24265L5.55121 5.03871L5.14358 5.57249L5.55121 6.10628ZM3.98107 6.76493L3.57344 7.29871L3.98107 7.83198L3.32147 7.62804L2.91384 8.16182V7.50266L2.25423 7.29871L2.91384 7.09477V6.4356L3.32147 6.96887L3.98107 6.76493ZM2.91332 10.2018L3.32095 10.735L3.98055 10.5311L3.57292 11.0649L3.98055 11.5987L3.32095 11.3947L2.91332 11.928V11.2688L2.25371 11.0649L2.91332 10.8609V10.2018ZM10.7651 1.6024V0.943228L11.1727 1.47649L11.8323 1.27255L11.4247 1.80634L11.8323 2.3396L11.1727 2.13566L10.7651 2.66945V2.01028L10.1054 1.80634L10.7651 1.6024ZM9.19491 2.82605L9.60254 3.35983L10.2621 3.15589L9.85452 3.68916L10.2621 4.22294L9.60254 4.019L9.19491 4.55227V3.8931L8.53531 3.68916L9.19491 3.48521V2.82605ZM7.62425 1.6024V0.943228L8.03189 1.47649L8.69149 1.27255L8.28386 1.80634L8.69149 2.3396L8.03189 2.13566L7.62425 2.66945V2.01028L6.96465 1.80634L7.62425 1.6024ZM6.05359 2.82605L6.46123 3.35983L7.12083 3.15589L6.7132 3.68916L7.12083 4.22294L6.46123 4.019L6.05359 4.55227V3.8931L5.39399 3.68916L6.05359 3.48521V2.82605ZM4.48346 1.6024V0.943228L4.89109 1.47649L5.55069 1.27255L5.14306 1.80634L5.55069 2.3396L4.89109 2.13566L4.48346 2.66945V2.01028L3.82385 1.80634L4.48346 1.6024ZM2.91332 2.82605L3.32095 3.35983L3.98055 3.15589L3.57292 3.68916L3.98055 4.22294L3.32095 4.019L2.91332 4.55227V3.8931L2.25371 3.68916L2.91332 3.48521V2.82605ZM1.34266 1.6024V0.943228L1.75029 1.47649L2.40989 1.27255L2.00226 1.80634L2.40989 2.3396L1.75029 2.13566L1.34266 2.66945V2.01028L0.683055 1.80634L1.34266 1.6024ZM1.34266 5.36855V4.70938L1.75029 5.24265L2.40989 5.03871L2.00226 5.57249L2.40989 6.10628L1.75029 5.90234L1.34266 6.4356V5.77644L0.683055 5.57249L1.34266 5.36855ZM1.34266 8.97811V8.31894L1.75029 8.85273L2.40989 8.64879L2.00226 9.18205L2.40989 9.71584L1.75029 9.5119L1.34266 10.0452V9.38599L0.683055 9.18205L1.34266 8.97811ZM1.34266 12.7443V12.0851L1.75029 12.6184L2.40989 12.4144L2.00226 12.9482L2.40989 13.4815L1.75029 13.2775L1.34266 13.8113V13.1522L0.683055 12.9482L1.34266 12.7443ZM1.34266 16.3538V15.6947L1.75029 16.2279L2.40989 16.024L2.00226 16.5578L2.40989 17.0916L1.75029 16.8876L1.34266 17.4209V16.7617L0.683055 16.5578L1.34266 16.3538ZM2.41042 20.8577L1.75081 20.6538L1.34318 21.187V20.5273L0.683576 20.3234L1.34318 20.1195V19.4603L1.75081 19.9941L2.41042 19.7901L2.00278 20.3234L2.41042 20.8572V20.8577ZM2.91332 19.3037V18.6445L2.25371 18.4406L2.91332 18.2366V17.5775L3.32095 18.1107L3.98055 17.9068L3.57292 18.4406L3.98055 18.9738L3.32095 18.7699L2.91332 19.3037ZM5.55121 20.8577L4.89161 20.6538L4.48398 21.187V20.5273L3.82437 20.3234L4.48398 20.1195V19.4603L4.89161 19.9941L5.55121 19.7901L5.14358 20.3234L5.55121 20.8572V20.8577ZM6.05359 19.3037V18.6445L5.39399 18.4406L6.05359 18.2366V17.5775L6.46123 18.1107L7.12083 17.9068L6.7132 18.4406L7.12083 18.9738L6.46123 18.7699L6.05359 19.3037ZM8.69149 20.8577L8.03189 20.6538L7.62425 21.187V20.5273L6.96465 20.3234L7.62425 20.1195V19.4603L8.03189 19.9941L8.69149 19.7901L8.28386 20.3234L8.69149 20.8572V20.8577ZM9.19491 19.3037V18.6445L8.53531 18.4406L9.19491 18.2366V17.5775L9.60254 18.1107L10.2621 17.9068L9.85452 18.4406L10.2621 18.9738L9.60254 18.7699L9.19491 19.3037ZM11.8323 20.8577L11.1727 20.6538L10.7651 21.187V20.5273L10.1054 20.3234L10.7651 20.1195V19.4603L11.1727 19.9941L11.8323 19.7901L11.4247 20.3234L11.8323 20.8572V20.8577ZM12.3352 19.3037V18.6445L11.6756 18.4406L12.3352 18.2366V17.5775L12.7428 18.1107L13.4024 17.9068L12.9948 18.4406L13.4024 18.9738L12.7428 18.7699L12.3352 19.3037ZM14.9731 20.8577L14.3135 20.6538L13.9059 21.187V20.5273L13.2462 20.3234L13.9059 20.1195V19.4603L14.3135 19.9941L14.9731 19.7901L14.5655 20.3234L14.9731 20.8572V20.8577ZM14.9731 17.091L14.3135 16.8871L13.9059 17.4204V16.7612L13.2462 16.5572L13.9059 16.3533V15.6941L14.3135 16.2274L14.9731 16.0235L14.5655 16.5572L14.9731 17.091ZM14.9731 13.4815L14.3135 13.2775L13.9059 13.8113V13.1522L13.2462 12.9482L13.9059 12.7443V12.0851L14.3135 12.6184L14.9731 12.4144L14.5655 12.9482L14.9731 13.4815ZM14.9731 9.71532L14.3135 9.51138L13.9059 10.0446V9.38547L13.2462 9.18153L13.9059 8.97759V8.31842L14.3135 8.85221L14.9731 8.64827L14.5655 9.18153L14.9731 9.71532ZM14.9731 6.10628L14.3135 5.90234L13.9059 6.4356V5.77644L13.2462 5.57249L13.9059 5.36855V4.70938L14.3135 5.24265L14.9731 5.03871L14.5655 5.57249L14.9731 6.10628ZM14.9731 2.33908L14.3135 2.13514L13.9059 2.66893V2.00976L13.2462 1.80582L13.9059 1.60188V0.942708L14.3135 1.47597L14.9731 1.27203L14.5655 1.80582L14.9731 2.33908Z" fill="#FDFFF1"/>
</svg>
