<svg width="1329" height="160" viewBox="0 0 1329 160" fill="none" xmlns="http://www.w3.org/2000/svg">
<path d="M1303.45 141.255C1297.21 151.36 1284.53 159.53 1268.83 159.53C1239.38 159.53 1220.24 133.3 1220.24 101.05C1220.24 68.8 1239.38 42.57 1268.83 42.57C1284.53 42.57 1297.21 50.74 1303.45 60.845V0H1328.39V156.95H1303.45V141.255ZM1304.52 101.05C1304.52 78.045 1293.56 62.565 1274.85 62.565C1255.93 62.565 1245.4 78.045 1245.4 101.05C1245.4 124.055 1255.93 139.535 1274.85 139.535C1293.56 139.535 1304.52 124.055 1304.52 101.05Z" fill="#FDFFF1"/>
<path d="M1212.92 0V156.95H1187.98V0H1212.92Z" fill="#FDFFF1"/>
<path d="M1152.49 25.585V0H1177.86V25.585H1152.49ZM1177.65 45.15V156.95H1152.71V45.15H1177.65Z" fill="#FDFFF1"/>
<path d="M1142.33 45.15V156.95H1117.39V142.33C1111.59 151.145 1100.84 159.53 1084.93 159.53C1061.71 159.53 1047.09 142.545 1047.09 118.035V45.15H1072.03V113.09C1072.03 128.355 1078.91 138.675 1093.53 138.675C1106 138.675 1117.39 129.43 1117.39 111.585V45.15H1142.33Z" fill="#FDFFF1"/>
<path d="M924.059 156.95V0H983.399C1016.29 0 1036.5 14.405 1036.5 42.355C1036.5 59.555 1027.26 71.595 1015.43 75.68C1030.48 80.41 1041.88 95.03 1041.88 112.23C1041.88 141.47 1021.24 156.95 988.989 156.95H924.059ZM949.214 65.79H983.399C1001.89 65.79 1011.35 59.34 1011.35 44.075C1011.35 29.025 1001.89 22.575 983.399 22.575H949.214V65.79ZM949.214 87.935V134.375H988.344C1006.4 134.375 1016.29 125.345 1016.29 110.94C1016.29 96.32 1006.4 87.935 988.344 87.935H949.214Z" fill="#FDFFF1"/>
<path d="M876.816 121.475C873.161 143.835 855.101 159.53 828.656 159.53C797.266 159.53 775.336 135.665 775.336 101.265C775.336 67.725 798.126 42.57 828.656 42.57C860.691 42.57 878.536 67.295 878.536 98.685C878.536 102.34 878.321 104.705 877.676 107.93H798.986C801.136 129.645 813.821 139.535 828.656 139.535C842.631 139.535 851.231 132.44 854.241 121.475H876.816ZM828.441 62.565C811.886 62.565 802.856 74.175 799.846 89.44H854.241C854.026 75.25 844.781 62.565 828.441 62.565Z" fill="#FDFFF1"/>
<path d="M682.045 0H702.9L734.935 116.315L765.895 0H791.48L748.48 156.95H724.4L692.58 43.645L660.545 156.95H636.465L593.25 0H618.835L649.795 116.315L682.045 0Z" fill="#FDFFF1"/>
<path d="M524.494 141.255C518.259 151.36 505.574 159.53 489.879 159.53C460.424 159.53 441.289 133.3 441.289 101.05C441.289 68.8 460.424 42.57 489.879 42.57C505.574 42.57 518.259 50.74 524.494 60.845V0H549.434V156.95H524.494V141.255ZM525.569 101.05C525.569 78.045 514.604 62.565 495.899 62.565C476.979 62.565 466.444 78.045 466.444 101.05C466.444 124.055 476.979 139.535 495.899 139.535C514.604 139.535 525.569 124.055 525.569 101.05Z" fill="#FDFFF1"/>
<path d="M434.64 121.475C430.985 143.835 412.925 159.53 386.48 159.53C355.09 159.53 333.16 135.665 333.16 101.265C333.16 67.725 355.95 42.57 386.48 42.57C418.515 42.57 436.36 67.295 436.36 98.685C436.36 102.34 436.145 104.705 435.5 107.93H356.81C358.96 129.645 371.645 139.535 386.48 139.535C400.455 139.535 409.055 132.44 412.065 121.475H434.64ZM386.265 62.565C369.71 62.565 360.68 74.175 357.67 89.44H412.065C411.85 75.25 402.605 62.565 386.265 62.565Z" fill="#FDFFF1"/>
<path d="M287.439 130.72V65.575H274.969V45.15H287.439V17.415H312.164V45.15H333.664V65.575H312.164V127.28C312.164 134.16 315.174 136.525 321.624 136.525H333.664V156.95H315.174C297.759 156.95 287.439 148.78 287.439 130.72Z" fill="#FDFFF1"/>
<path d="M243.781 25.585V0H269.151V25.585H243.781ZM268.936 45.15V156.95H243.996V45.15H268.936Z" fill="#FDFFF1"/>
<path d="M137.754 156.95V45.15H162.694V59.77C168.499 50.955 179.894 42.57 195.804 42.57C219.239 42.57 234.074 59.555 234.074 84.065V156.95H209.134V89.01C209.134 73.745 202.039 63.425 186.989 63.425C174.519 63.425 162.694 72.67 162.694 90.515V156.95H137.754Z" fill="#FDFFF1"/>
<path d="M64.07 136.095C87.935 136.095 102.555 121.26 102.555 90.73V0H128.355V93.525C128.355 136.74 101.48 159.53 64.07 159.53C26.875 159.53 0 136.74 0 93.525V0H25.8V90.73C25.8 121.26 40.42 136.095 64.07 136.095Z" fill="#FDFFF1"/>
</svg>
